<svg xmlns="http://www.w3.org/2000/svg">
<defs>
<font id="UTMDuepuntozero" horiz-adv-x="858" >
  <font-face 
    font-family="UTM Duepuntozero"
    font-weight="400"
    font-stretch="normal"
    units-per-em="2048"
    panose-1="2 4 6 3 5 5 6 2 2 4"
    ascent="1638"
    descent="-410"
    x-height="1014"
    cap-height="1352"
    bbox="-101 -632 4942 2078"
    underline-thickness="109"
    underline-position="-143"
    unicode-range="U+0020-U+2026"
  />
<missing-glyph horiz-adv-x="5040" 
d="M3351 2045h10q37 -10 37 -52q0 -12 -32 -57h-28q0 24 28 54l2 10q-5 13 -10 15h-9q-8 0 -10 -19h-30q6 49 42 49zM2019 2016l29 -31q0 -16 -40 -30h-19l-59 12l-11 -12l-28 25q11 29 43 29h11l42 -11h2q10 0 30 18zM468 1980h142v-60h-94v-75h89v-59h-89v-129l-5 -5h-49
v323zM1155 1980h43l6 -5v-78h30v-52h-30v-188l-6 -5h-49v193h-25v52h25v78zM1621 1980h42l4 -5v-94h3q23 24 54 24h2q58 0 83 -71l2 -39v-143h-52v115q0 80 -42 80h-7q-43 0 -43 -86v-109h-51v323zM2200 1980h49l5 -5v-222q10 -51 45 -51q44 7 44 59v214l5 5h49v-216
q0 -85 -66 -112q-15 -8 -35 -8q-47 0 -82 55q-14 24 -14 57v224zM2435 1980h159v-60h-56v-268h-53v268h-55v55zM2621 1980h71q7 -4 83 -251h2l80 251h73v-328h-54v242h-2l-74 -242h-44q-4 0 -58 182l-19 60h-3v-242h-55v328zM3760 1980h52v-328h-45l-5 5v11l3 2l-3 14
q-29 -40 -78 -40q-67 0 -100 91l-5 39v3q0 94 92 125l23 3q35 0 63 -32h3v107zM2057 1928h36l4 -6v-49h-45v-221h-48v23q-23 -31 -59 -31q-89 14 -89 97v156h51v-104q0 -79 26 -86l18 -5h6q26 0 39 36l3 26v133h53v25zM3476 1928v-55h-31v-221h-47v25h-2q-15 -33 -57 -33
q-68 0 -86 78l-3 29v146h52v-120q0 -50 19 -68l21 -7h9q42 0 42 69v126h27q4 0 4 28l3 3h49zM758 1905q68 0 103 -77q9 -18 12 -54q0 -88 -90 -127l-32 -3q-63 0 -101 73q-12 22 -12 52v10q0 94 101 126h19zM1011 1905h3q74 0 83 -101v-152h-51v119q0 76 -42 76h-5
q-44 0 -44 -76v-119h-52v245h46v-21q30 29 62 29zM1466 1905h7q72 0 105 -89h-60q-16 31 -42 31h-17q-53 -14 -53 -61l-3 -15q12 -69 61 -69h9q22 0 47 27h40l2 3h3l2 -3l2 3l3 -3l2 3l2 -7q-33 -81 -110 -81q-76 0 -110 94l-4 36v3q0 85 77 120q15 8 37 8zM3141 1905h2

<glyph glyph-name=".notdef" horiz-adv-x="5040" 
d="M3351 2045h10q37 -10 37 -52q0 -12 -32 -57h-28q0 24 28 54l2 10q-5 13 -10 15h-9q-8 0 -10 -19h-30q6 49 42 49zM2019 2016l29 -31q0 -16 -40 -30h-19l-59 12l-11 -12l-28 25q11 29 43 29h11l42 -11h2q10 0 30 18zM468 1980h142v-60h-94v-75h89v-59h-89v-129l-5 -5h-49
v323zM1155 1980h43l6 -5v-78h30v-52h-30v-188l-6 -5h-49v193h-25v52h25v78zM1621 1980h42l4 -5v-94h3q23 24 54 24h2q58 0 83 -71l2 -39v-143h-52v115q0 80 -42 80h-7q-43 0 -43 -86v-109h-51v323zM2200 1980h49l5 -5v-222q10 -51 45 -51q44 7 44 59v214l5 5h49v-216
q0 -85 -66 -112q-15 -8 -35 -8q-47 0 -82 55q-14 24 -14 57v224zM2435 1980h159v-60h-56v-268h-53v268h-55v55zM2621 1980h71q7 -4 83 -251h2l80 251h73v-328h-54v242h-2l-74 -242h-44q-4 0 -58 182l-19 60h-3v-242h-55v328zM3760 1980h52v-328h-45l-5 5v11l3 2l-3 14
q-29 -40 -78 -40q-67 0 -100 91l-5 39v3q0 94 92 125l23 3q35 0 63 -32h3v107zM2057 1928h36l4 -6v-49h-45v-221h-48v23q-23 -31 -59 -31q-89 14 -89 97v156h51v-104q0 -79 26 -86l18 -5h6q26 0 39 36l3 26v133h53v25zM3476 1928v-55h-31v-221h-47v25h-2q-15 -33 -57 -33
q-68 0 -86 78l-3 29v146h52v-120q0 -50 19 -68l21 -7h9q42 0 42 69v126h27q4 0 4 28l3 3h49zM758 1905q68 0 103 -77q9 -18 12 -54q0 -88 -90 -127l-32 -3q-63 0 -101 73q-12 22 -12 52v10q0 94 101 126h19zM1011 1905h3q74 0 83 -101v-152h-51v119q0 76 -42 76h-5
q-44 0 -44 -76v-119h-52v245h46v-21q30 29 62 29zM1466 1905h7q72 0 105 -89h-60q-16 31 -42 31h-17q-53 -14 -53 -61l-3 -15q12 -69 61 -69h9q22 0 47 27h40l2 3h3l2 -3l2 3l3 -3l2 3l2 -7q-33 -81 -110 -81q-76 0 -110 94l-4 36v3q0 85 77 120q15 8 37 8zM3141 1905h2
q49 0 70 -60v-14h-52q0 16 -16 16h-4q-14 0 -19 -13v-13q0 -9 68 -35q30 -19 30 -59q0 -58 -61 -80l-23 -3q-76 12 -76 83h54q0 -20 27 -25h4q19 0 24 23q0 22 -68 44q-34 27 -34 59q0 66 74 77zM4203 1905q55 0 77 -63q7 -18 7 -65v-125h-52v112q0 83 -40 83h-11
q-33 0 -40 -54v-141h-52v5h-2l2 2v238h47v-21q25 29 64 29zM4432 1905h5q40 0 69 -40v18l-3 3l3 11h47v-208q0 -97 -85 -132l-33 -4h-7q-70 0 -104 80h59q24 -22 45 -23h13q22 0 43 22q15 13 22 52h-3q-32 -40 -73 -40q-57 0 -96 70q-10 18 -14 63q0 88 87 125zM3851 1897
h53v-136q6 -59 40 -59h7q46 0 46 93v102h51v-245h-47l-3 10h3l-3 3v5l3 2v3h-4q0 -23 -57 -31h-3q-59 0 -84 75l-2 85v93zM690 1771q10 -69 63 -69h7q59 14 59 65v15q-13 65 -59 65h-5q-58 0 -65 -76zM3630 1774q13 -72 61 -72h5q58 0 66 75q0 49 -51 70h-22q-37 0 -56 -57z
M4374 1774q8 -72 65 -72h5q59 12 59 72q0 61 -59 73h-14q-56 -16 -56 -62v-11zM3928 1620h52v-57h-52v57zM1054 1402q43 -11 43 -49v-4q0 -17 -32 -60h-28q0 25 31 57v7q0 12 -7 15h-12q-10 -4 -10 -19h-28v6q0 32 33 44zM3349 1339q92 0 138 -99h-60q-37 42 -80 42
q-55 0 -87 -68q-10 -22 -10 -47q0 -78 81 -110l18 -1q36 0 75 39h61q-44 -97 -138 -97q-93 0 -141 112q-10 31 -10 62q0 97 90 152q29 15 63 15zM3664 1339q57 0 103 -47q46 -51 46 -115v-20q0 -89 -91 -146q-33 -13 -63 -13q-89 0 -138 101q-13 33 -13 60v18q0 98 98 151
q29 11 58 11zM2261 1337h2l47 -11h3q11 0 26 11l18 -36q-18 -19 -35 -19h-3l-54 10l-20 -7l-20 36q18 16 36 16zM716 1334h19q118 0 129 -26q25 -26 25 -62q-10 -57 -30 -57v-6q47 -23 47 -66v-18q0 -63 -69 -88l-54 -5h-67v328zM2550 1334h53v-217q6 -61 45 -61q29 0 44 39
l3 30v203l4 6h45l5 -6v-171q0 -118 -40 -133q-24 -26 -64 -26q-55 0 -91 76l-4 54v206zM2805 1334h59q4 0 122 -237h4v237h50l4 -6v-322h-58q-29 48 -125 238h-3v-238h-53v328zM3101 1334h54v-328h-54v328zM3859 1334h8q155 0 174 -40q23 -11 47 -75l4 -36v-11l3 -2
q0 -94 -82 -149q-35 -15 -99 -15h-55v328zM4141 1334h153v-60h-103v-75h101v-57h-101v-74l4 -5h99v-57h-157v322zM3563 1175v-10q0 -76 79 -108l19 -1q68 0 96 86l3 20v15q0 61 -60 94q-12 8 -39 11q-66 0 -96 -83zM770 1274v-67h9q54 0 54 28l3 14q-11 25 -29 25h-37z
M3912 1274v-206l2 -3v-2q104 0 122 76l2 15v29q0 34 -32 68q-25 23 -78 23h-16zM1041 1259h5q38 0 71 -40v32h49v-245h-49v32q-36 -40 -80 -40q-75 0 -101 97l-5 36q0 89 85 125zM1314 1259h3q74 0 83 -102v-151h-51v128q0 67 -42 67h-10q-34 0 -39 -62v-133h-52v245h47v-21
q28 29 61 29zM1543 1259h5q45 0 71 -40v32h47v-219q0 -95 -104 -126h-16q-74 0 -108 82h59q26 -25 44 -25h14q52 0 64 77q-33 -42 -76 -42q-60 0 -101 81l-7 44v16q0 79 85 117zM1912 1259h2q43 0 61 -37h2q32 37 69 37h4q57 0 79 -55q8 -25 8 -45v-153h-52v138q0 44 -23 55
l-12 2h-15q-32 0 -36 -65v-130h-52v136q0 59 -43 59h-8q-32 0 -36 -57v-138h-54v245h50v-21h2q6 24 54 29zM2282 1259q47 0 75 -42v34h47v-245h-47v32q-36 -40 -78 -40q-74 0 -102 92l-6 41q0 90 85 125zM985 1117q0 -48 61 -61h4q45 0 62 46l3 15v22q-12 62 -57 62h-14
q-41 0 -59 -57v-27zM1487 1128q0 -48 43 -68l18 -4h5q47 0 63 57v23q-11 65 -58 65h-12q-50 0 -59 -73zM2225 1131v-14q15 -61 57 -61h14q58 12 58 64v11q0 45 -37 65l-18 5h-10q-64 -8 -64 -70zM770 1150v-82q0 -5 7 -5q77 0 77 45q0 34 -47 42h-37zM2966 753l24 -28
l-51 -55q-18 12 -27 26zM1524 727l85 -54q0 -15 -21 -42l-87 54q18 41 23 42zM2850 693h38l55 -60h-54l-21 26l-23 -26h-54q54 60 59 60zM3422 693h40l56 -60h-54l-24 26h-1q0 -5 -19 -26h-54zM622 685h52q8 -4 47 -137l34 -110q9 8 34 100l48 147h54v-2l-112 -326h-44z
M1159 685h51v-54h-51v54zM1354 685h46l6 -5v-323h-52v328zM2317 685h45l4 -5v-78h31v-52h-31v-193h-53v193h-26v52h26v78zM2425 685h52v-98h2q23 23 54 23h3q57 0 81 -71l3 -38v-144h-52v115q0 81 -39 81h-10q-42 0 -42 -87v-109h-52v328zM2664 685h52v-54h-52v54zM3028 685
h44l6 -5v-78h29v-52h-29v-193h-54v193h-27v52h27v78zM3234 685h52v-328h-52v328zM3957 685h52v-328h-52v328zM4316 685h51v-54h-51v54zM1555 610h5q83 0 110 -102l3 -23v-11q0 -83 -85 -120l-35 -5q-76 0 -111 97l-4 32q0 97 93 130zM1811 610h4q53 0 78 -60q7 -25 7 -81
v-112h-54v146q-7 50 -37 50h-10q-38 0 -42 -57v-139h-54v245h49v-21q26 29 59 29zM2046 610h4q45 0 63 -39h3v31h49v-206q0 -102 -89 -135l-28 -3h-5q-73 0 -106 81h52l37 -20l15 -3h14q50 0 61 72q-33 -39 -73 -39q-62 0 -98 76q-11 23 -12 60q0 85 86 123zM2866 610h2
q82 0 111 -104l2 -25l-2 -27h-172q15 -45 45 -45l14 -3q29 0 49 22h57v-3q-35 -76 -108 -76q-77 0 -111 97l-1 28v8q0 49 32 89q34 39 82 39zM3429 610h5q41 0 70 -39h2v31h47v-245h-47v31h-2q-35 -39 -77 -39q-71 0 -101 89l-5 36v14q0 86 84 120zM3711 610h7
q88 0 107 -128l-2 -1v-15q0 -65 -66 -106q-21 -11 -46 -11q-34 0 -64 32v-99l-5 -5h-49v325h49v-28q31 36 69 36zM4151 610q44 0 75 -39v31h49v-245h-49v31q-35 -39 -77 -39q-92 0 -108 132q0 84 73 121q15 8 37 8zM922 602h50v-136q3 -60 42 -60h5q44 0 44 87v109h52v-245
h-47v24h-5q0 -23 -56 -32h-3q-55 0 -82 68q-4 35 -4 99v81zM1159 602h51v-245h-51v245zM2664 602h52v-245h-52v245zM4316 602h51v-245h-51v245zM1492 488v-16q13 -66 59 -66h4q59 0 66 76q-13 71 -59 71h-11q-59 -16 -59 -65zM1987 472q15 -66 59 -66h11q48 0 59 75v1
q-13 71 -59 71h-14q-39 0 -56 -57v-24zM2805 506h122v2q-16 45 -59 45h-7q-35 0 -56 -47zM3373 474q13 -68 61 -68h5q52 0 65 63v12q-10 72 -57 72h-16q-56 -14 -56 -63zM3642 478q12 -72 61 -72h3q50 0 65 60v22q0 43 -49 65h-22q-47 0 -58 -72v-3zM4095 472q10 -66 66 -66
q43 0 61 48l2 15v16q0 54 -52 68h-18q-42 0 -59 -60v-21zM3416 321h51v-52h-51v52zM4137 321h51v-52h-51v52zM2733 133h4q35 0 43 -50v-2q0 -16 -24 -41l-10 -17h-28q0 25 28 56l3 2v2q-3 19 -9 19h-10q-8 0 -9 -19h-30q6 50 42 50zM1546 116l52 -60l-26 -19l-52 52zM352 79
h4q75 -48 85 -60l-20 -37q-88 49 -88 58zM3490 79l86 -58l-18 -39q-10 0 -91 55q15 36 23 42zM4578 76l19 -42l-91 -52l-20 39l92 58v-3zM1204 53h51v-19l5 -5h14v-36h-14l-5 -5v-279h-46v31q-34 -40 -81 -40q-72 0 -102 105l-3 26q0 102 101 131h14q33 0 66 -33v59l-6 5
h-43v36h49v24zM1480 45h40l56 -61h-53l-23 27l-23 -27h-53zM2641 45h33q12 0 63 -61h-54l-23 27q-19 -21 -19 -27h-58v4zM49 37h160v-60h-56v-268h-50l-4 5v245l2 3v2l-2 2l2 3l-2 2l2 3l-2 3h-54v54zM699 37h47v-73l2 -2l-2 -3v-3l2 -2l-2 -3v-3l2 -2v-2l-2 -3l2 -3h3
q17 24 51 24h3q53 0 77 -58q7 -17 7 -42v-153h-52v127q0 68 -40 68h-8q-43 0 -43 -86v-109h-52v322zM1297 37h47l5 -6v-49h-52v55zM1987 37h52v-198l70 115h62l-78 -118l90 -125v-2h-70q-10 22 -74 115v-115h-52v328zM2271 37v-99q24 24 53 24q57 0 80 -56q10 -19 10 -77
v-120h-54v133q0 62 -41 62h-11q-31 0 -37 -55v-140h-53v314l-1 3v3l1 2l-1 3l1 3h53zM2458 37h51v-55h-51v55zM3148 37h51v-108q27 33 68 33h3q75 0 105 -94l5 -37q0 -75 -64 -120q-30 -11 -49 -11q-41 0 -72 40v-31h-47v328zM4275 37h52v-99h2q23 24 54 24h3q60 0 82 -74
l2 -41v-138h-52v111q0 82 -32 82l-10 2h-12q-37 0 -37 -80v-115h-52v328zM329 -38h3v-58h-5q-42 0 -42 -57v-138h-53v245h47v-21q18 29 50 29zM564 -38q71 0 86 -87v-166h-51v136q-6 59 -41 59h-6q-45 0 -45 -84v-111h-52v245h50v-21q25 29 59 29zM1504 -38q72 0 105 -94
l5 -39q-2 -24 -7 -24h-169q17 -47 62 -47q24 0 48 21h57q-33 -79 -108 -79q-82 0 -113 105v37q0 81 89 117zM2657 -38h5q77 0 107 -97l3 -26v-21l-3 -13h-170q18 -47 53 -47h12q21 0 42 21h59q-34 -79 -105 -79q-84 0 -115 102l-2 29q0 93 91 128zM2915 -38h4q54 0 78 -60
q7 -25 7 -82v-111h-54v138q0 48 -35 57h-11q-38 0 -43 -57v-138h-54v245h50v-21q25 29 58 29zM3508 -38h6q40 0 70 -40h2v32h47v-245h-47v31h-2q-34 -40 -78 -40q-71 0 -101 90l-4 37v12q0 82 77 117q11 6 30 6zM3781 -38h4q62 0 82 -78l3 -84v-91h-54v138q0 48 -38 57h-9
q-38 0 -42 -52v-143h-54v245h49v-21q26 29 59 29zM4133 -38h1q74 0 104 -93l4 -40q0 -88 -84 -126l-25 -3q-41 0 -68 34v-106h-52v326h47v-29q30 37 73 37zM4714 -38h5q34 0 63 -37q27 37 69 37h6q56 0 79 -66l6 -51v-136h-52v122q0 73 -39 73h-7q-35 0 -41 -50v-140l-5 -5
h-48v140q0 42 -31 55h-17q-40 0 -40 -77v-118h-51v245h47v-21q22 29 56 29zM359 -46h49l5 -6v-234l-5 -5h-49v245zM1297 -46h52v-245h-52v245zM1649 -46h52v-136q4 -60 43 -60h4q44 0 44 81v115h52v-245h-47v24h-5q-12 -33 -59 -33q-52 0 -79 63q-5 12 -5 34v157zM2458 -46
h51v-245h-51v245zM4515 -46h51v-245h-51v245zM1077 -169q0 -53 51 -73h12q54 0 66 66v10q0 53 -54 70h-17q-38 0 -58 -57v-16zM1438 -143h122q-18 47 -53 47h-7q-43 0 -62 -44v-3zM2599 -143h122q-21 47 -54 47h-7q-46 0 -61 -47zM3196 -158v-11q10 -73 61 -73h5q64 8 64 71
v5q0 45 -38 65l-18 5h-14q-60 -14 -60 -62zM3452 -173q14 -69 62 -69h11q41 0 59 60v13q-8 73 -56 73h-17q-47 0 -59 -73v-4zM4062 -158v-22q0 -47 59 -62h9q50 0 61 76q-13 70 -58 70h-15q-56 -17 -56 -62z" />
    <glyph glyph-name=".null" horiz-adv-x="0" 
 />
    <glyph glyph-name="nonmarkingreturn" horiz-adv-x="571" 
 />
    <glyph glyph-name="space" unicode=" " horiz-adv-x="542" 
 />
    <glyph glyph-name="exclam" unicode="!" horiz-adv-x="301" 
d="M69 1282q0 33 23.5 55.5t54.5 22.5q33 0 55.5 -22.5t22.5 -55.5v-885q0 -32 -23.5 -55t-54.5 -23q-33 0 -55.5 23t-22.5 55v885zM69 137q0 33 23.5 55.5t54.5 22.5q33 0 55.5 -22.5t22.5 -55.5v-59q0 -33 -23.5 -55.5t-54.5 -22.5q-33 0 -55.5 22.5t-22.5 55.5v59z" />
    <glyph glyph-name="quotedbl" unicode="&#x22;" horiz-adv-x="522" 
d="M69 1298q0 33 22.5 55.5t55.5 22.5q31 0 54.5 -22.5t23.5 -55.5v-161q0 -33 -22.5 -55.5t-55.5 -22.5q-31 0 -54.5 22.5t-23.5 55.5v161zM294 1298q0 33 22.5 55.5t55.5 22.5q31 0 54.5 -22.5t23.5 -55.5v-161q0 -33 -22.5 -55.5t-55.5 -22.5q-31 0 -54.5 22.5
t-23.5 55.5v161z" />
    <glyph glyph-name="numbersign" unicode="#" horiz-adv-x="909" 
d="M170 1274q0 33 22.5 55.5t55.5 22.5q30 0 54 -22.5t24 -55.5v-309h254v309q0 33 22.5 55.5t54.5 22.5q31 0 54.5 -22.5t23.5 -55.5v-309h53q33 0 55.5 -22.5t22.5 -55.5q0 -31 -22.5 -54.5t-55.5 -23.5h-53v-254h53q33 0 55.5 -22.5t22.5 -55.5q0 -31 -22.5 -54.5
t-55.5 -23.5h-53v-321q0 -33 -22.5 -55.5t-55.5 -22.5q-30 0 -53.5 22.5t-23.5 55.5v321h-254v-321q0 -33 -22.5 -55.5t-55.5 -22.5q-31 0 -54.5 22.5t-23.5 55.5v321h-47q-33 0 -55.5 22.5t-22.5 55.5q0 31 22.5 54.5t55.5 23.5h47v254h-47q-33 0 -55.5 22.5t-22.5 55.5
q0 31 22.5 54.5t55.5 23.5h47v309zM326 809v-254h254v254h-254z" />
    <glyph glyph-name="dollar" unicode="$" horiz-adv-x="1038" 
d="M436 1450q0 33 22.5 55.5t54.5 22.5q31 0 54.5 -22.5t23.5 -55.5v-98q33 -6 75 -17.5t85 -34t83 -57.5t70 -86q5 -10 10 -22.5t5 -26.5q0 -25 -20.5 -50.5t-55.5 -25.5q-39 0 -59 27q-41 47 -84 84t-109 53v-395q88 -10 165 -40t133 -80t88 -121t32 -161
q0 -92 -32 -162.5t-88 -122t-133 -81t-165 -37.5v-109q0 -32 -22.5 -54.5t-55.5 -22.5q-30 0 -53.5 22.5t-23.5 54.5v111q-41 6 -94.5 21.5t-109 49t-106.5 88t-88 138.5q-8 18 -8 43q0 33 20.5 55.5t51.5 22.5q32 0 53.5 -22.5t36.5 -55.5q28 -70 92.5 -119t151.5 -65v499
q-80 9 -145.5 33.5t-114 67.5t-75 105.5t-26.5 141.5q0 152 97.5 244t263.5 111v94zM591 152q53 8 100.5 26.5t83 48t57 72.5t21.5 100q0 56 -20.5 99t-56 72.5t-83 48t-102.5 24.5v-491zM436 1198q-113 -16 -159 -72.5t-46 -124.5q0 -92 57 -136t148 -56v389z" />
    <glyph glyph-name="percent" unicode="%" horiz-adv-x="1261" 
d="M32 1108q0 51 19.5 97t54.5 80t80 53.5t98 19.5q51 0 98 -19.5t81 -53.5t54.5 -80t20.5 -97v-203q0 -51 -20.5 -97t-54.5 -80t-81 -53.5t-98 -19.5t-97 19.5t-80 53.5t-54.5 80t-20.5 97v203zM138 905q0 -59 43.5 -101t102.5 -42q61 0 104 42t43 101v203q0 59 -44 101
t-103 42q-62 0 -104 -42t-42 -101v-203zM728 444q0 52 19.5 98t54.5 79.5t80 53t98 19.5q51 0 98.5 -19.5t81 -53t54 -79.5t20.5 -98v-202q0 -52 -20.5 -98t-54 -79.5t-81 -53t-98.5 -19.5t-97 19.5t-80 53t-54.5 79.5t-20.5 98v202zM835 242q0 -60 43 -102t102 -42
q62 0 105 42t43 102v202q0 60 -44 102t-104 42q-61 0 -103 -42t-42 -102v-202zM1033 1327q11 14 26 20.5t32 6.5q35 0 57.5 -23.5t22.5 -54.5q0 -12 -3 -25.5t-14 -23.5l-915 -1198q-23 -29 -57 -29q-35 0 -58.5 24.5t-23.5 53.5q0 28 18 51z" />
    <glyph glyph-name="ampersand" unicode="&#x26;" horiz-adv-x="1128" 
d="M532 1196q-49 0 -84.5 -34t-35.5 -83t34.5 -82.5t83.5 -33.5l2 -156h-2q-57 0 -107 21.5t-87 58.5t-58.5 86t-21.5 106q0 58 21.5 107t59.5 86t88 58.5t107 21.5v-156zM530 807q-67 0 -127.5 -26.5t-105.5 -70.5t-71.5 -104.5t-26.5 -128.5q0 -67 25.5 -127.5
t70.5 -104.5t105.5 -71t129.5 -27q68 0 126.5 27t99.5 71t64.5 104.5t23.5 127.5h155q0 -100 -35.5 -188t-98 -154.5t-148.5 -104.5t-187 -38q-100 0 -189 38t-154.5 104.5t-104.5 154.5t-39 188q0 101 39 189t105.5 154.5t154.5 104.5t188 38v-156zM532 1352h95
q32 0 55 -22.5t23 -55.5q0 -31 -23 -54.5t-55 -23.5h-95v156zM844 981q0 33 22.5 55.5t55.5 22.5q30 0 53.5 -22.5t23.5 -55.5v-504h-155v504zM530 963h486q33 0 55.5 -22.5t22.5 -55.5q0 -31 -22.5 -54.5t-55.5 -23.5h-486v156z" />
    <glyph glyph-name="quotesingle" unicode="'" horiz-adv-x="331" 
d="M67 1298q0 29 23.5 53.5t52.5 24.5h82q32 0 55 -23.5t23 -54.5q0 -32 -23 -54.5t-55 -22.5h-2v-84q0 -33 -23.5 -55.5t-54.5 -22.5q-33 0 -55.5 22.5t-22.5 55.5v161z" />
    <glyph glyph-name="parenleft" unicode="(" horiz-adv-x="536" 
d="M61 1061q0 76 29.5 143.5t80 117.5t118 79t143.5 29q32 0 55 -23t23 -55q0 -33 -23 -55.5t-55 -22.5q-43 0 -82 -16.5t-67.5 -44t-46 -64.5t-19.5 -80v-1151q2 -43 19.5 -80t46 -64.5t67.5 -44t82 -16.5q32 0 55 -22.5t23 -55.5q0 -32 -23 -54.5t-55 -22.5
q-76 0 -143.5 28.5t-118 78.5t-80 117.5t-29.5 143.5v1135z" />
    <glyph glyph-name="parenright" unicode=")" horiz-adv-x="538" 
d="M319 1069q-2 43 -19.5 80t-47 64.5t-67.5 44t-81 16.5q-33 0 -55.5 22.5t-22.5 55.5q0 32 22.5 55t55.5 23q76 0 143.5 -29t117.5 -79t80 -117.5t30 -143.5v-1135q0 -76 -30 -143.5t-80 -117.5t-117.5 -78.5t-143.5 -28.5q-33 0 -55.5 22.5t-22.5 54.5q0 33 22.5 55.5
t55.5 22.5q43 0 81 16.5t67.5 44t47 64.5t19.5 80v1151z" />
    <glyph glyph-name="asterisk" unicode="*" horiz-adv-x="792" 
d="M188 782q-11 15 -11 37q0 29 20.5 54.5t55.5 25.5q21 -2 40 -11t30 -28l73 -129l74 127q23 39 68 39q35 0 55.5 -23.5t20.5 -56.5q0 -20 -9 -37l-73 -125h145q33 0 55.5 -22.5t22.5 -54.5q0 -31 -22.5 -54.5t-55.5 -23.5h-147l73 -129q11 -21 11 -39q0 -29 -20.5 -53.5
t-57.5 -24.5q-45 0 -68 39l-74 127l-73 -127q-23 -39 -68 -39q-35 0 -56.5 23.5t-21.5 56.5q0 16 11 37l75 129h-147q-33 0 -55.5 22.5t-22.5 55.5q0 30 22.5 53.5t55.5 23.5h145z" />
    <glyph glyph-name="plus" unicode="+" horiz-adv-x="747" 
d="M295 858q0 33 22.5 55.5t54.5 22.5q31 0 54.5 -22.5t23.5 -55.5v-203h205q33 0 55.5 -22.5t22.5 -54.5q0 -31 -22.5 -54.5t-55.5 -23.5h-205v-205q0 -33 -22.5 -55.5t-55.5 -22.5q-30 0 -53.5 22.5t-23.5 55.5v205h-203q-33 0 -55.5 22.5t-22.5 55.5q0 30 22.5 53.5
t55.5 23.5h203v203z" />
    <glyph glyph-name="comma" unicode="," horiz-adv-x="290" 
d="M65 78q0 33 22.5 55.5t55.5 22.5q31 0 54.5 -22.5t23.5 -55.5v-168q0 -33 -22.5 -55.5t-55.5 -22.5q-31 0 -54.5 22.5t-23.5 55.5v168z" />
    <glyph glyph-name="hyphen" unicode="-" 
d="M147 500q-33 0 -55.5 22.5t-22.5 55.5q0 30 22.5 53.5t55.5 23.5h563q33 0 55.5 -22.5t22.5 -54.5q0 -31 -22.5 -54.5t-55.5 -23.5h-563z" />
    <glyph glyph-name="hyphen" unicode="&#x2010;" 
d="M147 500q-33 0 -55.5 22.5t-22.5 55.5q0 30 22.5 53.5t55.5 23.5h563q33 0 55.5 -22.5t22.5 -54.5q0 -31 -22.5 -54.5t-55.5 -23.5h-563z" />
    <glyph glyph-name="period" unicode="." horiz-adv-x="262" 
d="M53 78q0 33 22.5 55.5t55.5 22.5q31 0 54.5 -22.5t23.5 -55.5t-22.5 -55.5t-55.5 -22.5q-31 0 -54.5 22.5t-23.5 55.5z" />
    <glyph glyph-name="slash" unicode="/" horiz-adv-x="1083" 
d="M940 1327q10 14 25.5 20.5t31.5 6.5q35 0 57.5 -23.5t22.5 -54.5q0 -12 -3 -25.5t-13 -23.5l-916 -1198q-22 -29 -57 -29t-58.5 24.5t-23.5 53.5q0 28 18 51z" />
    <glyph glyph-name="zero" unicode="0" horiz-adv-x="946" 
d="M61 989q0 84 33 158t88 129t130 87t159 32q86 0 160.5 -32t130 -87t88 -129t32.5 -158v-624q0 -84 -32.5 -158t-88 -129t-130 -88t-160.5 -33q-84 0 -159 33t-130 88t-88 129t-33 158v624zM727 989q0 51 -20.5 98.5t-55.5 81t-81 54t-99 20.5q-54 0 -100 -20.5t-80.5 -54
t-54 -81t-19.5 -98.5v-624q0 -54 20.5 -99t54 -79.5t79.5 -54t100 -19.5q53 0 100 19.5t82 54t54.5 79.5t19.5 99v624z" />
    <glyph glyph-name="one" unicode="1" horiz-adv-x="444" 
d="M246 1337q20 15 45 15q30 0 53.5 -22.5t23.5 -55.5v-1196q0 -33 -22.5 -55.5t-54.5 -22.5q-31 0 -54.5 22.5t-23.5 55.5v1059l-88 -52q-23 -12 -41 -12q-29 0 -53.5 21.5t-24.5 56.5q0 20 9 39.5t30 30.5z" />
    <glyph glyph-name="two" unicode="2" horiz-adv-x="940" 
d="M721 989q0 51 -19.5 97.5t-54.5 81t-82 54t-100 19.5q-52 0 -98 -19.5t-80.5 -53t-55 -77.5t-20.5 -96q0 -32 -22.5 -54.5t-55.5 -22.5t-55.5 22.5t-22.5 54.5q0 82 33 155t89 128t131 87t157 32q86 0 160.5 -33t130 -88t88 -129t32.5 -158v-2q0 -74 -24.5 -139.5
t-69.5 -118.5h2l-477 -573h512q33 0 55.5 -22.5t22.5 -55.5t-22.5 -55.5t-55.5 -22.5h-686q-33 0 -55.5 22.5t-22.5 55.5q0 28 18 51l590 700q25 25 41.5 71t16.5 87v2z" />
    <glyph glyph-name="three" unicode="3" horiz-adv-x="913" 
d="M98 1044q0 72 28 135.5t76 111.5t112.5 76t138.5 28q73 0 137.5 -28t114 -76t77 -111.5t27.5 -135.5v-2q0 -41 -9 -84t-25.5 -83.5t-40 -76.5t-52.5 -61q41 -26 75 -68t57.5 -91.5t36.5 -104.5t13 -106v-2q0 -84 -32.5 -158t-88 -129t-130 -88t-160.5 -33q-84 0 -159 33
t-130 88t-88 129t-33 158q0 32 22.5 54.5t55.5 22.5t55.5 -22.5t22.5 -54.5q0 -54 20.5 -99t54 -79.5t79.5 -54t100 -19.5q53 0 100 19.5t82 54t54.5 79.5t19.5 99v2q0 51 -19.5 102t-53.5 92t-80 66.5t-97 27.5h-6q-31 0 -53.5 22.5t-22.5 53.5t22.5 53.5t53.5 22.5h8
q39 2 73.5 23.5t61.5 54.5t41 72.5t14 80.5t-15 77t-43 63.5t-63.5 43t-76.5 15.5t-78 -15.5t-63.5 -43t-42 -63.5t-15.5 -75q0 -32 -22.5 -54.5t-55.5 -22.5t-55.5 22.5t-22.5 54.5v4z" />
    <glyph glyph-name="four" unicode="4" horiz-adv-x="874" 
d="M584 1315q10 16 28.5 25.5t36.5 9.5q33 0 56.5 -23.5t23.5 -52.5v-914h20q33 0 55.5 -22.5t22.5 -54.5q0 -33 -22.5 -55.5t-55.5 -22.5h-20v-127q0 -33 -22.5 -55.5t-55.5 -22.5t-55.5 22.5t-22.5 55.5v127h-489q-31 0 -54.5 24.5t-23.5 53.5q0 20 12 43zM573 979
l-354 -619h354v619z" />
    <glyph glyph-name="five" unicode="5" horiz-adv-x="921" 
d="M108 1274q0 33 22.5 55.5t55.5 22.5h555q33 0 55.5 -22.5t22.5 -55.5t-22.5 -55.5t-55.5 -22.5h-477v-293q45 25 95 39t104 14q86 0 160.5 -32.5t130 -88t88 -129t32.5 -157.5v-184q0 -84 -32.5 -158t-88 -129t-130 -88t-160.5 -33q-84 0 -159 33t-130 88t-88 129
t-33 158q0 32 22.5 54.5t55.5 22.5t55.5 -22.5t22.5 -54.5v-7q0 -51 20.5 -96t55 -77.5t80.5 -52t98 -19.5q53 0 100 19.5t82 54t54.5 79.5t19.5 99v184q0 51 -19.5 97t-54.5 81t-82 54.5t-100 19.5q-64 0 -117 -28t-90 -75q-13 -14 -30 -28.5t-46 -14.5q-33 0 -52.5 21.5
t-19.5 54.5v543z" />
    <glyph glyph-name="six" unicode="6" horiz-adv-x="933" 
d="M61 952q0 84 33 158t88 129t130 88t161 33q41 0 96 -13.5t104.5 -38t83 -57t33.5 -71.5q0 -33 -22.5 -55.5t-55.5 -22.5q-43 0 -65 33q-35 32 -80 50.5t-94 18.5q-54 0 -101 -19.5t-81.5 -54t-54 -80.5t-19.5 -98v-88q53 41 117.5 64.5t136.5 23.5q86 0 160.5 -31.5
t130 -87t88 -129t32.5 -157.5v-182q0 -84 -32.5 -158t-88 -129t-130 -88t-160.5 -33q-84 0 -159 33t-130 88t-88 129t-33 158v587zM217 365q0 -54 20.5 -99t54 -79.5t79.5 -54t100 -19.5q53 0 100 19.5t82 54t54.5 79.5t19.5 99v182q0 51 -20.5 98t-55.5 81t-81 54.5
t-99 20.5q-54 0 -99 -19.5t-78.5 -52.5t-54 -78t-22.5 -94v-192z" />
    <glyph glyph-name="seven" unicode="7" horiz-adv-x="897" 
d="M133 1352h670q32 0 60 -21.5t28 -56.5q0 -23 -13 -43l-684 -1196q-10 -19 -28.5 -27t-36.5 -10q-33 0 -56.5 23.5t-23.5 54.5q0 20 12 43l617 1077h-551q-33 0 -55.5 22.5t-22.5 55.5t22.5 55.5t55.5 22.5h6z" />
    <glyph glyph-name="eight" unicode="8" horiz-adv-x="919" 
d="M104 1010q0 71 28 134.5t76 112t112.5 76t138.5 27.5q73 0 137.5 -27.5t114 -76t77 -112t27.5 -134.5v-2q0 -80 -34 -151t-93 -120q84 -53 133 -142t49 -194v-2q0 -84 -32.5 -157.5t-88 -129t-130 -88t-160.5 -32.5q-84 0 -159 32.5t-130 88t-88 129t-33 157.5v2
q0 105 49 194t133 142q-59 49 -93 120t-34 151v2zM459 655q-54 0 -100 -20.5t-80.5 -54t-54 -80.5t-19.5 -99v-2q0 -53 20.5 -98t54 -80t79.5 -54.5t100 -19.5q53 0 100 19.5t82 54.5t54.5 80t19.5 98v2q0 52 -19.5 97t-53.5 78.5t-78 55t-95 23.5h-10zM459 1202
q-41 0 -78 -15.5t-63.5 -43t-42 -63.5t-15.5 -76q0 -41 15.5 -77t43 -62.5t63.5 -42t77 -15.5q84 0 141 57.5t57 139.5q0 40 -15 76t-43 63.5t-63.5 43t-76.5 15.5z" />
    <glyph glyph-name="nine" unicode="9" horiz-adv-x="931" 
d="M49 952q0 84 33 158t88 129t130 88t161 33q84 0 158.5 -33t130 -88t88 -129t32.5 -158v-553q0 -84 -32.5 -157.5t-88 -129t-130 -88t-160.5 -32.5q-41 0 -96.5 13t-104.5 38t-83 57.5t-34 71.5q0 33 22.5 55.5t55.5 22.5q43 0 66 -33q34 -33 79 -51.5t95 -18.5
q53 0 100 19.5t82 54.5t54.5 80t19.5 98v88q-54 -41 -118.5 -64.5t-135.5 -23.5q-86 0 -161 32t-130 87t-88 129t-33 158v147zM205 805q0 -53 20.5 -99.5t55 -80t80.5 -54t100 -20.5q51 0 97 19.5t80 52t54.5 77.5t22.5 95v157q0 52 -20.5 98t-54.5 80.5t-81 54t-98 19.5
q-54 0 -101 -19.5t-81.5 -54t-54 -80.5t-19.5 -98v-147z" />
    <glyph glyph-name="colon" unicode=":" horiz-adv-x="249" 
d="M47 938q0 33 22.5 55.5t55.5 22.5q31 0 54.5 -22.5t23.5 -55.5t-22.5 -55.5t-55.5 -22.5q-31 0 -54.5 22.5t-23.5 55.5zM47 78q0 33 22.5 55.5t55.5 22.5q31 0 54.5 -22.5t23.5 -55.5t-22.5 -55.5t-55.5 -22.5q-31 0 -54.5 22.5t-23.5 55.5z" />
    <glyph glyph-name="semicolon" unicode=";" horiz-adv-x="253" 
d="M47 78q0 33 22.5 55.5t55.5 22.5q31 0 54.5 -22.5t23.5 -55.5v-168q0 -33 -22.5 -55.5t-55.5 -22.5q-31 0 -54.5 22.5t-23.5 55.5v168zM47 938q0 33 22.5 55.5t55.5 22.5q31 0 54.5 -22.5t23.5 -55.5t-22.5 -55.5t-55.5 -22.5q-31 0 -54.5 22.5t-23.5 55.5z" />
    <glyph glyph-name="less" unicode="&#x3c;" horiz-adv-x="522" 
d="M317 926q10 14 25.5 20t31.5 6q35 0 57.5 -23.5t22.5 -54.5q0 -12 -3 -25t-13 -24l-250 -325l250 -324q16 -18 16 -51q0 -29 -22.5 -53.5t-57.5 -24.5q-34 0 -57 29l-289 377q-16 22 -16 45q0 28 18 53z" />
    <glyph glyph-name="equal" unicode="=" 
d="M147 344q-33 0 -55.5 22.5t-22.5 55.5q0 31 22.5 54.5t55.5 23.5h563q33 0 55.5 -22.5t22.5 -55.5q0 -31 -22.5 -54.5t-55.5 -23.5h-563zM147 657q-33 0 -55.5 22.5t-22.5 55.5q0 31 22.5 54.5t55.5 23.5h563q33 0 55.5 -22.5t22.5 -55.5q0 -30 -22.5 -54t-55.5 -24h-563
z" />
    <glyph glyph-name="greater" unicode="&#x3e;" horiz-adv-x="522" 
d="M85 825q-18 21 -18 49q0 31 23.5 54.5t58.5 23.5q16 0 31.5 -6t25.5 -20l289 -377q16 -23 16 -47q0 -27 -18 -51l-287 -375q-22 -29 -57 -29t-58.5 24.5t-23.5 53.5t18 51l250 326z" />
    <glyph glyph-name="question" unicode="?" horiz-adv-x="997" 
d="M350 465q0 33 23.5 55.5t54.5 22.5q6 0 12 -1t12 -1q80 0 145.5 28.5t113.5 75.5t75 106.5t27 120.5v2q0 68 -26 128.5t-71 104.5t-106.5 70.5t-130.5 26.5q-107 0 -189 -60.5t-121 -152.5q-10 -22 -29.5 -33.5t-41.5 -11.5q-35 0 -55.5 24.5t-20.5 53.5q0 16 6 33
q27 67 73 122.5t104.5 95.5t128 62.5t145.5 22.5q100 0 190 -38t155.5 -104.5t104.5 -154.5t39 -189v-2q0 -86 -33.5 -171t-94 -152.5t-145.5 -109.5t-190 -42v-2q0 -33 -23.5 -55.5t-53.5 -22.5q-33 0 -55.5 22.5t-22.5 55.5v70zM350 137q0 33 23.5 55.5t54.5 22.5
q32 0 54.5 -22.5t22.5 -55.5v-59q0 -33 -23.5 -55.5t-53.5 -22.5q-33 0 -55.5 22.5t-22.5 55.5v59z" />
    <glyph glyph-name="at" unicode="@" horiz-adv-x="1079" 
d="M53 592q0 100 39 188t104.5 154.5t154.5 104.5t191 38q101 0 189 -38t154.5 -104.5t105.5 -154.5t39 -188v-176q0 -31 -11.5 -71t-36 -76t-64.5 -59.5t-97 -23.5h-281q-47 0 -89 18.5t-73.5 50.5t-50 75t-18.5 90v168q0 47 18.5 90t50 74.5t74.5 50t90 18.5
q48 0 91 -18.5t74.5 -50t50 -74.5t18.5 -90v-168q0 -21 -4 -40.5t-10 -37.5h59q35 0 44 26.5t9 47.5v176q0 67 -26.5 127.5t-71.5 104.5t-105.5 71t-128.5 27q-69 0 -130.5 -27t-106.5 -71t-70.5 -104.5t-25.5 -127.5v-176q0 -68 26.5 -128.5t71.5 -104.5t106.5 -70.5
t128.5 -26.5h357q-68 -72 -160 -114t-197 -42q-100 0 -189 38t-155.5 104.5t-105.5 154.5t-39 189v176zM620 588q0 33 -22.5 55.5t-55.5 22.5q-32 0 -54.5 -22.5t-22.5 -55.5v-168q0 -33 21.5 -55.5t53.5 -22.5h2q33 0 55.5 22.5t22.5 55.5v168z" />
    <glyph glyph-name="A" unicode="A" horiz-adv-x="1247" 
d="M552 1313q21 47 72 47q14 0 31 -6q28 -13 41 -41l516 -1207q6 -16 6 -32q0 -27 -20.5 -51.5t-55.5 -24.5q-51 0 -72 47l-145 340h-602l-146 -340q-10 -22 -29.5 -34.5t-41.5 -12.5q-35 0 -55.5 24.5t-20.5 51.5q0 16 6 32zM624 1087l-236 -546h469z" />
    <glyph glyph-name="B" unicode="B" horiz-adv-x="1091" 
d="M73 1274q0 33 22.5 55.5t55.5 22.5h409q58 0 108 -21.5t88 -58.5t59.5 -86t21.5 -107q0 -47 -15.5 -90t-41.5 -78q120 -59 195 -172.5t75 -257.5q0 -100 -39 -187t-104.5 -152.5t-154.5 -103.5t-190 -38h-411q-31 0 -54.5 22.5t-23.5 55.5v1196zM229 807v-651h333
q70 0 130.5 25.5t105.5 69.5t70.5 103.5t25.5 126.5q0 66 -25.5 124.5t-70.5 102.5t-105.5 70.5t-130.5 28.5h-333zM229 1196v-233h333q50 0 84.5 33.5t34.5 82.5t-35.5 83t-85.5 34h-331z" />
    <glyph glyph-name="C" unicode="C" horiz-adv-x="1048" 
d="M57 911q0 101 39 189t104.5 154.5t154.5 104.5t191 38q74 0 142.5 -21.5t127 -61.5t103.5 -94.5t74 -119.5q6 -6 8 -17.5t2 -21.5q0 -29 -20.5 -53.5t-57.5 -24.5q-47 0 -69 45q-37 92 -121 152.5t-189 60.5q-69 0 -130.5 -26.5t-106.5 -70.5t-70.5 -104.5t-25.5 -128.5
v-469q0 -67 26.5 -127.5t71.5 -104.5t106.5 -70.5t128.5 -26.5q111 0 193 60t119 155q8 22 27.5 32.5t39.5 10.5q35 0 56.5 -24.5t21.5 -53.5q0 -17 -6 -31q-27 -67 -72 -122.5t-103 -96.5t-129 -63.5t-147 -22.5q-100 0 -189 38t-155.5 104.5t-105.5 154.5t-39 188v469z
" />
    <glyph glyph-name="D" unicode="D" horiz-adv-x="1107" 
d="M73 1274q0 33 22.5 55.5t55.5 22.5h409q101 0 191 -38t155.5 -103.5t104.5 -152.5t39 -188v-389q0 -100 -39 -187t-104.5 -152.5t-154.5 -103.5t-190 -38h-411q-31 0 -54.5 22.5t-23.5 55.5v1196zM229 1196v-1040h333q70 0 130.5 25.5t105.5 69.5t70.5 103.5t25.5 126.5
v389q0 68 -25.5 127.5t-70.5 103.5t-106.5 69.5t-131.5 25.5h-331z" />
    <glyph glyph-name="E" unicode="E" horiz-adv-x="1081" 
d="M73 1274q0 33 22.5 55.5t55.5 22.5h821q33 0 55.5 -22.5t22.5 -55.5q0 -31 -22.5 -54.5t-55.5 -23.5h-743v-463h241q33 0 55.5 -22.5t22.5 -55.5q0 -30 -22.5 -53.5t-55.5 -23.5h-241v-422h743q33 0 55.5 -22.5t22.5 -55.5q0 -31 -22.5 -54.5t-55.5 -23.5h-815h-6
q-31 0 -54.5 22.5t-23.5 55.5v1196z" />
    <glyph glyph-name="F" unicode="F" horiz-adv-x="1050" 
d="M73 1274q0 31 21.5 53.5t52.5 24.5h10h815q33 0 55.5 -22.5t22.5 -55.5q0 -31 -22.5 -54.5t-55.5 -23.5h-743v-463h241q33 0 55.5 -22.5t22.5 -55.5q0 -30 -22.5 -53.5t-55.5 -23.5h-241v-500q0 -33 -22.5 -55.5t-55.5 -22.5q-31 0 -54.5 22.5t-23.5 55.5v1196z" />
    <glyph glyph-name="G" unicode="G" horiz-adv-x="1085" 
d="M59 909q0 101 39 189t104.5 154.5t154.5 104.5t191 38q76 0 146 -22.5t128 -62.5t104 -95.5t73 -122.5q6 -17 6 -33q0 -29 -20.5 -53.5t-57.5 -24.5q-20 0 -39.5 11.5t-29.5 33.5q-39 92 -122 152.5t-188 60.5q-69 0 -130.5 -26.5t-106.5 -70.5t-70.5 -104.5
t-25.5 -128.5v-467q0 -67 26.5 -127.5t71.5 -104.5t106.5 -70.5t128.5 -26.5q70 0 130.5 26.5t105.5 70.5t70.5 104.5t25.5 127.5v101h-157q-33 0 -55.5 22.5t-22.5 55.5q0 30 22.5 53.5t55.5 23.5h235q33 0 55.5 -22.5t22.5 -54.5v-179q0 -100 -39 -188t-104.5 -154.5
t-154.5 -104.5t-190 -38q-100 0 -189 38t-155.5 104.5t-105.5 154.5t-39 188v467z" />
    <glyph glyph-name="H" unicode="H" horiz-adv-x="1126" 
d="M73 1274q0 33 23.5 55.5t54.5 22.5q33 0 55.5 -22.5t22.5 -55.5v-541h665v541q0 33 23.5 55.5t54.5 22.5q33 0 55.5 -22.5t22.5 -55.5v-1196q0 -33 -23.5 -55.5t-54.5 -22.5q-33 0 -55.5 22.5t-22.5 55.5v500h-665v-500q0 -33 -23.5 -55.5t-54.5 -22.5q-33 0 -55.5 22.5
t-22.5 55.5v1196z" />
    <glyph glyph-name="I" unicode="I" horiz-adv-x="309" 
d="M73 1274q0 33 22.5 55.5t55.5 22.5q31 0 54.5 -22.5t23.5 -55.5v-1196q0 -33 -22.5 -55.5t-55.5 -22.5q-31 0 -54.5 22.5t-23.5 55.5v1196z" />
    <glyph glyph-name="J" unicode="J" horiz-adv-x="520" 
d="M299 1274q0 33 23.5 55.5t54.5 22.5q32 0 55 -22.5t23 -55.5v-914q0 -75 -30 -142.5t-80 -118t-117.5 -79t-143.5 -28.5q-33 0 -55.5 22.5t-22.5 55.5q0 32 22.5 54.5t55.5 22.5q43 0 81 16.5t67.5 44.5t47 64.5t19.5 79.5v922z" />
    <glyph glyph-name="K" unicode="K" horiz-adv-x="1093" 
d="M73 1274q0 33 22.5 55.5t55.5 22.5q31 0 54.5 -22.5t23.5 -55.5v-336l491 395q21 19 49 19q29 0 52.5 -21.5t23.5 -56.5q0 -37 -27 -62l-419 -338l630 -747q21 -21 21 -51q0 -29 -22.5 -52.5t-55.5 -23.5q-37 0 -61 27l-633 751l-49 -39v-661q0 -33 -22.5 -55.5
t-55.5 -22.5q-31 0 -54.5 22.5t-23.5 55.5v1196z" />
    <glyph glyph-name="L" unicode="L" horiz-adv-x="1050" 
d="M73 1274q0 33 22.5 55.5t55.5 22.5q31 0 54.5 -22.5t23.5 -55.5v-1118h743q33 0 55.5 -22.5t22.5 -55.5q0 -31 -22.5 -54.5t-55.5 -23.5h-821q-31 0 -54.5 22.5t-23.5 55.5v1196z" />
    <glyph glyph-name="M" unicode="M" horiz-adv-x="1794" 
d="M69 874q0 101 35 189t97.5 153.5t147.5 104.5t185 39q123 0 213 -48t149 -128q66 78 153 127t208 49q100 0 186 -39t148.5 -104.5t97.5 -153.5t35 -189v-796q0 -33 -23.5 -55.5t-54.5 -22.5q-33 0 -55.5 22.5t-22.5 55.5v796q0 68 -22.5 128.5t-63.5 104.5t-98.5 70.5
t-126.5 26.5q-68 0 -121 -26.5t-89 -70.5t-54.5 -104.5t-18.5 -128.5v-796q0 -33 -22.5 -55.5t-55.5 -22.5q-32 0 -54.5 22.5t-22.5 55.5v799q0 67 -19.5 126.5t-55.5 103.5t-89.5 70.5t-120.5 26.5q-68 0 -125 -26.5t-98 -70.5t-63.5 -104.5t-22.5 -128.5v-796
q0 -33 -23.5 -55.5t-54.5 -22.5q-33 0 -55.5 22.5t-22.5 55.5v796z" />
    <glyph glyph-name="N" unicode="N" horiz-adv-x="1107" 
d="M65 874q0 101 39 189t104.5 153.5t154.5 104.5t189 39q101 0 190 -39t155.5 -104.5t105.5 -153.5t39 -189v-796q0 -33 -22.5 -55.5t-55.5 -22.5q-31 0 -54.5 22.5t-23.5 55.5v796q0 68 -26.5 128.5t-71.5 104.5t-106.5 70.5t-129.5 26.5q-69 0 -129.5 -26.5t-105.5 -70.5
t-70.5 -104.5t-25.5 -128.5v-796q0 -33 -22.5 -55.5t-55.5 -22.5q-31 0 -54.5 22.5t-23.5 55.5v796z" />
    <glyph glyph-name="O" unicode="O" horiz-adv-x="1095" 
d="M59 909q0 101 39 189t104.5 154.5t154.5 104.5t191 38q101 0 189 -38t154.5 -104.5t105.5 -154.5t39 -189v-467q0 -100 -39 -188t-104.5 -154.5t-154.5 -104.5t-190 -38q-100 0 -189 38t-155.5 104.5t-105.5 154.5t-39 188v467zM215 442q0 -67 26.5 -127.5t71.5 -104.5
t106.5 -70.5t128.5 -26.5q70 0 130.5 26.5t105.5 70.5t70.5 104.5t25.5 127.5v467q0 68 -26.5 128.5t-71.5 104.5t-105.5 70.5t-128.5 26.5q-69 0 -130.5 -26.5t-106.5 -70.5t-70.5 -104.5t-25.5 -128.5v-467z" />
    <glyph glyph-name="P" unicode="P" horiz-adv-x="1067" 
d="M73 1274q0 33 22.5 55.5t55.5 22.5h409h2q101 0 189 -38t154.5 -102.5t105.5 -152.5t39 -189q0 -100 -39 -187t-104.5 -152.5t-154.5 -103.5t-190 -38h-333v-311q0 -33 -22.5 -55.5t-55.5 -22.5q-31 0 -54.5 22.5t-23.5 55.5v1196zM229 1196v-651h333q70 0 130.5 25.5
t105.5 69.5t70.5 103.5t25.5 126.5q0 68 -26.5 127.5t-71.5 103.5t-105.5 69.5t-128.5 25.5h-333z" />
    <glyph glyph-name="Q" unicode="Q" horiz-adv-x="1075" 
d="M49 911q0 101 39 189t104.5 154.5t154.5 104.5t191 38q101 0 189 -38t154.5 -104.5t105.5 -154.5t39 -189v-475q0 -90 -32 -171t-87 -144.5t-130 -106.5t-161 -57v-137q0 -33 -22.5 -55.5t-55.5 -22.5q-30 0 -53.5 22.5t-23.5 55.5v137q-86 14 -162 57t-131.5 106.5
t-87 144.5t-31.5 171v475zM205 436q0 -67 26.5 -127.5t71.5 -104.5t106.5 -71t128.5 -27q70 0 130.5 27t105.5 71t70.5 104.5t25.5 127.5v475q0 68 -26.5 128.5t-71.5 104.5t-105.5 70.5t-128.5 26.5q-69 0 -130.5 -26.5t-106.5 -70.5t-70.5 -104.5t-25.5 -128.5v-475z" />
    <glyph glyph-name="R" unicode="R" horiz-adv-x="1122" 
d="M73 1274q0 33 23.5 55.5t54.5 22.5h411q101 0 190 -38t154.5 -103.5t104.5 -152.5t39 -188q0 -143 -75 -256.5t-195 -173.5l268 -311q18 -23 18 -51q0 -33 -22.5 -56.5t-55.5 -23.5q-32 0 -59 27l-278 321q-17 19 -39.5 31t-46.5 12h-336v-311q0 -33 -23.5 -55.5
t-54.5 -22.5q-33 0 -55.5 22.5t-22.5 55.5v1196zM229 1196v-651h333q68 0 128.5 25.5t105.5 69.5t71.5 103.5t26.5 126.5q0 68 -25.5 127.5t-70.5 103.5t-105.5 69.5t-130.5 25.5h-333z" />
    <glyph glyph-name="S" unicode="S" horiz-adv-x="1073" 
d="M209 303q37 -82 122 -136t201 -54q64 0 125.5 14t108.5 45t75.5 79t28.5 114q0 65 -27.5 118.5t-74.5 90t-107.5 56t-128.5 19.5q-94 0 -175 26.5t-139 77t-92 122t-34 161.5q0 170 120 264.5t320 94.5q4 0 48.5 -3t105.5 -22.5t125.5 -60.5t109.5 -117q5 -10 10 -22.5
t5 -26.5q0 -25 -20.5 -50.5t-55.5 -25.5q-39 0 -59 27l-52.5 57t-56.5 46.5t-69.5 30.5t-92.5 11q-77 0 -131.5 -17.5t-88.5 -45t-48 -64.5t-14 -76q0 -55 22.5 -98t60.5 -72.5t90 -45t111 -15.5q101 0 191 -31t157.5 -88t106.5 -139t39 -182q0 -103 -40 -179.5t-108.5 -128
t-159.5 -76t-194 -24.5q-20 0 -77.5 6t-129 36t-143.5 91.5t-119 169.5q-8 19 -8 43q0 33 20.5 55.5t51.5 22.5q30 0 54 -21.5t36 -56.5z" />
    <glyph glyph-name="T" unicode="T" horiz-adv-x="1015" 
d="M98 1196q-33 0 -55.5 22.5t-22.5 55.5q0 31 22.5 54.5t55.5 23.5h821q33 0 55.5 -22.5t22.5 -55.5q0 -31 -22.5 -54.5t-55.5 -23.5h-334v-1118q0 -33 -22.5 -55.5t-55.5 -22.5q-30 0 -53.5 22.5t-23.5 55.5v1118h-332z" />
    <glyph glyph-name="U" unicode="U" horiz-adv-x="1107" 
d="M65 1274q0 33 22.5 55.5t55.5 22.5q31 0 54.5 -22.5t23.5 -55.5v-832q0 -67 26.5 -127.5t71.5 -104.5t106.5 -70.5t128.5 -26.5q70 0 130.5 26.5t105.5 70.5t70.5 104.5t25.5 127.5v832q0 33 22.5 55.5t55.5 22.5q31 0 54.5 -22.5t23.5 -55.5v-832q0 -100 -39 -188
t-104.5 -154.5t-154.5 -104.5t-190 -38q-100 0 -189 38t-155.5 104.5t-105.5 154.5t-39 188v832z" />
    <glyph glyph-name="V" unicode="V" horiz-adv-x="1245" 
d="M34 1245q-6 15 -6 31q0 29 20.5 53.5t55.5 24.5q22 0 41.5 -12.5t29.5 -34.5l447 -1043l446 1043q21 47 72 47q35 0 55.5 -24.5t20.5 -53.5q0 -16 -6 -31l-516 -1206q-13 -29 -41 -41q-17 -6 -31 -6q-51 0 -72 47z" />
    <glyph glyph-name="W" unicode="W" horiz-adv-x="1794" 
d="M69 1274q0 33 23.5 55.5t54.5 22.5q33 0 55.5 -22.5t22.5 -55.5v-832q0 -67 22.5 -127.5t63.5 -104.5t98 -70.5t127 -26.5q68 0 121 26.5t89 70.5t54.5 104.5t18.5 127.5v832q0 33 22.5 55.5t54.5 22.5q33 0 55.5 -22.5t22.5 -55.5v-834q0 -67 19.5 -126.5t55.5 -103.5
t89 -70.5t121 -26.5q67 0 124.5 26.5t98.5 70.5t63.5 104.5t22.5 127.5v832q0 33 23.5 55.5t54.5 22.5q33 0 55.5 -22.5t22.5 -55.5v-832q0 -100 -35 -188t-97.5 -154.5t-147.5 -104.5t-185 -38q-123 0 -213 48t-150 128q-65 -78 -152 -127t-208 -49q-100 0 -186 38
t-148.5 104.5t-97.5 154.5t-35 188v832z" />
    <glyph glyph-name="X" unicode="X" horiz-adv-x="1206" 
d="M85 1227q-18 20 -18 49q0 31 23.5 54.5t58.5 23.5q16 0 31.5 -6.5t25.5 -20.5l398 -520l397 520q10 14 25.5 20.5t31.5 6.5q35 0 57.5 -23.5t22.5 -54.5q0 -12 -3 -25.5t-13 -23.5l-420 -549l420 -549q16 -18 16 -51q0 -29 -22.5 -53.5t-57.5 -24.5t-57 29l-397 520
l-398 -520q-22 -29 -57 -29t-58.5 24.5t-23.5 53.5q0 28 18 51l420 549z" />
    <glyph glyph-name="Y" unicode="Y" horiz-adv-x="1058" 
d="M40 1274q0 33 22.5 55.5t55.5 22.5q31 0 54.5 -22.5t23.5 -55.5v-400q0 -67 26.5 -127.5t71.5 -104.5t106.5 -70.5t128.5 -26.5q70 0 130.5 26.5t105.5 70.5t70.5 104.5t25.5 127.5v400q0 33 22.5 55.5t55.5 22.5q31 0 54.5 -22.5t23.5 -55.5v-400q0 -90 -32 -170.5
t-87 -144t-130 -106.5t-161 -58v-317q0 -33 -22.5 -55.5t-55.5 -22.5q-30 0 -53.5 22.5t-23.5 55.5v317q-86 15 -162 58t-131.5 106.5t-87 144t-31.5 170.5v400z" />
    <glyph glyph-name="Z" unicode="Z" horiz-adv-x="1112" 
d="M149 1196q-32 0 -54.5 22.5t-22.5 55.5q0 31 22.5 54.5t54.5 23.5h801q41 0 71 -18.5t30 -55.5q0 -25 -13 -45l-760 -1077h709q33 0 55.5 -22.5t22.5 -55.5q0 -31 -22.5 -54.5t-55.5 -23.5h-846q-43 0 -68.5 21.5t-25.5 54.5q0 24 14 45l758 1075h-670z" />
    <glyph glyph-name="bracketleft" unicode="[" horiz-adv-x="540" 
d="M73 1352q0 32 23.5 55t54.5 23h293q32 0 55 -24t23 -54q0 -33 -23 -55.5t-55 -22.5h-215v-1561h215q32 0 55 -22.5t23 -55.5q0 -30 -23 -53.5t-55 -23.5h-293q-31 0 -54.5 22.5t-23.5 54.5v1717z" />
    <glyph glyph-name="backslash" unicode="\" horiz-adv-x="1083" 
d="M24 1227q-18 20 -18 49q0 31 23.5 54.5t58.5 23.5q16 0 31.5 -6.5t25.5 -20.5l916 -1198q16 -18 16 -51q0 -29 -22.5 -53.5t-57.5 -24.5t-57 29z" />
    <glyph glyph-name="bracketright" unicode="]" horiz-adv-x="540" 
d="M94 1274q-33 0 -55.5 22.5t-22.5 55.5q0 30 22.5 54t55.5 24h293q30 0 54 -23t24 -55v-1717q0 -32 -24 -54.5t-54 -22.5h-293q-33 0 -55.5 23.5t-22.5 53.5q0 33 22.5 55.5t55.5 22.5h215v1561h-215z" />
    <glyph glyph-name="asciicircum" unicode="^" horiz-adv-x="978" 
d="M442 1335q22 17 45 17q28 0 53 -19l375 -286q14 -11 20 -26t6 -32q0 -35 -23.5 -58.5t-54.5 -23.5q-28 0 -49 19l-325 250l-324 -250q-23 -19 -51 -19q-29 0 -53.5 23.5t-24.5 58.5t29 58z" />
    <glyph glyph-name="underscore" unicode="_" horiz-adv-x="1116" 
d="M147 -164q-33 0 -55.5 23.5t-22.5 54.5q0 33 22.5 55.5t55.5 22.5h821q33 0 55.5 -23.5t22.5 -54.5q0 -33 -22.5 -55.5t-55.5 -22.5h-821z" />
    <glyph glyph-name="grave" unicode="`" horiz-adv-x="309" 
d="M44 1243q-12 19 -12 41q0 31 22.5 53.5t57.5 22.5q43 0 65 -37l84 -145q11 -19 11 -41q0 -31 -21.5 -53.5t-56.5 -22.5q-45 0 -66 37z" />
    <glyph glyph-name="a" unicode="a" horiz-adv-x="864" 
d="M57 655q0 76 28.5 143.5t80 118t118 79t144.5 28.5q75 0 143 -28.5t118 -79t79.5 -118t29.5 -143.5v-577q0 -33 -23.5 -55.5t-53.5 -22.5q-29 0 -50.5 17.5t-25.5 43.5q-94 -69 -217 -69q-76 0 -143.5 28.5t-118 79t-80 118t-29.5 142.5v295zM213 360q0 -43 17 -81.5
t46 -68.5t69 -46.5t83 -16.5t82 15.5t67.5 43t46 64.5t19.5 80v305q0 43 -17.5 82t-46 69t-68.5 46t-83 16q-45 0 -84 -16t-69 -46t-46 -69t-16 -82v-295z" />
    <glyph glyph-name="b" unicode="b" horiz-adv-x="833" 
d="M67 1298q0 33 22.5 55.5t55.5 22.5q31 0 54.5 -22.5t23.5 -55.5v-344q45 33 100 51.5t115 18.5q75 0 143 -28.5t119 -79t79.5 -118t28.5 -143.5v-295q0 -75 -29.5 -142.5t-79.5 -118t-118 -79t-143 -28.5q-78 0 -144.5 28.5t-118 79t-80 118t-28.5 142.5v938zM223 360
q0 -43 16 -81.5t46 -68.5t69 -46.5t84 -16.5q43 0 83 16.5t68.5 46.5t46 68.5t17.5 81.5v295q0 43 -16.5 82t-46 69t-68.5 46t-84 16q-43 0 -82 -16t-67.5 -44t-46 -64.5t-19.5 -79.5v-304z" />
    <glyph glyph-name="c" unicode="c" horiz-adv-x="819" 
d="M55 655q0 78 29.5 145.5t82 117t121 78t146.5 28.5q14 0 56 -5t93.5 -27.5t101.5 -68.5t83 -128q6 -17 6 -29q0 -33 -22.5 -55.5t-55.5 -22.5q-25 0 -44 13.5t-28 35.5q-28 62 -81.5 96.5t-116.5 34.5q-45 0 -84 -16t-69 -46t-46 -69t-16 -82v-295q0 -43 17 -81.5
t46 -68.5t69 -46.5t83 -16.5q65 0 118.5 35t79.5 97q11 22 29 35.5t43 13.5q33 0 55.5 -23.5t22.5 -54.5q0 -14 -6 -29q-41 -90 -98.5 -137t-111.5 -67.5t-92 -22.5t-40 -2q-76 0 -143.5 28.5t-118 79t-80 118t-29.5 142.5v295z" />
    <glyph glyph-name="d" unicode="d" horiz-adv-x="835" 
d="M610 1298q0 33 22.5 55.5t55.5 22.5q30 0 53.5 -22.5t23.5 -55.5v-938q0 -75 -29.5 -142.5t-79.5 -118t-118 -79t-143 -28.5q-78 0 -144.5 28.5t-118 79t-80 118t-28.5 142.5v295q0 76 29.5 143.5t80 118t118 79t143.5 28.5q59 0 113.5 -18.5t101.5 -51.5v344zM180 360
q0 -43 16 -81.5t46 -68.5t69 -46.5t84 -16.5q43 0 83 16.5t68.5 46.5t46 68.5t17.5 81.5v295q0 43 -16.5 82t-46 69t-68.5 46t-84 16q-43 0 -83 -16t-69 -46t-46 -69t-17 -82v-295z" />
    <glyph glyph-name="e" unicode="e" horiz-adv-x="851" 
d="M57 655q0 76 28.5 143.5t80 118t118 79t144.5 28.5q75 0 143 -28.5t118 -79t79.5 -118t29.5 -143.5v-147q0 -33 -22.5 -55.5t-54.5 -22.5h-508v-70q0 -43 17 -81.5t46 -68.5t69 -46.5t83 -16.5q65 0 117.5 34t78.5 91l2 7q9 22 28 35.5t44 13.5q33 0 55.5 -23.5
t22.5 -54.5q0 -14 -6 -29l-4 -8q-43 -98 -133.5 -159.5t-204.5 -61.5q-76 0 -143.5 28.5t-118 79t-80 118t-29.5 142.5v295zM213 586h430v69q0 43 -17.5 82t-46 69t-68.5 46t-83 16q-45 0 -84 -16t-69 -46t-46 -69t-16 -82v-69z" />
    <glyph glyph-name="f" unicode="f" horiz-adv-x="790" 
d="M67 1008q0 77 29.5 145t81 117t120 77.5t146.5 28.5q14 0 54 -5t91 -27.5t102.5 -68.5t88.5 -128q6 -17 6 -29q0 -33 -22.5 -55.5t-55.5 -22.5q-51 0 -72 50q-26 61 -79.5 96t-118.5 35q-43 0 -83 -16.5t-69 -46.5t-46 -68.5t-17 -81.5v-422h221q33 0 55.5 -23.5
t22.5 -54.5q0 -33 -22.5 -55.5t-55.5 -22.5h-221v-352q0 -33 -23.5 -55.5t-54.5 -22.5q-33 0 -55.5 22.5t-22.5 55.5v930z" />
    <glyph glyph-name="g" unicode="g" horiz-adv-x="841" 
d="M36 655q0 76 28.5 143.5t80 118t118 79t144.5 28.5q75 0 143 -28.5t118 -79t79.5 -118t29.5 -143.5v-647q0 -76 -29.5 -143.5t-79.5 -117.5t-118 -78.5t-143 -28.5q-33 0 -55.5 22.5t-22.5 54.5q0 33 22.5 55.5t55.5 22.5q43 0 83 16.5t68.5 46t46 68.5t17.5 82v51
q-97 -67 -215 -67q-76 0 -143.5 28.5t-118 79t-80 118t-29.5 142.5v295zM192 360q0 -43 17 -81.5t46 -68.5t69 -46.5t83 -16.5t82 15.5t67.5 43t46 64.5t19.5 80v305q0 43 -17.5 82t-46 69t-68.5 46t-83 16q-45 0 -84 -16t-69 -46t-46 -69t-16 -82v-295z" />
    <glyph glyph-name="h" unicode="h" horiz-adv-x="845" 
d="M73 1298q0 33 22.5 55.5t55.5 22.5q31 0 54.5 -22.5t23.5 -55.5v-344q45 33 100 51.5t115 18.5q75 0 143 -28.5t118 -79t79.5 -118t29.5 -143.5v-577q0 -33 -23.5 -55.5t-53.5 -22.5q-33 0 -55.5 22.5t-22.5 55.5v577q0 43 -17.5 82t-46 69t-68.5 46t-83 16
q-45 0 -83 -16t-68 -44t-46 -64.5t-18 -79.5v-586q0 -33 -23.5 -55.5t-54.5 -22.5q-33 0 -55.5 22.5t-22.5 55.5v592v628z" />
    <glyph glyph-name="i" unicode="i" horiz-adv-x="301" 
d="M69 938q0 33 22.5 55.5t55.5 22.5q31 0 54.5 -22.5t23.5 -55.5v-860q0 -33 -22.5 -55.5t-55.5 -22.5q-31 0 -54.5 22.5t-23.5 55.5v860zM69 1298q0 33 22.5 55.5t55.5 22.5q31 0 54.5 -22.5t23.5 -55.5v-59q0 -33 -22.5 -55.5t-55.5 -22.5q-31 0 -54.5 22.5t-23.5 55.5
v59z" />
    <glyph glyph-name="j" unicode="j" horiz-adv-x="512" 
d="M295 938q0 33 23.5 55.5t54.5 22.5q32 0 55 -22.5t23 -55.5v-930q0 -76 -30 -143.5t-80 -117.5t-117.5 -78.5t-143.5 -28.5q-33 0 -55.5 22.5t-22.5 54.5q0 33 22.5 55.5t55.5 22.5q43 0 81 16.5t67.5 44t47 64.5t19.5 80v938zM295 1298q0 33 22.5 55.5t55.5 22.5
q30 0 54 -22.5t24 -55.5v-59q0 -33 -23 -55.5t-55 -22.5q-31 0 -54.5 22.5t-23.5 55.5v59z" />
    <glyph glyph-name="k" unicode="k" horiz-adv-x="845" 
d="M73 1274q0 33 22.5 55.5t55.5 22.5q31 0 54.5 -22.5t23.5 -55.5v-592l401 324q21 18 49 18q29 0 52.5 -21.5t23.5 -56.5q0 -37 -27 -61l-329 -267l413 -491q21 -21 21 -51q0 -29 -22.5 -52.5t-55.5 -23.5q-37 0 -61 27l-416 495l-49 -39v-405q0 -33 -22.5 -55.5
t-55.5 -22.5q-31 0 -54.5 22.5t-23.5 55.5v1196z" />
    <glyph glyph-name="l" unicode="l" horiz-adv-x="309" 
d="M73 1274q0 33 22.5 55.5t55.5 22.5q31 0 54.5 -22.5t23.5 -55.5v-1196q0 -33 -22.5 -55.5t-55.5 -22.5q-31 0 -54.5 22.5t-23.5 55.5v1196z" />
    <glyph glyph-name="m" unicode="m" horiz-adv-x="1384" 
d="M69 655q0 76 25.5 143.5t72.5 118t110.5 79t141.5 28.5q86 0 155.5 -37t117.5 -96q47 59 116.5 96t155.5 37q76 0 140.5 -28.5t110.5 -79t72.5 -118t26.5 -143.5v-577q0 -33 -23.5 -55.5t-54.5 -22.5q-32 0 -54.5 22.5t-22.5 55.5v577q0 88 -53.5 150.5t-141.5 62.5
q-92 0 -143.5 -62.5t-51.5 -150.5v-577q0 -33 -23.5 -55.5t-53.5 -22.5q-33 0 -55.5 22.5t-22.5 55.5v577q0 88 -53.5 150.5t-141.5 62.5q-92 0 -143 -62.5t-51 -150.5v-577q0 -33 -23.5 -55.5t-54.5 -22.5q-33 0 -55.5 22.5t-22.5 55.5v577z" />
    <glyph glyph-name="n" unicode="n" horiz-adv-x="872" 
d="M65 655q0 76 28.5 143.5t80 118t118 79t144.5 28.5q75 0 143 -28.5t118 -79t79.5 -118t29.5 -143.5v-577q0 -33 -23.5 -55.5t-53.5 -22.5q-33 0 -55.5 22.5t-22.5 55.5v577q0 43 -17.5 82t-46 69t-68.5 46t-83 16q-45 0 -84 -16t-69 -46t-46 -69t-16 -82v-577
q0 -33 -23.5 -55.5t-54.5 -22.5q-33 0 -55.5 22.5t-22.5 55.5v577z" />
    <glyph glyph-name="o" unicode="o" 
d="M57 655q0 76 28.5 143.5t80 118t118 79t144.5 28.5q75 0 143 -28.5t118 -79t79.5 -118t29.5 -143.5v-295q0 -75 -28.5 -142.5t-79.5 -118t-119 -79t-143 -28.5q-76 0 -143.5 28.5t-118 79t-80 118t-29.5 142.5v295zM213 360q0 -43 17 -81.5t46 -68.5t69 -46.5t83 -16.5
q45 0 84 16.5t68.5 46.5t46 68.5t16.5 81.5v295q0 43 -17.5 82t-46 69t-68.5 46t-83 16q-45 0 -84 -16t-69 -46t-46 -69t-16 -82v-295z" />
    <glyph glyph-name="p" unicode="p" horiz-adv-x="833" 
d="M67 655q0 76 28.5 143.5t80 118t118 79t144.5 28.5q75 0 143 -28.5t118 -79t79.5 -118t29.5 -143.5v-295q0 -75 -28.5 -142.5t-79.5 -118t-119 -79t-143 -28.5q-60 0 -115 18.5t-100 50.5v-344q0 -32 -23.5 -54.5t-54.5 -22.5q-33 0 -55.5 22.5t-22.5 54.5v627v311z
M223 360q0 -43 17 -81.5t46 -68.5t69 -46.5t83 -16.5q45 0 84 16.5t68.5 46.5t46 68.5t16.5 81.5v295q0 43 -17.5 82t-46 69t-68.5 46t-83 16q-45 0 -84 -16t-69 -46t-46 -69t-16 -82v-295z" />
    <glyph glyph-name="q" unicode="q" horiz-adv-x="835" 
d="M24 655q0 76 29.5 143.5t80 118t118 79t143.5 28.5q75 0 143 -28.5t119 -79t79.5 -118t28.5 -143.5v-311v-627q0 -32 -22.5 -54.5t-54.5 -22.5q-31 0 -54.5 22.5t-23.5 54.5v344q-45 -32 -100.5 -50.5t-114.5 -18.5q-78 0 -144.5 28.5t-118 79t-80 118t-28.5 142.5v295z
M180 360q0 -43 16 -81.5t46 -68.5t69 -46.5t84 -16.5q43 0 83 16.5t68.5 46.5t46 68.5t17.5 81.5v295q0 43 -16.5 82t-46 69t-68.5 46t-84 16q-43 0 -83 -16t-69 -46t-46 -69t-17 -82v-295z" />
    <glyph glyph-name="r" unicode="r" horiz-adv-x="684" 
d="M73 938q0 33 22.5 55.5t55.5 22.5q26 0 47.5 -17.5t28.5 -46.5q96 72 225 72l36 -3t78 -15.5t76.5 -36t34.5 -66.5q0 -35 -22.5 -56.5t-55.5 -21.5q-26 0 -47 15q-51 28 -108 28q-45 0 -83 -16t-68 -44t-46 -64.5t-18 -79.5v-586q0 -33 -22.5 -55.5t-55.5 -22.5
q-31 0 -54.5 22.5t-23.5 55.5v592v268z" />
    <glyph glyph-name="s" unicode="s" horiz-adv-x="839" 
d="M69 737q0 64 27 117t73 91t110.5 58.5t140.5 20.5q61 -2 118 -18q50 -15 101 -46.5t86 -89.5q14 -28 14 -49q0 -30 -21.5 -53t-52.5 -23q-36 0 -63 33q-39 47 -78 68.5t-104 21.5q-88 0 -141.5 -37.5t-53.5 -93.5q0 -73 51 -102t144 -29q75 0 143 -19.5t118 -58.5
t79.5 -96t29.5 -133q0 -78 -29.5 -135.5t-82 -96t-121 -57t-144.5 -18.5q-16 0 -60 5t-97 27.5t-107.5 68.5t-91.5 128q-6 15 -6 29q0 31 21.5 54.5t56.5 23.5q24 0 42.5 -13.5t29.5 -35.5q26 -62 89.5 -97t129.5 -35q43 0 83 7.5t68.5 25t46 47t17.5 72.5q0 88 -62.5 120
t-152.5 32q-76 0 -140.5 14t-110.5 48t-73 88t-27 136z" />
    <glyph glyph-name="t" unicode="t" horiz-adv-x="790" 
d="M65 1276q0 33 22.5 55.5t55.5 22.5q31 0 54.5 -22.5t23.5 -55.5v-260h397q33 0 55.5 -22.5t22.5 -55.5q0 -31 -22.5 -54.5t-55.5 -23.5h-397v-500q0 -43 17 -81.5t46 -68.5t69 -46.5t83 -16.5q65 0 118.5 35t79.5 97q11 22 29 35.5t43 13.5q33 0 55.5 -23.5t22.5 -54.5
q0 -14 -6 -29q-41 -90 -98.5 -137t-111.5 -67.5t-92 -22.5t-40 -2q-76 0 -143.5 28.5t-118 79t-80 118t-29.5 142.5v916z" />
    <glyph glyph-name="u" unicode="u" horiz-adv-x="872" 
d="M65 938q0 33 22.5 55.5t55.5 22.5q31 0 54.5 -22.5t23.5 -55.5v-578q0 -43 16 -81.5t46 -68.5t69 -46.5t84 -16.5q43 0 83 16.5t68.5 46.5t46 68.5t17.5 81.5v578q0 33 22.5 55.5t55.5 22.5q30 0 53.5 -22.5t23.5 -55.5v-578q0 -75 -29.5 -142.5t-79.5 -118t-118 -79
t-143 -28.5q-78 0 -144.5 28.5t-118 79t-80 118t-28.5 142.5v578z" />
    <glyph glyph-name="v" unicode="v" horiz-adv-x="962" 
d="M36 909q-6 15 -6 31q0 29 20.5 53.5t55.5 24.5q22 0 41.5 -12.5t29.5 -34.5l304 -707l303 707q20 47 71 47q35 0 55.5 -24.5t20.5 -53.5q0 -16 -6 -31l-373 -870q-22 -47 -71 -47q-54 0 -72 47z" />
    <glyph glyph-name="w" unicode="w" horiz-adv-x="1384" 
d="M69 938q0 33 23.5 55.5t54.5 22.5q33 0 55.5 -22.5t22.5 -55.5v-578q0 -88 53 -150.5t141 -62.5q92 0 143.5 62.5t51.5 150.5v578q0 33 23.5 55.5t54.5 22.5q32 0 54.5 -22.5t22.5 -55.5v-578q0 -88 53.5 -150.5t141.5 -62.5q92 0 143.5 62.5t51.5 150.5v578
q0 33 23.5 55.5t53.5 22.5q33 0 55.5 -22.5t22.5 -55.5v-578q0 -75 -25.5 -142.5t-72.5 -118t-111.5 -79t-140.5 -28.5q-86 0 -155.5 37t-116.5 96q-48 -59 -117.5 -96t-155.5 -37q-76 0 -140.5 28.5t-110.5 79t-72.5 118t-26.5 142.5v578z" />
    <glyph glyph-name="x" unicode="x" horiz-adv-x="1001" 
d="M87 887q-18 20 -18 49q0 31 23.5 54.5t58.5 23.5q16 0 31.5 -6.5t25.5 -20.5l293 -358l293 358q10 14 25.5 20.5t31.5 6.5q35 0 57.5 -23.5t22.5 -54.5q0 -12 -3 -25.5t-13 -23.5l-314 -381l314 -381q16 -19 16 -51q0 -29 -22.5 -53.5t-57.5 -24.5q-34 0 -57 29l-293 356
l-293 -356q-22 -29 -57 -29t-58.5 24.5t-23.5 53.5q0 28 18 51l312 381z" />
    <glyph glyph-name="y" unicode="y" horiz-adv-x="833" 
d="M45 938q0 33 22.5 55.5t55.5 22.5q31 0 54.5 -22.5t23.5 -55.5v-578q0 -43 16 -81.5t46 -68.5t69 -46.5t84 -16.5q43 0 83 16.5t68.5 46.5t46 68.5t17.5 81.5v578q0 33 22.5 55.5t55.5 22.5q30 0 53.5 -22.5t23.5 -55.5v-578q0 -65 -22.5 -125.5t-61.5 -107.5t-93 -81
t-115 -46v-283q0 -32 -23 -54.5t-55 -22.5q-31 0 -54.5 22.5t-23.5 54.5v283q-64 12 -117 46t-92 81t-61.5 107.5t-22.5 125.5v578z" />
    <glyph glyph-name="z" unicode="z" horiz-adv-x="901" 
d="M172 860q-33 0 -55.5 22.5t-22.5 55.5q0 31 22.5 54.5t55.5 23.5h555q41 0 70.5 -18.5t29.5 -55.5q0 -24 -12 -45l-523 -741h465q33 0 55.5 -22.5t22.5 -55.5q0 -31 -22.5 -54.5t-55.5 -23.5h-602q-43 0 -68.5 21.5t-25.5 54.5q0 24 14 45l521 739h-424z" />
    <glyph glyph-name="braceleft" unicode="{" horiz-adv-x="688" 
d="M202 1061q0 76 30 143.5t80 117.5t117.5 79t143.5 29q33 0 55.5 -23t22.5 -55q0 -33 -22.5 -55.5t-55.5 -22.5q-43 0 -82 -16.5t-67.5 -44t-46 -64.5t-19.5 -80v-498q0 -28 -20.5 -50.5t-49.5 -26.5q29 -5 49.5 -27.5t20.5 -50.5v-498q2 -43 19.5 -80t46 -64.5t67.5 -44
t82 -16.5q33 0 55.5 -22.5t22.5 -55.5q0 -32 -22.5 -54.5t-55.5 -22.5q-76 0 -143.5 28.5t-117.5 78.5t-80 117.5t-30 143.5v420q0 25 -22.5 47.5t-46.5 22.5h-41q-33 0 -55.5 22.5t-22.5 55.5q0 30 22.5 53.5t55.5 23.5h41q24 0 46.5 21.5t22.5 46.5v422z" />
    <glyph glyph-name="bar" unicode="|" horiz-adv-x="309" 
d="M73 1280q0 33 22.5 55.5t55.5 22.5q31 0 54.5 -22.5t23.5 -55.5v-1563q0 -32 -22.5 -54.5t-55.5 -22.5q-31 0 -54.5 22.5t-23.5 54.5v1563z" />
    <glyph glyph-name="braceright" unicode="}" horiz-adv-x="688" 
d="M329 1069q-2 43 -19.5 80t-47 64.5t-67.5 44t-81 16.5q-33 0 -55.5 22.5t-22.5 55.5q0 32 22.5 55t55.5 23q76 0 143.5 -29t117.5 -79t80 -117.5t30 -143.5v-422q0 -25 22.5 -46.5t46.5 -21.5h41q33 0 55.5 -23.5t22.5 -53.5q0 -33 -22.5 -55.5t-55.5 -22.5h-41
q-24 0 -46.5 -22.5t-22.5 -47.5v-420q0 -76 -30 -143.5t-80 -117.5t-117.5 -78.5t-143.5 -28.5q-33 0 -55.5 22.5t-22.5 54.5q0 33 22.5 55.5t55.5 22.5q43 0 81 16.5t67.5 44t47 64.5t19.5 80v498q0 28 20.5 50.5t48.5 27.5q-28 4 -48.5 26.5t-20.5 50.5v498z" />
    <glyph glyph-name="asciitilde" unicode="~" horiz-adv-x="1095" 
d="M475 416q-24 22 -59 31.5t-66 9.5q-47 0 -92 -19.5t-78 -60.5q-22 -29 -59 -29q-35 0 -56.5 25.5t-21.5 54.5t16 47q56 68 131.5 102.5t157.5 34.5q62 0 121 -20.5t113 -61.5l36 -32q25 -23 60 -32t65 -9q48 0 93 19.5t77 60.5q21 26 60 26q35 0 56.5 -24.5t21.5 -53.5
q0 -24 -17 -47q-55 -67 -132 -102t-159 -35q-59 2 -120.5 19.5t-110.5 62.5z" />
    <glyph glyph-name="dieresis" unicode="&#xa8;" horiz-adv-x="1024" 
 />
    <glyph glyph-name="copyright" unicode="&#xa9;" horiz-adv-x="1529" 
 />
    <glyph glyph-name="registered" unicode="&#xae;" horiz-adv-x="1529" 
 />
    <glyph glyph-name="acute" unicode="&#xb4;" horiz-adv-x="1024" 
 />
    <glyph glyph-name="paragraph" unicode="&#xb6;" horiz-adv-x="1024" 
d="M929 1435v-70h-127v-1365h-82v1365h-166v-1365h-84v738q-174 8 -275.5 102.5t-101.5 245.5q0 157 107.5 253t285.5 96h443z" />
    <glyph glyph-name="onequarter" unicode="&#xbc;" horiz-adv-x="1298" 
 />
    <glyph glyph-name="onehalf" unicode="&#xbd;" horiz-adv-x="1320" 
 />
    <glyph glyph-name="threequarters" unicode="&#xbe;" horiz-adv-x="1288" 
 />
    <glyph glyph-name="Agrave" unicode="&#xc0;" horiz-adv-x="1265" 
d="M552 1313q21 47 72 47q14 0 31 -6q28 -13 41 -41l516 -1207q6 -16 6 -32q0 -27 -20.5 -51.5t-55.5 -24.5q-51 0 -72 47l-145 340h-602l-146 -340q-10 -22 -29.5 -34.5t-41.5 -12.5q-35 0 -55.5 24.5t-20.5 51.5q0 16 6 32zM624 1087l-236 -546h469zM456 1673
q-12 19 -12 41q0 31 22.5 53.5t57.5 22.5q43 0 65 -37l84 -145q10 -19 10 -41q0 -31 -21.5 -53.5t-56.5 -22.5q-45 0 -65 37z" />
    <glyph glyph-name="Aacute" unicode="&#xc1;" horiz-adv-x="1265" 
d="M552 1313q21 47 72 47q14 0 31 -6q28 -13 41 -41l516 -1207q6 -16 6 -32q0 -27 -20.5 -51.5t-55.5 -24.5q-51 0 -72 47l-145 340h-602l-146 -340q-10 -22 -29.5 -34.5t-41.5 -12.5q-35 0 -55.5 24.5t-20.5 51.5q0 16 6 32zM624 1087l-236 -546h469zM661 1753q20 37 65 37
q35 0 56.5 -22.5t21.5 -53.5q0 -26 -10 -41l-84 -145q-23 -37 -66 -37q-34 0 -56.5 22.5t-22.5 53.5q0 18 12 41z" />
    <glyph glyph-name="uni1EA2" unicode="&#x1ea2;" horiz-adv-x="1265" 
d="M552 1313q21 47 72 47q14 0 31 -6q28 -13 41 -41l516 -1207q6 -16 6 -32q0 -27 -20.5 -51.5t-55.5 -24.5q-51 0 -72 47l-145 340h-602l-146 -340q-10 -22 -29.5 -34.5t-41.5 -12.5q-35 0 -55.5 24.5t-20.5 51.5q0 16 6 32zM624 1087l-236 -546h469zM586 1554.5
q24 13.5 50.5 13t41.5 6t27.5 19t20 30t7.5 36.5v0q0 21 -7.5 39t-19 29t-24.5 17t-27 6q-21 0 -40.5 -14.5t-30.5 -40.5q-7 -14 -22.5 -23t-35.5 -9q-31 0 -45 16.5t-14 30.5q0 7 3 14q5 29 24.5 55t42.5 42.5t54 26t64 9.5q43 0 82 -17t68.5 -49.5t39 -64.5t9.5 -67
q0 -31 -12.5 -62t-36 -57t-59.5 -44t-93 -18q-1 -31 -34 -34.5t-47.5 15.5t-12 50.5t26.5 45z" />
    <glyph glyph-name="Atilde" unicode="&#xc3;" horiz-adv-x="1265" 
d="M552 1313q21 47 72 47q14 0 31 -6q28 -13 41 -41l516 -1207q6 -16 6 -32q0 -27 -20.5 -51.5t-55.5 -24.5q-51 0 -72 47l-145 340h-602l-146 -340q-10 -22 -29.5 -34.5t-41.5 -12.5q-35 0 -55.5 24.5t-20.5 51.5q0 16 6 32zM624 1087l-236 -546h469zM352 1606
q0 30 21.5 50.5t51 32t62 16.5t57.5 5q29 0 63.5 -12t79.5 -12q37 0 58.5 4t34 8t19.5 8t13 4q31 0 54.5 -22.5t23.5 -55.5q0 -30 -21.5 -49.5t-51 -31t-62.5 -16.5t-55 -5q-52 0 -115 20q-10 2 -31 2q-37 0 -58.5 -3t-33.5 -8t-18 -8t-13 -3q-30 0 -54.5 22.5t-24.5 53.5z
" />
    <glyph glyph-name="uni1EA0" unicode="&#x1ea0;" horiz-adv-x="1265" 
d="M552 1313q21 47 72 47q14 0 31 -6q28 -13 41 -41l516 -1207q6 -16 6 -32q0 -27 -20.5 -51.5t-55.5 -24.5q-51 0 -72 47l-145 340h-602l-146 -340q-10 -22 -29.5 -34.5t-41.5 -12.5q-35 0 -55.5 24.5t-20.5 51.5q0 16 6 32zM624 1087l-236 -546h469zM532 -219
q0 38 26.5 65t65.5 27q36 0 64 -27t28 -65q0 -39 -26.5 -65.5t-65.5 -26.5q-36 0 -64 26.5t-28 65.5z" />
    <glyph glyph-name="Acircumflex" unicode="&#xc2;" horiz-adv-x="1265" 
d="M552 1313q21 47 72 47q14 0 31 -6q28 -13 41 -41l516 -1207q6 -16 6 -32q0 -27 -20.5 -51.5t-55.5 -24.5q-51 0 -72 47l-145 340h-602l-146 -340q-10 -22 -29.5 -34.5t-41.5 -12.5q-35 0 -55.5 24.5t-20.5 51.5q0 16 6 32zM624 1087l-236 -546h469zM589 1692q16 10 37 10
q25 0 45 -14l135 -99q35 -24 35 -63q0 -33 -25.5 -55.5t-56.5 -22.5q-27 0 -43 14l-90 64l-88 -64q-21 -14 -43 -14q-33 0 -57.5 22.5t-24.5 55.5q0 39 35 63z" />
    <glyph glyph-name="uni1EA6" unicode="&#x1ea6;" horiz-adv-x="1265" 
d="M552 1313q21 47 72 47q14 0 31 -6q28 -13 41 -41l516 -1207q6 -16 6 -32q0 -27 -20.5 -51.5t-55.5 -24.5q-51 0 -72 47l-145 340h-602l-146 -340q-10 -22 -29.5 -34.5t-41.5 -12.5q-35 0 -55.5 24.5t-20.5 51.5q0 16 6 32zM624 1087l-236 -546h469zM589 1692q16 10 37 10
q25 0 45 -14l135 -99q35 -24 35 -63q0 -33 -25.5 -55.5t-56.5 -22.5q-27 0 -43 14l-90 64l-88 -64q-21 -14 -43 -14q-33 0 -57.5 22.5t-24.5 55.5q0 39 35 63zM646 1854q-12 19 -12 41q0 31 22.5 53.5t57.5 22.5q43 0 65 -37l84 -145q10 -19 10 -41q0 -31 -21.5 -53.5
t-56.5 -22.5q-45 0 -65 37z" />
    <glyph glyph-name="uni1EA4" unicode="&#x1ea4;" horiz-adv-x="1265" 
d="M552 1313q21 47 72 47q14 0 31 -6q28 -13 41 -41l516 -1207q6 -16 6 -32q0 -27 -20.5 -51.5t-55.5 -24.5q-51 0 -72 47l-145 340h-602l-146 -340q-10 -22 -29.5 -34.5t-41.5 -12.5q-35 0 -55.5 24.5t-20.5 51.5q0 16 6 32zM624 1087l-236 -546h469zM589 1692q16 10 37 10
q25 0 45 -14l135 -99q35 -24 35 -63q0 -33 -25.5 -55.5t-56.5 -22.5q-27 0 -43 14l-90 64l-88 -64q-21 -14 -43 -14q-33 0 -57.5 22.5t-24.5 55.5q0 39 35 63zM811 1934q20 37 65 37q35 0 56.5 -22.5t21.5 -53.5q0 -26 -10 -41l-84 -145q-23 -37 -66 -37q-34 0 -56.5 22.5
t-22.5 53.5q0 18 12 41z" />
    <glyph glyph-name="uni1EA8" unicode="&#x1ea8;" horiz-adv-x="1265" 
d="M552 1313q21 47 72 47q14 0 31 -6q28 -13 41 -41l516 -1207q6 -16 6 -32q0 -27 -20.5 -51.5t-55.5 -24.5q-51 0 -72 47l-145 340h-602l-146 -340q-10 -22 -29.5 -34.5t-41.5 -12.5q-35 0 -55.5 24.5t-20.5 51.5q0 16 6 32zM624 1087l-236 -546h469zM589 1692q16 10 37 10
q25 0 45 -14l135 -99q35 -24 35 -63q0 -33 -25.5 -55.5t-56.5 -22.5q-27 0 -43 14l-90 64l-88 -64q-21 -14 -43 -14q-33 0 -57.5 22.5t-24.5 55.5q0 39 35 63zM777 1775.5q24 13.5 50.5 13t41.5 6t27.5 19t20 30t7.5 36.5v0q0 21 -7.5 39t-19 29t-24.5 17t-27 6
q-21 0 -40.5 -14.5t-30.5 -40.5q-7 -14 -22.5 -23t-35.5 -9q-31 0 -45 16.5t-14 30.5q0 7 3 14q5 29 24.5 55t42.5 42.5t54 26t64 9.5q43 0 82 -17t68.5 -49.5t39 -64.5t9.5 -67q0 -31 -12.5 -62t-36 -57t-59.5 -44t-93 -18q-1 -31 -34 -34.5t-47.5 15.5t-12 50.5t26.5 45z
" />
    <glyph glyph-name="uni1EAA" unicode="&#x1eaa;" horiz-adv-x="1265" 
d="M552 1313q21 47 72 47q14 0 31 -6q28 -13 41 -41l516 -1207q6 -16 6 -32q0 -27 -20.5 -51.5t-55.5 -24.5q-51 0 -72 47l-145 340h-602l-146 -340q-10 -22 -29.5 -34.5t-41.5 -12.5q-35 0 -55.5 24.5t-20.5 51.5q0 16 6 32zM624 1087l-236 -546h469zM589 1692q16 10 37 10
q25 0 45 -14l135 -99q35 -24 35 -63q0 -33 -25.5 -55.5t-56.5 -22.5q-27 0 -43 14l-90 64l-88 -64q-21 -14 -43 -14q-33 0 -57.5 22.5t-24.5 55.5q0 39 35 63zM462 1807q0 30 21.5 50.5t51 32t62 16.5t57.5 5q29 0 63.5 -12t79.5 -12q37 0 58.5 4t34 8t19.5 8t13 4
q31 0 54.5 -22.5t23.5 -55.5q0 -30 -21.5 -49.5t-51 -31t-62.5 -16.5t-55 -5q-52 0 -115 20q-10 2 -31 2q-37 0 -58.5 -3t-33.5 -8t-18 -8t-13 -3q-30 0 -54.5 22.5t-24.5 53.5z" />
    <glyph glyph-name="uni1EAC" unicode="&#x1eac;" horiz-adv-x="1265" 
d="M552 1313q21 47 72 47q14 0 31 -6q28 -13 41 -41l516 -1207q6 -16 6 -32q0 -27 -20.5 -51.5t-55.5 -24.5q-51 0 -72 47l-145 340h-602l-146 -340q-10 -22 -29.5 -34.5t-41.5 -12.5q-35 0 -55.5 24.5t-20.5 51.5q0 16 6 32zM624 1087l-236 -546h469zM589 1692q16 10 37 10
q25 0 45 -14l135 -99q35 -24 35 -63q0 -33 -25.5 -55.5t-56.5 -22.5q-27 0 -43 14l-90 64l-88 -64q-21 -14 -43 -14q-33 0 -57.5 22.5t-24.5 55.5q0 39 35 63zM532 -219q0 38 26.5 65t65.5 27q36 0 64 -27t28 -65q0 -39 -26.5 -65.5t-65.5 -26.5q-36 0 -64 26.5t-28 65.5z
" />
    <glyph glyph-name="Abreve" unicode="&#x102;" horiz-adv-x="1265" 
d="M552 1313q21 47 72 47q14 0 31 -6q28 -13 41 -41l516 -1207q6 -16 6 -32q0 -27 -20.5 -51.5t-55.5 -24.5q-51 0 -72 47l-145 340h-602l-146 -340q-10 -22 -29.5 -34.5t-41.5 -12.5q-35 0 -55.5 24.5t-20.5 51.5q0 16 6 32zM624 1087l-236 -546h469zM448 1519
q-35 24 -35 63q0 33 24.5 55.5t57.5 22.5q22 0 43 -14q88 -120 178 0q16 14 43 14q31 0 56.5 -22.5t25.5 -55.5q0 -39 -35 -63q-86 -85 -181.5 -85.5t-176.5 85.5z" />
    <glyph glyph-name="uni1EB0" unicode="&#x1eb0;" horiz-adv-x="1265" 
d="M552 1313q21 47 72 47q14 0 31 -6q28 -13 41 -41l516 -1207q6 -16 6 -32q0 -27 -20.5 -51.5t-55.5 -24.5q-51 0 -72 47l-145 340h-602l-146 -340q-10 -22 -29.5 -34.5t-41.5 -12.5q-35 0 -55.5 24.5t-20.5 51.5q0 16 6 32zM624 1087l-236 -546h469zM479 1854
q-12 19 -12 41q0 31 22.5 53.5t57.5 22.5q43 0 65 -37l84 -145q10 -19 10 -41q0 -31 -21.5 -53.5t-56.5 -22.5q-45 0 -65 37zM448 1519q-35 24 -35 63q0 33 24.5 55.5t57.5 22.5q22 0 43 -14q88 -120 178 0q16 14 43 14q31 0 56.5 -22.5t25.5 -55.5q0 -39 -35 -63
q-86 -85 -181.5 -85.5t-176.5 85.5z" />
    <glyph glyph-name="uni1EAE" unicode="&#x1eae;" horiz-adv-x="1265" 
d="M552 1313q21 47 72 47q14 0 31 -6q28 -13 41 -41l516 -1207q6 -16 6 -32q0 -27 -20.5 -51.5t-55.5 -24.5q-51 0 -72 47l-145 340h-602l-146 -340q-10 -22 -29.5 -34.5t-41.5 -12.5q-35 0 -55.5 24.5t-20.5 51.5q0 16 6 32zM624 1087l-236 -546h469zM671 1934q20 37 65 37
q35 0 56.5 -22.5t21.5 -53.5q0 -26 -10 -41l-84 -145q-23 -37 -66 -37q-34 0 -56.5 22.5t-22.5 53.5q0 18 12 41zM448 1519q-35 24 -35 63q0 33 24.5 55.5t57.5 22.5q22 0 43 -14q88 -120 178 0q16 14 43 14q31 0 56.5 -22.5t25.5 -55.5q0 -39 -35 -63q-86 -85 -181.5 -85.5
t-176.5 85.5z" />
    <glyph glyph-name="uni1EB2" unicode="&#x1eb2;" horiz-adv-x="1265" 
d="M552 1313q21 47 72 47q14 0 31 -6q28 -13 41 -41l516 -1207q6 -16 6 -32q0 -27 -20.5 -51.5t-55.5 -24.5q-51 0 -72 47l-145 340h-602l-146 -340q-10 -22 -29.5 -34.5t-41.5 -12.5q-35 0 -55.5 24.5t-20.5 51.5q0 16 6 32zM624 1087l-236 -546h469zM609 1775.5
q24 13.5 50.5 13t41.5 6t27.5 19t20 30t7.5 36.5v0q0 21 -7.5 39t-19 29t-24.5 17t-27 6q-21 0 -40.5 -14.5t-30.5 -40.5q-7 -14 -22.5 -23t-35.5 -9q-31 0 -45 16.5t-14 30.5q0 7 3 14q5 29 24.5 55t42.5 42.5t54 26t64 9.5q43 0 82 -17t68.5 -49.5t39 -64.5t9.5 -67
q0 -31 -12.5 -62t-36 -57t-59.5 -44t-93 -18q-1 -31 -34 -34.5t-47.5 15.5t-12 50.5t26.5 45zM448 1519q-35 24 -35 63q0 33 24.5 55.5t57.5 22.5q22 0 43 -14q88 -120 178 0q16 14 43 14q31 0 56.5 -22.5t25.5 -55.5q0 -39 -35 -63q-86 -85 -181.5 -85.5t-176.5 85.5z" />
    <glyph glyph-name="uni1EB4" unicode="&#x1eb4;" horiz-adv-x="1265" 
d="M552 1313q21 47 72 47q14 0 31 -6q28 -13 41 -41l516 -1207q6 -16 6 -32q0 -27 -20.5 -51.5t-55.5 -24.5q-51 0 -72 47l-145 340h-602l-146 -340q-10 -22 -29.5 -34.5t-41.5 -12.5q-35 0 -55.5 24.5t-20.5 51.5q0 16 6 32zM624 1087l-236 -546h469zM462 1807
q0 30 21.5 50.5t51 32t62 16.5t57.5 5q29 0 63.5 -12t79.5 -12q37 0 58.5 4t34 8t19.5 8t13 4q31 0 54.5 -22.5t23.5 -55.5q0 -30 -21.5 -49.5t-51 -31t-62.5 -16.5t-55 -5q-52 0 -115 20q-10 2 -31 2q-37 0 -58.5 -3t-33.5 -8t-18 -8t-13 -3q-30 0 -54.5 22.5t-24.5 53.5z
M448 1519q-35 24 -35 63q0 33 24.5 55.5t57.5 22.5q22 0 43 -14q88 -120 178 0q16 14 43 14q31 0 56.5 -22.5t25.5 -55.5q0 -39 -35 -63q-86 -85 -181.5 -85.5t-176.5 85.5z" />
    <glyph glyph-name="uni1EB6" unicode="&#x1eb6;" horiz-adv-x="1265" 
d="M552 1313q21 47 72 47q14 0 31 -6q28 -13 41 -41l516 -1207q6 -16 6 -32q0 -27 -20.5 -51.5t-55.5 -24.5q-51 0 -72 47l-145 340h-602l-146 -340q-10 -22 -29.5 -34.5t-41.5 -12.5q-35 0 -55.5 24.5t-20.5 51.5q0 16 6 32zM624 1087l-236 -546h469zM532 -219
q0 38 26.5 65t65.5 27q36 0 64 -27t28 -65q0 -39 -26.5 -65.5t-65.5 -26.5q-36 0 -64 26.5t-28 65.5zM448 1519q-35 24 -35 63q0 33 24.5 55.5t57.5 22.5q22 0 43 -14q88 -120 178 0q16 14 43 14q31 0 56.5 -22.5t25.5 -55.5q0 -39 -35 -63q-86 -85 -181.5 -85.5
t-176.5 85.5z" />
    <glyph glyph-name="Egrave" unicode="&#xc8;" horiz-adv-x="1081" 
d="M73 1274q0 33 22.5 55.5t55.5 22.5h821q33 0 55.5 -22.5t22.5 -55.5q0 -31 -22.5 -54.5t-55.5 -23.5h-743v-463h241q33 0 55.5 -22.5t22.5 -55.5q0 -30 -22.5 -53.5t-55.5 -23.5h-241v-422h743q33 0 55.5 -22.5t22.5 -55.5q0 -31 -22.5 -54.5t-55.5 -23.5h-815h-6
q-31 0 -54.5 22.5t-23.5 55.5v1196zM429 1673q-12 19 -12 41q0 31 22.5 53.5t57.5 22.5q43 0 65 -37l84 -145q11 -19 11 -41q0 -31 -21.5 -53.5t-56.5 -22.5q-45 0 -66 37z" />
    <glyph glyph-name="Eacute" unicode="&#xc9;" horiz-adv-x="1081" 
d="M73 1274q0 33 22.5 55.5t55.5 22.5h821q33 0 55.5 -22.5t22.5 -55.5q0 -31 -22.5 -54.5t-55.5 -23.5h-743v-463h241q33 0 55.5 -22.5t22.5 -55.5q0 -30 -22.5 -53.5t-55.5 -23.5h-241v-422h743q33 0 55.5 -22.5t22.5 -55.5q0 -31 -22.5 -54.5t-55.5 -23.5h-815h-6
q-31 0 -54.5 22.5t-23.5 55.5v1196zM575 1753q20 37 65 37q35 0 56.5 -22.5t21.5 -53.5q0 -26 -10 -41l-84 -145q-23 -37 -66 -37q-34 0 -56.5 22.5t-22.5 53.5q0 18 12 41z" />
    <glyph glyph-name="uni1EBA" unicode="&#x1eba;" horiz-adv-x="1081" 
d="M73 1274q0 33 22.5 55.5t55.5 22.5h821q33 0 55.5 -22.5t22.5 -55.5q0 -31 -22.5 -54.5t-55.5 -23.5h-743v-463h241q33 0 55.5 -22.5t22.5 -55.5q0 -30 -22.5 -53.5t-55.5 -23.5h-241v-422h743q33 0 55.5 -22.5t22.5 -55.5q0 -31 -22.5 -54.5t-55.5 -23.5h-815h-6
q-31 0 -54.5 22.5t-23.5 55.5v1196zM515 1554.5q24 13.5 50.5 13t41.5 6t27.5 19t20.5 30t8 36.5v0q0 21 -7.5 39t-19 29t-25 17t-27.5 6q-21 0 -40.5 -14.5t-30.5 -40.5q-6 -14 -21.5 -23t-35.5 -9q-32 0 -46 16.5t-14 30.5q0 7 3 14q5 29 25 55t43 42.5t53.5 26t63.5 9.5
q43 0 82.5 -17t68.5 -49.5t38.5 -64.5t9.5 -67q0 -31 -12 -62t-35.5 -57t-60 -44t-93.5 -18q-1 -31 -34 -34.5t-47.5 15.5t-12 50.5t26.5 45z" />
    <glyph glyph-name="uni1EBC" unicode="&#x1ebc;" horiz-adv-x="1081" 
d="M73 1274q0 33 22.5 55.5t55.5 22.5h821q33 0 55.5 -22.5t22.5 -55.5q0 -31 -22.5 -54.5t-55.5 -23.5h-743v-463h241q33 0 55.5 -22.5t22.5 -55.5q0 -30 -22.5 -53.5t-55.5 -23.5h-241v-422h743q33 0 55.5 -22.5t22.5 -55.5q0 -31 -22.5 -54.5t-55.5 -23.5h-815h-6
q-31 0 -54.5 22.5t-23.5 55.5v1196zM290 1606q0 30 21.5 50.5t51 32t62.5 16.5t57 5q29 0 64 -12t80 -12q37 0 58.5 4t33.5 8t19 8t14 4q30 0 53.5 -22.5t23.5 -55.5q0 -30 -21.5 -49.5t-51 -31t-62.5 -16.5t-55 -5q-51 0 -115 20q-10 2 -30 2q-37 0 -58.5 -3t-34 -8
t-18.5 -8t-12 -3q-31 0 -55.5 22.5t-24.5 53.5z" />
    <glyph glyph-name="uni1EB8" unicode="&#x1eb8;" horiz-adv-x="1081" 
d="M73 1274q0 33 22.5 55.5t55.5 22.5h821q33 0 55.5 -22.5t22.5 -55.5q0 -31 -22.5 -54.5t-55.5 -23.5h-743v-463h241q33 0 55.5 -22.5t22.5 -55.5q0 -30 -22.5 -53.5t-55.5 -23.5h-241v-422h743q33 0 55.5 -22.5t22.5 -55.5q0 -31 -22.5 -54.5t-55.5 -23.5h-815h-6
q-31 0 -54.5 22.5t-23.5 55.5v1196zM451 -219q0 38 27 65t65 27q36 0 64 -27t28 -65q0 -39 -26.5 -65.5t-65.5 -26.5q-36 0 -64 26.5t-28 65.5z" />
    <glyph glyph-name="Ecircumflex" unicode="&#xca;" horiz-adv-x="1081" 
d="M73 1274q0 33 22.5 55.5t55.5 22.5h821q33 0 55.5 -22.5t22.5 -55.5q0 -31 -22.5 -54.5t-55.5 -23.5h-743v-463h241q33 0 55.5 -22.5t22.5 -55.5q0 -30 -22.5 -53.5t-55.5 -23.5h-241v-422h743q33 0 55.5 -22.5t22.5 -55.5q0 -31 -22.5 -54.5t-55.5 -23.5h-815h-6
q-31 0 -54.5 22.5t-23.5 55.5v1196zM517 1692q17 10 37 10q25 0 45 -14l136 -99q34 -24 34 -63q0 -33 -25.5 -55.5t-56.5 -22.5q-26 0 -43 14l-90 64l-88 -64q-20 -14 -43 -14q-33 0 -57.5 22.5t-24.5 55.5q0 39 35 63z" />
    <glyph glyph-name="uni1EC0" unicode="&#x1ec0;" horiz-adv-x="1081" 
d="M73 1274q0 33 22.5 55.5t55.5 22.5h821q33 0 55.5 -22.5t22.5 -55.5q0 -31 -22.5 -54.5t-55.5 -23.5h-743v-463h241q33 0 55.5 -22.5t22.5 -55.5q0 -30 -22.5 -53.5t-55.5 -23.5h-241v-422h743q33 0 55.5 -22.5t22.5 -55.5q0 -31 -22.5 -54.5t-55.5 -23.5h-815h-6
q-31 0 -54.5 22.5t-23.5 55.5v1196zM517 1692q17 10 37 10q25 0 45 -14l136 -99q34 -24 34 -63q0 -33 -25.5 -55.5t-56.5 -22.5q-26 0 -43 14l-90 64l-88 -64q-20 -14 -43 -14q-33 0 -57.5 22.5t-24.5 55.5q0 39 35 63zM606 1854q-12 19 -12 41q0 31 22.5 53.5t57.5 22.5
q43 0 65 -37l84 -145q10 -19 10 -41q0 -31 -21.5 -53.5t-56.5 -22.5q-45 0 -65 37z" />
    <glyph glyph-name="uni1EBE" unicode="&#x1ebe;" horiz-adv-x="1081" 
d="M73 1274q0 33 22.5 55.5t55.5 22.5h821q33 0 55.5 -22.5t22.5 -55.5q0 -31 -22.5 -54.5t-55.5 -23.5h-743v-463h241q33 0 55.5 -22.5t22.5 -55.5q0 -30 -22.5 -53.5t-55.5 -23.5h-241v-422h743q33 0 55.5 -22.5t22.5 -55.5q0 -31 -22.5 -54.5t-55.5 -23.5h-815h-6
q-31 0 -54.5 22.5t-23.5 55.5v1196zM517 1692q17 10 37 10q25 0 45 -14l136 -99q34 -24 34 -63q0 -33 -25.5 -55.5t-56.5 -22.5q-26 0 -43 14l-90 64l-88 -64q-20 -14 -43 -14q-33 0 -57.5 22.5t-24.5 55.5q0 39 35 63zM781 1934q20 37 65 37q35 0 56.5 -22.5t21.5 -53.5
q0 -26 -10 -41l-84 -145q-23 -37 -66 -37q-34 0 -56.5 22.5t-22.5 53.5q0 18 12 41z" />
    <glyph glyph-name="uni1EC2" unicode="&#x1ec2;" horiz-adv-x="1081" 
d="M73 1274q0 33 22.5 55.5t55.5 22.5h821q33 0 55.5 -22.5t22.5 -55.5q0 -31 -22.5 -54.5t-55.5 -23.5h-743v-463h241q33 0 55.5 -22.5t22.5 -55.5q0 -30 -22.5 -53.5t-55.5 -23.5h-241v-422h743q33 0 55.5 -22.5t22.5 -55.5q0 -31 -22.5 -54.5t-55.5 -23.5h-815h-6
q-31 0 -54.5 22.5t-23.5 55.5v1196zM517 1692q17 10 37 10q25 0 45 -14l136 -99q34 -24 34 -63q0 -33 -25.5 -55.5t-56.5 -22.5q-26 0 -43 14l-90 64l-88 -64q-20 -14 -43 -14q-33 0 -57.5 22.5t-24.5 55.5q0 39 35 63zM717 1775.5q24 13.5 50.5 13t41.5 6t27.5 19t20 30
t7.5 36.5v0q0 21 -7.5 39t-19 29t-24.5 17t-27 6q-21 0 -40.5 -14.5t-30.5 -40.5q-7 -14 -22.5 -23t-35.5 -9q-31 0 -45 16.5t-14 30.5q0 7 3 14q5 29 24.5 55t42.5 42.5t54 26t64 9.5q43 0 82 -17t68.5 -49.5t39 -64.5t9.5 -67q0 -31 -12.5 -62t-36 -57t-59.5 -44t-93 -18
q-1 -31 -34 -34.5t-47.5 15.5t-12 50.5t26.5 45z" />
    <glyph glyph-name="uni1EC4" unicode="&#x1ec4;" horiz-adv-x="1081" 
d="M73 1274q0 33 22.5 55.5t55.5 22.5h821q33 0 55.5 -22.5t22.5 -55.5q0 -31 -22.5 -54.5t-55.5 -23.5h-743v-463h241q33 0 55.5 -22.5t22.5 -55.5q0 -30 -22.5 -53.5t-55.5 -23.5h-241v-422h743q33 0 55.5 -22.5t22.5 -55.5q0 -31 -22.5 -54.5t-55.5 -23.5h-815h-6
q-31 0 -54.5 22.5t-23.5 55.5v1196zM517 1692q17 10 37 10q25 0 45 -14l136 -99q34 -24 34 -63q0 -33 -25.5 -55.5t-56.5 -22.5q-26 0 -43 14l-90 64l-88 -64q-20 -14 -43 -14q-33 0 -57.5 22.5t-24.5 55.5q0 39 35 63zM361 1807q0 30 21.5 50.5t51 32t62 16.5t57.5 5
q29 0 63.5 -12t79.5 -12q37 0 58.5 4t34 8t19.5 8t13 4q31 0 54.5 -22.5t23.5 -55.5q0 -30 -21.5 -49.5t-51 -31t-62.5 -16.5t-55 -5q-52 0 -115 20q-10 2 -31 2q-37 0 -58.5 -3t-33.5 -8t-18 -8t-13 -3q-30 0 -54.5 22.5t-24.5 53.5z" />
    <glyph glyph-name="uni1EC6" unicode="&#x1ec6;" horiz-adv-x="1081" 
d="M73 1274q0 33 22.5 55.5t55.5 22.5h821q33 0 55.5 -22.5t22.5 -55.5q0 -31 -22.5 -54.5t-55.5 -23.5h-743v-463h241q33 0 55.5 -22.5t22.5 -55.5q0 -30 -22.5 -53.5t-55.5 -23.5h-241v-422h743q33 0 55.5 -22.5t22.5 -55.5q0 -31 -22.5 -54.5t-55.5 -23.5h-815h-6
q-31 0 -54.5 22.5t-23.5 55.5v1196zM517 1692q17 10 37 10q25 0 45 -14l136 -99q34 -24 34 -63q0 -33 -25.5 -55.5t-56.5 -22.5q-26 0 -43 14l-90 64l-88 -64q-20 -14 -43 -14q-33 0 -57.5 22.5t-24.5 55.5q0 39 35 63zM452 -219q0 38 26.5 65t65.5 27q36 0 64 -27t28 -65
q0 -39 -26.5 -65.5t-65.5 -26.5q-36 0 -64 26.5t-28 65.5z" />
    <glyph glyph-name="Igrave" unicode="&#xcc;" horiz-adv-x="309" 
d="M74 1274q0 33 22.5 55.5t55.5 22.5q31 0 54.5 -22.5t23.5 -55.5v-1196q0 -33 -22.5 -55.5t-55.5 -22.5q-31 0 -54.5 22.5t-23.5 55.5v1196zM0 1677q-12 19 -12 41q0 31 22.5 53.5t57.5 22.5q43 0 65 -37l84 -145q11 -19 11 -41q0 -31 -21.5 -53.5t-56.5 -22.5
q-45 0 -66 37z" />
    <glyph glyph-name="Iacute" unicode="&#xcd;" horiz-adv-x="309" 
d="M73 1274q0 33 22.5 55.5t55.5 22.5q31 0 54.5 -22.5t23.5 -55.5v-1196q0 -33 -22.5 -55.5t-55.5 -22.5q-31 0 -54.5 22.5t-23.5 55.5v1196zM175 1755q21 37 66 37q35 0 56.5 -22.5t21.5 -53.5q0 -26 -10 -41l-84 -145q-23 -37 -66 -37q-35 0 -57.5 22.5t-22.5 53.5
q0 18 12 41z" />
    <glyph glyph-name="uni1EC8" unicode="&#x1ec8;" horiz-adv-x="309" 
d="M73 1274q0 33 22.5 55.5t55.5 22.5q30 0 53.5 -22.5t23.5 -55.5v-1196q0 -33 -22.5 -55.5t-54.5 -22.5q-31 0 -54.5 22.5t-23.5 55.5v1196zM113 1554.5q24 13.5 50.5 13t41.5 6t27.5 19t20 30t7.5 36.5v0q0 21 -7.5 39t-18.5 29t-24.5 17t-27.5 6q-21 0 -40.5 -14.5
t-30.5 -40.5q-6 -14 -22 -23t-35 -9q-32 0 -46 16.5t-14 30.5q0 7 3 14q5 29 24.5 55t42.5 42.5t54 26t64 9.5q43 0 82.5 -17t68.5 -49.5t38.5 -64.5t9.5 -67q0 -31 -12.5 -62t-36 -57t-59.5 -44t-93 -18q-1 -31 -34 -34.5t-47.5 15.5t-12 50.5t26.5 45z" />
    <glyph glyph-name="Itilde" unicode="&#x128;" horiz-adv-x="309" 
d="M73 1274q0 33 22.5 55.5t55.5 22.5q31 0 54.5 -22.5t23.5 -55.5v-1196q0 -33 -22.5 -55.5t-55.5 -22.5q-31 0 -54.5 22.5t-23.5 55.5v1196zM-91 1606q0 30 21.5 50.5t51 32t62.5 16.5t58 5q28 0 63 -12t80 -12q37 0 58.5 4t33.5 8t19.5 8t13.5 4q31 0 54.5 -22.5
t23.5 -55.5q0 -30 -21.5 -49.5t-51.5 -31t-62.5 -16.5t-55.5 -5q-51 0 -115 20q-10 2 -30 2q-37 0 -58.5 -3t-34 -8t-18.5 -8t-12 -3q-31 0 -55.5 22.5t-24.5 53.5z" />
    <glyph glyph-name="uni1ECA" unicode="&#x1eca;" horiz-adv-x="309" 
d="M73 1274q0 33 22.5 55.5t54.5 22.5q31 0 54.5 -22.5t23.5 -55.5v-1196q0 -33 -22.5 -55.5t-55.5 -22.5q-30 0 -53.5 22.5t-23.5 55.5v1196zM50 -219q0 38 26.5 65t65.5 27q36 0 64 -27t28 -65q0 -39 -27 -65.5t-65 -26.5q-36 0 -64 26.5t-28 65.5z" />
    <glyph glyph-name="Ograve" unicode="&#xd2;" horiz-adv-x="1091" 
d="M59 909q0 101 39 189t104.5 154.5t154.5 104.5t191 38q101 0 189 -38t154.5 -104.5t105.5 -154.5t39 -189v-467q0 -100 -39 -188t-104.5 -154.5t-154.5 -104.5t-190 -38q-100 0 -189 38t-155.5 104.5t-105.5 154.5t-39 188v467zM215 442q0 -67 26.5 -127.5t71.5 -104.5
t106.5 -70.5t128.5 -26.5q70 0 130.5 26.5t105.5 70.5t70.5 104.5t25.5 127.5v467q0 68 -26.5 128.5t-71.5 104.5t-105.5 70.5t-128.5 26.5q-69 0 -130.5 -26.5t-106.5 -70.5t-70.5 -104.5t-25.5 -128.5v-467zM387 1673q-13 19 -13 41q0 31 22.5 53.5t57.5 22.5q43 0 66 -37
l84 -145q10 -19 10 -41q0 -31 -21.5 -53.5t-56.5 -22.5q-45 0 -65 37z" />
    <glyph glyph-name="Oacute" unicode="&#xd3;" horiz-adv-x="1091" 
d="M59 909q0 101 39 189t104.5 154.5t154.5 104.5t191 38q101 0 189 -38t154.5 -104.5t105.5 -154.5t39 -189v-467q0 -100 -39 -188t-104.5 -154.5t-154.5 -104.5t-190 -38q-100 0 -189 38t-155.5 104.5t-105.5 154.5t-39 188v467zM215 442q0 -67 26.5 -127.5t71.5 -104.5
t106.5 -70.5t128.5 -26.5q70 0 130.5 26.5t105.5 70.5t70.5 104.5t25.5 127.5v467q0 68 -26.5 128.5t-71.5 104.5t-105.5 70.5t-128.5 26.5q-69 0 -130.5 -26.5t-106.5 -70.5t-70.5 -104.5t-25.5 -128.5v-467zM567 1755q20 37 65 37q35 0 56.5 -22.5t21.5 -53.5
q0 -26 -10 -41l-84 -145q-22 -37 -65 -37q-35 0 -57.5 22.5t-22.5 53.5q0 18 12 41z" />
    <glyph glyph-name="uni1ECE" unicode="&#x1ece;" horiz-adv-x="1095" 
d="M59 909q0 101 39 189t104.5 154.5t154.5 104.5t191 38q101 0 189 -38t154.5 -104.5t105.5 -154.5t39 -189v-467q0 -100 -39 -188t-104.5 -154.5t-154.5 -104.5t-190 -38q-100 0 -189 38t-155.5 104.5t-105.5 154.5t-39 188v467zM215 442q0 -67 26.5 -127.5t71.5 -104.5
t106.5 -70.5t128.5 -26.5q70 0 130.5 26.5t105.5 70.5t70.5 104.5t25.5 127.5v467q0 68 -26.5 128.5t-71.5 104.5t-105.5 70.5t-128.5 26.5q-69 0 -130.5 -26.5t-106.5 -70.5t-70.5 -104.5t-25.5 -128.5v-467zM495 1554.5q24 13.5 51 13t41.5 6t27 19t20.5 30t8 36.5v0
q0 21 -7.5 39t-19 29t-25 17t-26.5 6q-22 0 -41 -14.5t-31 -40.5q-6 -14 -21.5 -23t-35.5 -9q-32 0 -45.5 16.5t-13.5 30.5q0 7 2 14q5 29 25 55t43 42.5t54 26t64 9.5q43 0 82 -17t68.5 -49.5t39 -64.5t9.5 -67q0 -31 -12.5 -62t-36 -57t-60 -44t-93.5 -18
q0 -31 -33.5 -34.5t-47.5 15.5t-12 50.5t26 45z" />
    <glyph glyph-name="Otilde" unicode="&#xd5;" horiz-adv-x="1091" 
d="M59 909q0 101 39 189t104.5 154.5t154.5 104.5t191 38q101 0 189 -38t154.5 -104.5t105.5 -154.5t39 -189v-467q0 -100 -39 -188t-104.5 -154.5t-154.5 -104.5t-190 -38q-100 0 -189 38t-155.5 104.5t-105.5 154.5t-39 188v467zM215 442q0 -67 26.5 -127.5t71.5 -104.5
t106.5 -70.5t128.5 -26.5q70 0 130.5 26.5t105.5 70.5t70.5 104.5t25.5 127.5v467q0 68 -26.5 128.5t-71.5 104.5t-105.5 70.5t-128.5 26.5q-69 0 -130.5 -26.5t-106.5 -70.5t-70.5 -104.5t-25.5 -128.5v-467zM264 1608q0 30 21.5 50.5t51 32t62.5 16.5t57 5q29 0 64 -12
t80 -12q37 0 58.5 4t33.5 8t19 8t14 4q30 0 53.5 -22.5t23.5 -55.5q0 -30 -21.5 -49.5t-51 -31t-62.5 -16.5t-55 -5q-51 0 -115 20q-10 2 -30 2q-37 0 -58.5 -3t-34 -8t-18.5 -8t-12 -3q-31 0 -55.5 22.5t-24.5 53.5z" />
    <glyph glyph-name="uni1ECC" unicode="&#x1ecc;" horiz-adv-x="1095" 
d="M59 909q0 101 39 189t104.5 154.5t154.5 104.5t191 38q101 0 189 -38t154.5 -104.5t105.5 -154.5t39 -189v-467q0 -100 -39 -188t-104.5 -154.5t-154.5 -104.5t-190 -38q-100 0 -189 38t-155.5 104.5t-105.5 154.5t-39 188v467zM215 442q0 -67 26.5 -127.5t71.5 -104.5
t106.5 -70.5t128.5 -26.5q70 0 130.5 26.5t105.5 70.5t70.5 104.5t25.5 127.5v467q0 68 -26.5 128.5t-71.5 104.5t-105.5 70.5t-128.5 26.5q-69 0 -130.5 -26.5t-106.5 -70.5t-70.5 -104.5t-25.5 -128.5v-467zM456 -219q0 38 26.5 65t64.5 27q37 0 64.5 -27t27.5 -65
q0 -39 -26.5 -65.5t-65.5 -26.5q-36 0 -63.5 26.5t-27.5 65.5z" />
    <glyph glyph-name="Ocircumflex" unicode="&#xd4;" horiz-adv-x="1091" 
d="M59 909q0 101 39 189t104.5 154.5t154.5 104.5t191 38q101 0 189 -38t154.5 -104.5t105.5 -154.5t39 -189v-467q0 -100 -39 -188t-104.5 -154.5t-154.5 -104.5t-190 -38q-100 0 -189 38t-155.5 104.5t-105.5 154.5t-39 188v467zM215 442q0 -67 26.5 -127.5t71.5 -104.5
t106.5 -70.5t128.5 -26.5q70 0 130.5 26.5t105.5 70.5t70.5 104.5t25.5 127.5v467q0 68 -26.5 128.5t-71.5 104.5t-105.5 70.5t-128.5 26.5q-69 0 -130.5 -26.5t-106.5 -70.5t-70.5 -104.5t-25.5 -128.5v-467zM503 1692q17 10 37 10q25 0 45 -14l136 -99q34 -24 34 -63
q0 -33 -25.5 -55.5t-56.5 -22.5q-26 0 -43 14l-90 64l-88 -64q-20 -14 -43 -14q-33 0 -57.5 22.5t-24.5 55.5q0 39 35 63z" />
    <glyph glyph-name="uni1ED2" unicode="&#x1ed2;" horiz-adv-x="1091" 
d="M59 909q0 101 39 189t104.5 154.5t154.5 104.5t191 38q101 0 189 -38t154.5 -104.5t105.5 -154.5t39 -189v-467q0 -100 -39 -188t-104.5 -154.5t-154.5 -104.5t-190 -38q-100 0 -189 38t-155.5 104.5t-105.5 154.5t-39 188v467zM215 442q0 -67 26.5 -127.5t71.5 -104.5
t106.5 -70.5t128.5 -26.5q70 0 130.5 26.5t105.5 70.5t70.5 104.5t25.5 127.5v467q0 68 -26.5 128.5t-71.5 104.5t-105.5 70.5t-128.5 26.5q-69 0 -130.5 -26.5t-106.5 -70.5t-70.5 -104.5t-25.5 -128.5v-467zM567 1844q-13 19 -13 41q0 31 22.5 53.5t57.5 22.5q43 0 66 -37
l84 -145q10 -19 10 -41q0 -31 -21.5 -53.5t-56.5 -22.5q-45 0 -65 37zM503 1692q17 10 37 10q25 0 45 -14l136 -99q34 -24 34 -63q0 -33 -25.5 -55.5t-56.5 -22.5q-26 0 -43 14l-90 64l-88 -64q-20 -14 -43 -14q-33 0 -57.5 22.5t-24.5 55.5q0 39 35 63z" />
    <glyph glyph-name="uni1ED0" unicode="&#x1ed0;" horiz-adv-x="1091" 
d="M59 909q0 101 39 189t104.5 154.5t154.5 104.5t191 38q101 0 189 -38t154.5 -104.5t105.5 -154.5t39 -189v-467q0 -100 -39 -188t-104.5 -154.5t-154.5 -104.5t-190 -38q-100 0 -189 38t-155.5 104.5t-105.5 154.5t-39 188v467zM215 442q0 -67 26.5 -127.5t71.5 -104.5
t106.5 -70.5t128.5 -26.5q70 0 130.5 26.5t105.5 70.5t70.5 104.5t25.5 127.5v467q0 68 -26.5 128.5t-71.5 104.5t-105.5 70.5t-128.5 26.5q-69 0 -130.5 -26.5t-106.5 -70.5t-70.5 -104.5t-25.5 -128.5v-467zM728 1916q20 37 65 37q35 0 56.5 -22.5t21.5 -53.5
q0 -26 -10 -41l-84 -145q-22 -37 -65 -37q-35 0 -57.5 22.5t-22.5 53.5q0 18 12 41zM503 1692q17 10 37 10q25 0 45 -14l136 -99q34 -24 34 -63q0 -33 -25.5 -55.5t-56.5 -22.5q-26 0 -43 14l-90 64l-88 -64q-20 -14 -43 -14q-33 0 -57.5 22.5t-24.5 55.5q0 39 35 63z" />
    <glyph glyph-name="uni1ED4" unicode="&#x1ed4;" horiz-adv-x="1095" 
d="M59 909q0 101 39 189t104.5 154.5t154.5 104.5t191 38q101 0 189 -38t154.5 -104.5t105.5 -154.5t39 -189v-467q0 -100 -39 -188t-104.5 -154.5t-154.5 -104.5t-190 -38q-100 0 -189 38t-155.5 104.5t-105.5 154.5t-39 188v467zM215 442q0 -67 26.5 -127.5t71.5 -104.5
t106.5 -70.5t128.5 -26.5q70 0 130.5 26.5t105.5 70.5t70.5 104.5t25.5 127.5v467q0 68 -26.5 128.5t-71.5 104.5t-105.5 70.5t-128.5 26.5q-69 0 -130.5 -26.5t-106.5 -70.5t-70.5 -104.5t-25.5 -128.5v-467zM686 1755.5q24 13.5 51 13t41.5 6t27 19t20.5 30t8 36.5v0
q0 21 -7.5 39t-19 29t-25 17t-26.5 6q-22 0 -41 -14.5t-31 -40.5q-6 -14 -21.5 -23t-35.5 -9q-32 0 -45.5 16.5t-13.5 30.5q0 7 2 14q5 29 25 55t43 42.5t54 26t64 9.5q43 0 82 -17t68.5 -49.5t39 -64.5t9.5 -67q0 -31 -12.5 -62t-36 -57t-60 -44t-93.5 -18
q0 -31 -33.5 -34.5t-47.5 15.5t-12 50.5t26 45zM503 1692q16 10 37 10q24 0 45 -14l135 -99q35 -24 35 -63q0 -33 -25.5 -55.5t-56.5 -22.5q-27 0 -43 14l-90 64l-88 -64q-21 -14 -43 -14q-33 0 -57.5 22.5t-24.5 55.5q0 39 35 63z" />
    <glyph glyph-name="uni1ED6" unicode="&#x1ed6;" horiz-adv-x="1091" 
d="M59 909q0 101 39 189t104.5 154.5t154.5 104.5t191 38q101 0 189 -38t154.5 -104.5t105.5 -154.5t39 -189v-467q0 -100 -39 -188t-104.5 -154.5t-154.5 -104.5t-190 -38q-100 0 -189 38t-155.5 104.5t-105.5 154.5t-39 188v467zM215 442q0 -67 26.5 -127.5t71.5 -104.5
t106.5 -70.5t128.5 -26.5q70 0 130.5 26.5t105.5 70.5t70.5 104.5t25.5 127.5v467q0 68 -26.5 128.5t-71.5 104.5t-105.5 70.5t-128.5 26.5q-69 0 -130.5 -26.5t-106.5 -70.5t-70.5 -104.5t-25.5 -128.5v-467zM324 1819q0 30 21.5 50.5t51 32t62.5 16.5t57 5q29 0 64 -12
t80 -12q37 0 58.5 4t33.5 8t19 8t14 4q30 0 53.5 -22.5t23.5 -55.5q0 -30 -21.5 -49.5t-51 -31t-62.5 -16.5t-55 -5q-51 0 -115 20q-10 2 -30 2q-37 0 -58.5 -3t-34 -8t-18.5 -8t-12 -3q-31 0 -55.5 22.5t-24.5 53.5zM503 1692q17 10 37 10q25 0 45 -14l136 -99
q34 -24 34 -63q0 -33 -25.5 -55.5t-56.5 -22.5q-26 0 -43 14l-90 64l-88 -64q-20 -14 -43 -14q-33 0 -57.5 22.5t-24.5 55.5q0 39 35 63z" />
    <glyph glyph-name="uni1ED8" unicode="&#x1ed8;" horiz-adv-x="1095" 
d="M59 909q0 101 39 189t104.5 154.5t154.5 104.5t191 38q101 0 189 -38t154.5 -104.5t105.5 -154.5t39 -189v-467q0 -100 -39 -188t-104.5 -154.5t-154.5 -104.5t-190 -38q-100 0 -189 38t-155.5 104.5t-105.5 154.5t-39 188v467zM215 442q0 -67 26.5 -127.5t71.5 -104.5
t106.5 -70.5t128.5 -26.5q70 0 130.5 26.5t105.5 70.5t70.5 104.5t25.5 127.5v467q0 68 -26.5 128.5t-71.5 104.5t-105.5 70.5t-128.5 26.5q-69 0 -130.5 -26.5t-106.5 -70.5t-70.5 -104.5t-25.5 -128.5v-467zM456 -219q0 38 26.5 65t64.5 27q37 0 64.5 -27t27.5 -65
q0 -39 -26.5 -65.5t-65.5 -26.5q-36 0 -63.5 26.5t-27.5 65.5zM503 1692q16 10 37 10q24 0 45 -14l135 -99q35 -24 35 -63q0 -33 -25.5 -55.5t-56.5 -22.5q-27 0 -43 14l-90 64l-88 -64q-21 -14 -43 -14q-33 0 -57.5 22.5t-24.5 55.5q0 39 35 63z" />
    <glyph glyph-name="Ugrave" unicode="&#xd9;" horiz-adv-x="1107" 
d="M65 1274q0 33 22.5 55.5t55.5 22.5q31 0 54.5 -22.5t23.5 -55.5v-832q0 -67 26.5 -127.5t71.5 -104.5t106.5 -70.5t128.5 -26.5q70 0 130.5 26.5t105.5 70.5t70.5 104.5t25.5 127.5v832q0 33 22.5 55.5t55.5 22.5q31 0 54.5 -22.5t23.5 -55.5v-832q0 -100 -39 -188
t-104.5 -154.5t-154.5 -104.5t-190 -38q-100 0 -189 38t-155.5 104.5t-105.5 154.5t-39 188v832zM401 1673q-12 19 -12 41q0 31 22.5 53.5t56.5 22.5q43 0 66 -37l84 -145q10 -19 10 -41q0 -31 -21.5 -53.5t-56.5 -22.5q-45 0 -65 37z" />
    <glyph glyph-name="Uacute" unicode="&#xda;" horiz-adv-x="1107" 
d="M65 1274q0 33 22.5 55.5t55.5 22.5q31 0 54.5 -22.5t23.5 -55.5v-832q0 -67 26.5 -127.5t71.5 -104.5t106.5 -70.5t128.5 -26.5q70 0 130.5 26.5t105.5 70.5t70.5 104.5t25.5 127.5v832q0 33 22.5 55.5t55.5 22.5q31 0 54.5 -22.5t23.5 -55.5v-832q0 -100 -39 -188
t-104.5 -154.5t-154.5 -104.5t-190 -38q-100 0 -189 38t-155.5 104.5t-105.5 154.5t-39 188v832zM571 1755q20 37 65 37q35 0 56.5 -22.5t21.5 -53.5q0 -26 -10 -41l-84 -145q-23 -37 -66 -37q-34 0 -56.5 22.5t-22.5 53.5q0 18 12 41z" />
    <glyph glyph-name="uni1EE6" unicode="&#x1ee6;" horiz-adv-x="1107" 
d="M65 1274q0 33 22.5 55.5t55.5 22.5q31 0 54.5 -22.5t23.5 -55.5v-832q0 -67 26.5 -127.5t71.5 -104.5t106.5 -70.5t128.5 -26.5q70 0 130.5 26.5t105.5 70.5t70.5 104.5t25.5 127.5v832q0 33 22.5 55.5t55.5 22.5q31 0 54.5 -22.5t23.5 -55.5v-832q0 -100 -39 -188
t-104.5 -154.5t-154.5 -104.5t-190 -38q-100 0 -189 38t-155.5 104.5t-105.5 154.5t-39 188v832zM535 1554.5q24 13.5 50.5 13t41.5 6t27.5 19t20 30t7.5 36.5v0q0 21 -7.5 39t-18.5 29t-24.5 17t-27.5 6q-21 0 -40.5 -14.5t-30.5 -40.5q-6 -14 -22 -23t-35 -9
q-32 0 -46 16.5t-14 30.5q0 7 3 14q5 29 24.5 55t42.5 42.5t54 26t64 9.5q43 0 82.5 -17t68.5 -49.5t38.5 -64.5t9.5 -67q0 -31 -12.5 -62t-36 -57t-59.5 -44t-93 -18q-1 -31 -34 -34.5t-47.5 15.5t-12 50.5t26.5 45z" />
    <glyph glyph-name="Utilde" unicode="&#x168;" horiz-adv-x="1107" 
d="M65 1274q0 33 22.5 55.5t55.5 22.5q31 0 54.5 -22.5t23.5 -55.5v-832q0 -67 26.5 -127.5t71.5 -104.5t106.5 -70.5t128.5 -26.5q70 0 130.5 26.5t105.5 70.5t70.5 104.5t25.5 127.5v832q0 33 22.5 55.5t55.5 22.5q31 0 54.5 -22.5t23.5 -55.5v-832q0 -100 -39 -188
t-104.5 -154.5t-154.5 -104.5t-190 -38q-100 0 -189 38t-155.5 104.5t-105.5 154.5t-39 188v832zM304 1608q0 30 21.5 50.5t51.5 32t62.5 16.5t57.5 5q28 0 63 -12t80 -12q37 0 58.5 4t34 8t19.5 8t13 4q31 0 54.5 -22.5t23.5 -55.5q0 -30 -21.5 -49.5t-51.5 -31
t-62.5 -16.5t-55.5 -5q-51 0 -114 20q-11 2 -31 2q-37 0 -58.5 -3t-33.5 -8t-18.5 -8t-12.5 -3q-31 0 -55.5 22.5t-24.5 53.5z" />
    <glyph glyph-name="uni1EE4" unicode="&#x1ee4;" horiz-adv-x="1107" 
d="M65 1274q0 33 22.5 55.5t55.5 22.5q31 0 54.5 -22.5t23.5 -55.5v-832q0 -67 26.5 -127.5t71.5 -104.5t106.5 -70.5t128.5 -26.5q70 0 130.5 26.5t105.5 70.5t70.5 104.5t25.5 127.5v832q0 33 22.5 55.5t55.5 22.5q31 0 54.5 -22.5t23.5 -55.5v-832q0 -100 -39 -188
t-104.5 -154.5t-154.5 -104.5t-190 -38q-100 0 -189 38t-155.5 104.5t-105.5 154.5t-39 188v832zM462 -219q0 38 26.5 65t64.5 27q37 0 64.5 -27t27.5 -65q0 -39 -26.5 -65.5t-65.5 -26.5q-36 0 -63.5 26.5t-27.5 65.5z" />
    <glyph glyph-name="Uhorn" unicode="&#x1af;" horiz-adv-x="1107" 
d="M65 1274q0 33 22.5 55.5t55.5 22.5q31 0 54.5 -22.5t23.5 -55.5v-832q0 -67 26.5 -127.5t71.5 -104.5t106.5 -70.5t128.5 -26.5q70 0 130.5 26.5t105.5 70.5t70.5 104.5t25.5 127.5v832q0 33 22.5 55.5t55.5 22.5q31 0 54.5 -22.5t23.5 -55.5v-832q0 -100 -39 -188
t-104.5 -154.5t-154.5 -104.5t-190 -38q-100 0 -189 38t-155.5 104.5t-105.5 154.5t-39 188v832zM1074 1365q8 31 35.5 47t59.5 8q30 -8 47 -35.5t8 -59.5l-42 -162q-8 -32 -35.5 -48t-59.5 -8q-30 8 -47 35.5t-9 59.5z" />
    <glyph glyph-name="uni1EEA" unicode="&#x1eea;" horiz-adv-x="1107" 
d="M401 1673q-12 19 -12 41q0 31 22.5 53.5t56.5 22.5q43 0 66 -37l84 -145q10 -19 10 -41q0 -31 -21.5 -53.5t-56.5 -22.5q-45 0 -65 37zM1042 1139v-697q0 -100 -39 -188t-104.5 -154.5t-154.5 -104.5t-190 -38q-100 0 -189 38t-155.5 104.5t-105.5 154.5t-39 188v832
q0 33 22.5 55.5t55.5 22.5q31 0 54.5 -22.5t23.5 -55.5v-832q0 -67 26.5 -127.5t71.5 -104.5t106.5 -70.5t128.5 -26.5q70 0 130.5 26.5t105.5 70.5t70.5 104.5t25.5 127.5v832q0 33 22.5 55.5t55.5 22.5q31 0 54.5 -22.5t23.5 -55.5v-30l32 121q8 31 35.5 47t59.5 8
q30 -8 47 -35.5t8 -59.5l-42 -162q-8 -32 -35.5 -48t-59.5 -8q-28 8 -45 32z" />
    <glyph glyph-name="uni1EE8" unicode="&#x1ee8;" horiz-adv-x="1107" 
d="M571 1755q20 37 65 37q35 0 56.5 -22.5t21.5 -53.5q0 -26 -10 -41l-84 -145q-23 -37 -66 -37q-34 0 -56.5 22.5t-22.5 53.5q0 18 12 41zM1042 1139v-697q0 -100 -39 -188t-104.5 -154.5t-154.5 -104.5t-190 -38q-100 0 -189 38t-155.5 104.5t-105.5 154.5t-39 188v832
q0 33 22.5 55.5t55.5 22.5q31 0 54.5 -22.5t23.5 -55.5v-832q0 -67 26.5 -127.5t71.5 -104.5t106.5 -70.5t128.5 -26.5q70 0 130.5 26.5t105.5 70.5t70.5 104.5t25.5 127.5v832q0 33 22.5 55.5t55.5 22.5q31 0 54.5 -22.5t23.5 -55.5v-30l32 121q8 31 35.5 47t59.5 8
q30 -8 47 -35.5t8 -59.5l-42 -162q-8 -32 -35.5 -48t-59.5 -8q-28 8 -45 32z" />
    <glyph glyph-name="uni1EEC" unicode="&#x1eec;" horiz-adv-x="1107" 
d="M535 1554.5q24 13.5 50.5 13t41.5 6t27.5 19t20 30t7.5 36.5v0q0 21 -7.5 39t-18.5 29t-24.5 17t-27.5 6q-21 0 -40.5 -14.5t-30.5 -40.5q-6 -14 -22 -23t-35 -9q-32 0 -46 16.5t-14 30.5q0 7 3 14q5 29 24.5 55t42.5 42.5t54 26t64 9.5q43 0 82.5 -17t68.5 -49.5
t38.5 -64.5t9.5 -67q0 -31 -12.5 -62t-36 -57t-59.5 -44t-93 -18q-1 -31 -34 -34.5t-47.5 15.5t-12 50.5t26.5 45zM1042 1139v-697q0 -100 -39 -188t-104.5 -154.5t-154.5 -104.5t-190 -38q-100 0 -189 38t-155.5 104.5t-105.5 154.5t-39 188v832q0 33 22.5 55.5t55.5 22.5
q31 0 54.5 -22.5t23.5 -55.5v-832q0 -67 26.5 -127.5t71.5 -104.5t106.5 -70.5t128.5 -26.5q70 0 130.5 26.5t105.5 70.5t70.5 104.5t25.5 127.5v832q0 33 22.5 55.5t55.5 22.5q31 0 54.5 -22.5t23.5 -55.5v-30l32 121q8 31 35.5 47t59.5 8q30 -8 47 -35.5t8 -59.5l-42 -162
q-8 -32 -35.5 -48t-59.5 -8q-28 8 -45 32z" />
    <glyph glyph-name="uni1EEE" unicode="&#x1eee;" horiz-adv-x="1107" 
d="M304 1608q0 30 21.5 50.5t51.5 32t62.5 16.5t57.5 5q28 0 63 -12t80 -12q37 0 58.5 4t34 8t19.5 8t13 4q31 0 54.5 -22.5t23.5 -55.5q0 -30 -21.5 -49.5t-51.5 -31t-62.5 -16.5t-55.5 -5q-51 0 -114 20q-11 2 -31 2q-37 0 -58.5 -3t-33.5 -8t-18.5 -8t-12.5 -3
q-31 0 -55.5 22.5t-24.5 53.5zM1042 1139v-697q0 -100 -39 -188t-104.5 -154.5t-154.5 -104.5t-190 -38q-100 0 -189 38t-155.5 104.5t-105.5 154.5t-39 188v832q0 33 22.5 55.5t55.5 22.5q31 0 54.5 -22.5t23.5 -55.5v-832q0 -67 26.5 -127.5t71.5 -104.5t106.5 -70.5
t128.5 -26.5q70 0 130.5 26.5t105.5 70.5t70.5 104.5t25.5 127.5v832q0 33 22.5 55.5t55.5 22.5q31 0 54.5 -22.5t23.5 -55.5v-30l32 121q8 31 35.5 47t59.5 8q30 -8 47 -35.5t8 -59.5l-42 -162q-8 -32 -35.5 -48t-59.5 -8q-28 8 -45 32z" />
    <glyph glyph-name="uni1EF0" unicode="&#x1ef0;" horiz-adv-x="1107" 
d="M462 -219q0 38 26.5 65t64.5 27q37 0 64.5 -27t27.5 -65q0 -39 -26.5 -65.5t-65.5 -26.5q-36 0 -63.5 26.5t-27.5 65.5zM1042 1139v-697q0 -100 -39 -188t-104.5 -154.5t-154.5 -104.5t-190 -38q-100 0 -189 38t-155.5 104.5t-105.5 154.5t-39 188v832q0 33 22.5 55.5
t55.5 22.5q31 0 54.5 -22.5t23.5 -55.5v-832q0 -67 26.5 -127.5t71.5 -104.5t106.5 -70.5t128.5 -26.5q70 0 130.5 26.5t105.5 70.5t70.5 104.5t25.5 127.5v832q0 33 22.5 55.5t55.5 22.5q31 0 54.5 -22.5t23.5 -55.5v-30l32 121q8 31 35.5 47t59.5 8q30 -8 47 -35.5
t8 -59.5l-42 -162q-8 -32 -35.5 -48t-59.5 -8q-28 8 -45 32z" />
    <glyph glyph-name="Ohorn" unicode="&#x1a0;" horiz-adv-x="1095" 
d="M215 442q0 -67 26.5 -127.5t71.5 -104.5t106.5 -70.5t128.5 -26.5q70 0 130.5 26.5t105.5 70.5t70.5 104.5t25.5 127.5v467q0 68 -26.5 128.5t-71.5 104.5t-105.5 70.5t-128.5 26.5q-69 0 -130.5 -26.5t-106.5 -70.5t-70.5 -104.5t-25.5 -128.5v-467zM989 1115
q4 -9 8 -17q39 -88 39 -189v-467q0 -100 -39 -188t-104.5 -154.5t-154.5 -104.5t-190 -38q-100 0 -189 38t-155.5 104.5t-105.5 154.5t-39 188v467q0 101 39 189t104.5 154.5t154.5 104.5t191 38q101 0 189 -38t155 -104q32 -33 57 -70q1 9 3 19l42 163q9 31 36.5 47t58.5 8
q30 -8 47 -35.5t9 -59.5l-42 -162q-9 -32 -36.5 -48t-58.5 -8q-10 3 -19 8z" />
    <glyph glyph-name="uni1EDC" unicode="&#x1edc;" horiz-adv-x="1091" 
d="M215 442q0 -67 26.5 -127.5t71.5 -104.5t106.5 -70.5t128.5 -26.5q70 0 130.5 26.5t105.5 70.5t70.5 104.5t25.5 127.5v467q0 68 -26.5 128.5t-71.5 104.5t-105.5 70.5t-128.5 26.5q-69 0 -130.5 -26.5t-106.5 -70.5t-70.5 -104.5t-25.5 -128.5v-467zM387 1673
q-13 19 -13 41q0 31 22.5 53.5t57.5 22.5q43 0 66 -37l84 -145q10 -19 10 -41q0 -31 -21.5 -53.5t-56.5 -22.5q-45 0 -65 37zM989 1115q4 -9 8 -17q39 -88 39 -189v-467q0 -100 -39 -188t-104.5 -154.5t-154.5 -104.5t-190 -38q-100 0 -189 38t-155.5 104.5t-105.5 154.5
t-39 188v467q0 101 39 189t104.5 154.5t154.5 104.5t191 38q101 0 189 -38t155 -104q32 -33 57 -70q1 9 3 19l42 163q9 31 36.5 47t58.5 8q30 -8 47 -35.5t9 -59.5l-42 -162q-9 -32 -36.5 -48t-58.5 -8q-10 3 -19 8z" />
    <glyph glyph-name="uni1EDA" unicode="&#x1eda;" horiz-adv-x="1091" 
d="M215 442q0 -67 26.5 -127.5t71.5 -104.5t106.5 -70.5t128.5 -26.5q70 0 130.5 26.5t105.5 70.5t70.5 104.5t25.5 127.5v467q0 68 -26.5 128.5t-71.5 104.5t-105.5 70.5t-128.5 26.5q-69 0 -130.5 -26.5t-106.5 -70.5t-70.5 -104.5t-25.5 -128.5v-467zM567 1755
q20 37 65 37q35 0 56.5 -22.5t21.5 -53.5q0 -26 -10 -41l-84 -145q-22 -37 -65 -37q-35 0 -57.5 22.5t-22.5 53.5q0 18 12 41zM989 1115q4 -9 8 -17q39 -88 39 -189v-467q0 -100 -39 -188t-104.5 -154.5t-154.5 -104.5t-190 -38q-100 0 -189 38t-155.5 104.5t-105.5 154.5
t-39 188v467q0 101 39 189t104.5 154.5t154.5 104.5t191 38q101 0 189 -38t155 -104q32 -33 57 -70q1 9 3 19l42 163q9 31 36.5 47t58.5 8q30 -8 47 -35.5t9 -59.5l-42 -162q-9 -32 -36.5 -48t-58.5 -8q-10 3 -19 8z" />
    <glyph glyph-name="uni1EDE" unicode="&#x1ede;" horiz-adv-x="1095" 
d="M215 442q0 -67 26.5 -127.5t71.5 -104.5t106.5 -70.5t128.5 -26.5q70 0 130.5 26.5t105.5 70.5t70.5 104.5t25.5 127.5v467q0 68 -26.5 128.5t-71.5 104.5t-105.5 70.5t-128.5 26.5q-69 0 -130.5 -26.5t-106.5 -70.5t-70.5 -104.5t-25.5 -128.5v-467zM495 1554.5
q24 13.5 51 13t41.5 6t27 19t20.5 30t8 36.5v0q0 21 -7.5 39t-19 29t-25 17t-26.5 6q-22 0 -41 -14.5t-31 -40.5q-6 -14 -21.5 -23t-35.5 -9q-32 0 -45.5 16.5t-13.5 30.5q0 7 2 14q5 29 25 55t43 42.5t54 26t64 9.5q43 0 82 -17t68.5 -49.5t39 -64.5t9.5 -67
q0 -31 -12.5 -62t-36 -57t-60 -44t-93.5 -18q0 -31 -33.5 -34.5t-47.5 15.5t-12 50.5t26 45zM989 1115q4 -9 8 -17q39 -88 39 -189v-467q0 -100 -39 -188t-104.5 -154.5t-154.5 -104.5t-190 -38q-100 0 -189 38t-155.5 104.5t-105.5 154.5t-39 188v467q0 101 39 189
t104.5 154.5t154.5 104.5t191 38q101 0 189 -38t155 -104q32 -33 57 -70q1 9 3 19l42 163q9 31 36.5 47t58.5 8q30 -8 47 -35.5t9 -59.5l-42 -162q-9 -32 -36.5 -48t-58.5 -8q-10 3 -19 8z" />
    <glyph glyph-name="uni1EE0" unicode="&#x1ee0;" horiz-adv-x="1091" 
d="M215 442q0 -67 26.5 -127.5t71.5 -104.5t106.5 -70.5t128.5 -26.5q70 0 130.5 26.5t105.5 70.5t70.5 104.5t25.5 127.5v467q0 68 -26.5 128.5t-71.5 104.5t-105.5 70.5t-128.5 26.5q-69 0 -130.5 -26.5t-106.5 -70.5t-70.5 -104.5t-25.5 -128.5v-467zM264 1608
q0 30 21.5 50.5t51 32t62.5 16.5t57 5q29 0 64 -12t80 -12q37 0 58.5 4t33.5 8t19 8t14 4q30 0 53.5 -22.5t23.5 -55.5q0 -30 -21.5 -49.5t-51 -31t-62.5 -16.5t-55 -5q-51 0 -115 20q-10 2 -30 2q-37 0 -58.5 -3t-34 -8t-18.5 -8t-12 -3q-31 0 -55.5 22.5t-24.5 53.5z
M989 1115q4 -9 8 -17q39 -88 39 -189v-467q0 -100 -39 -188t-104.5 -154.5t-154.5 -104.5t-190 -38q-100 0 -189 38t-155.5 104.5t-105.5 154.5t-39 188v467q0 101 39 189t104.5 154.5t154.5 104.5t191 38q101 0 189 -38t155 -104q32 -33 57 -70q1 9 3 19l42 163
q9 31 36.5 47t58.5 8q30 -8 47 -35.5t9 -59.5l-42 -162q-9 -32 -36.5 -48t-58.5 -8q-10 3 -19 8z" />
    <glyph glyph-name="uni1EE2" unicode="&#x1ee2;" horiz-adv-x="1095" 
d="M215 442q0 -67 26.5 -127.5t71.5 -104.5t106.5 -70.5t128.5 -26.5q70 0 130.5 26.5t105.5 70.5t70.5 104.5t25.5 127.5v467q0 68 -26.5 128.5t-71.5 104.5t-105.5 70.5t-128.5 26.5q-69 0 -130.5 -26.5t-106.5 -70.5t-70.5 -104.5t-25.5 -128.5v-467zM456 -219
q0 38 26.5 65t64.5 27q37 0 64.5 -27t27.5 -65q0 -39 -26.5 -65.5t-65.5 -26.5q-36 0 -63.5 26.5t-27.5 65.5zM989 1115q4 -9 8 -17q39 -88 39 -189v-467q0 -100 -39 -188t-104.5 -154.5t-154.5 -104.5t-190 -38q-100 0 -189 38t-155.5 104.5t-105.5 154.5t-39 188v467
q0 101 39 189t104.5 154.5t154.5 104.5t191 38q101 0 189 -38t155 -104q32 -33 57 -70q1 9 3 19l42 163q9 31 36.5 47t58.5 8q30 -8 47 -35.5t9 -59.5l-42 -162q-9 -32 -36.5 -48t-58.5 -8q-10 3 -19 8z" />
    <glyph glyph-name="Ygrave" unicode="&#x1ef2;" horiz-adv-x="1058" 
d="M40 1274q0 33 22.5 55.5t55.5 22.5q31 0 54.5 -22.5t23.5 -55.5v-400q0 -67 26.5 -127.5t71.5 -104.5t106.5 -70.5t128.5 -26.5q70 0 130.5 26.5t105.5 70.5t70.5 104.5t25.5 127.5v400q0 33 22.5 55.5t55.5 22.5q31 0 54.5 -22.5t23.5 -55.5v-400q0 -90 -32 -170.5
t-87 -144t-130 -106.5t-161 -58v-317q0 -33 -22.5 -55.5t-55.5 -22.5q-30 0 -53.5 22.5t-23.5 55.5v317q-86 15 -162 58t-131.5 106.5t-87 144t-31.5 170.5v400zM400 1673q-12 19 -12 41q0 31 22.5 53.5t56.5 22.5q44 0 66 -37l84 -145q10 -19 10 -41q0 -31 -21.5 -53.5
t-56.5 -22.5q-45 0 -65 37z" />
    <glyph glyph-name="Yacute" unicode="&#xdd;" horiz-adv-x="1058" 
d="M40 1274q0 33 22.5 55.5t55.5 22.5q31 0 54.5 -22.5t23.5 -55.5v-400q0 -67 26.5 -127.5t71.5 -104.5t106.5 -70.5t128.5 -26.5q70 0 130.5 26.5t105.5 70.5t70.5 104.5t25.5 127.5v400q0 33 22.5 55.5t55.5 22.5q31 0 54.5 -22.5t23.5 -55.5v-400q0 -90 -32 -170.5
t-87 -144t-130 -106.5t-161 -58v-317q0 -33 -22.5 -55.5t-55.5 -22.5q-30 0 -53.5 22.5t-23.5 55.5v317q-86 15 -162 58t-131.5 106.5t-87 144t-31.5 170.5v400zM550 1757q20 37 65 37q35 0 56.5 -22.5t21.5 -53.5q0 -26 -10 -41l-84 -145q-22 -37 -65 -37q-35 0 -57.5 22.5
t-22.5 53.5q0 18 12 41z" />
    <glyph glyph-name="uni1EF6" unicode="&#x1ef6;" horiz-adv-x="1058" 
d="M40 1274q0 33 22.5 55.5t55.5 22.5q31 0 54.5 -22.5t23.5 -55.5v-400q0 -67 26.5 -127.5t71.5 -104.5t106.5 -70.5t128.5 -26.5q70 0 130.5 26.5t105.5 70.5t70.5 104.5t25.5 127.5v400q0 33 22.5 55.5t55.5 22.5q31 0 54.5 -22.5t23.5 -55.5v-400q0 -90 -32 -170.5
t-87 -144t-130 -106.5t-161 -58v-317q0 -33 -22.5 -55.5t-55.5 -22.5q-30 0 -53.5 22.5t-23.5 55.5v317q-86 15 -162 58t-131.5 106.5t-87 144t-31.5 170.5v400zM494 1554.5q24 13.5 51 13t41.5 6t27 19t20.5 30t8 36.5v0q0 21 -7.5 39t-19 29t-25 17t-26.5 6
q-22 0 -41 -14.5t-31 -40.5q-6 -14 -21.5 -23t-35.5 -9q-32 0 -45.5 16.5t-13.5 30.5q0 7 2 14q5 29 25 55t43 42.5t54 26t64 9.5q43 0 82 -17t68.5 -49.5t39 -64.5t9.5 -67q0 -31 -12.5 -62t-36 -57t-59.5 -44t-94 -18q0 -31 -33 -34.5t-47.5 15.5t-12.5 50.5t26 45z" />
    <glyph glyph-name="uni1EF8" unicode="&#x1ef8;" horiz-adv-x="1058" 
d="M40 1274q0 33 22.5 55.5t55.5 22.5q31 0 54.5 -22.5t23.5 -55.5v-400q0 -67 26.5 -127.5t71.5 -104.5t106.5 -70.5t128.5 -26.5q70 0 130.5 26.5t105.5 70.5t70.5 104.5t25.5 127.5v400q0 33 22.5 55.5t55.5 22.5q31 0 54.5 -22.5t23.5 -55.5v-400q0 -90 -32 -170.5
t-87 -144t-130 -106.5t-161 -58v-317q0 -33 -22.5 -55.5t-55.5 -22.5q-30 0 -53.5 22.5t-23.5 55.5v317q-86 15 -162 58t-131.5 106.5t-87 144t-31.5 170.5v400zM263 1608q0 30 21.5 50.5t51 32t62.5 16.5t57 5q29 0 64 -12t80 -12q37 0 58.5 4t33.5 8t19 8t14 4
q30 0 53.5 -22.5t23.5 -55.5q0 -30 -21.5 -49.5t-51 -31t-62 -16.5t-55.5 -5q-51 0 -115 20q-10 2 -30 2q-37 0 -58.5 -3t-34 -8t-18.5 -8t-12 -3q-31 0 -55.5 22.5t-24.5 53.5z" />
    <glyph glyph-name="uni1EF4" unicode="&#x1ef4;" horiz-adv-x="1058" 
d="M40 1274q0 33 22.5 55.5t55.5 22.5q31 0 54.5 -22.5t23.5 -55.5v-400q0 -67 26.5 -127.5t71.5 -104.5t106.5 -70.5t128.5 -26.5q70 0 130.5 26.5t105.5 70.5t70.5 104.5t25.5 127.5v400q0 33 22.5 55.5t55.5 22.5q31 0 54.5 -22.5t23.5 -55.5v-400q0 -90 -32 -170.5
t-87 -144t-130 -106.5t-161 -58v-317q0 -33 -22.5 -55.5t-55.5 -22.5q-30 0 -53.5 22.5t-23.5 55.5v317q-86 15 -162 58t-131.5 106.5t-87 144t-31.5 170.5v400zM437 -219q0 38 26.5 65t64.5 27q37 0 64.5 -27t27.5 -65q0 -39 -26.5 -65.5t-65.5 -26.5q-36 0 -63.5 26.5
t-27.5 65.5z" />
    <glyph glyph-name="agrave" unicode="&#xe0;" horiz-adv-x="864" 
d="M57 655q0 76 28.5 143.5t80 118t118 79t144.5 28.5q75 0 143 -28.5t118 -79t79.5 -118t29.5 -143.5v-577q0 -33 -23.5 -55.5t-53.5 -22.5q-29 0 -50.5 17.5t-25.5 43.5q-94 -69 -217 -69q-76 0 -143.5 28.5t-118 79t-80 118t-29.5 142.5v295zM213 360q0 -43 17 -81.5
t46 -68.5t69 -46.5t83 -16.5t82 15.5t67.5 43t46 64.5t19.5 80v305q0 43 -17.5 82t-46 69t-68.5 46t-83 16q-45 0 -84 -16t-69 -46t-46 -69t-16 -82v-295zM266 1325q-12 18 -12 41q0 31 22.5 53.5t56.5 22.5q43 0 66 -37l84 -145q10 -19 10 -41q0 -31 -21.5 -53.5
t-56.5 -22.5q-45 0 -65 37z" />
    <glyph glyph-name="aacute" unicode="&#xe1;" horiz-adv-x="864" 
d="M57 655q0 76 28.5 143.5t80 118t118 79t144.5 28.5q75 0 143 -28.5t118 -79t79.5 -118t29.5 -143.5v-577q0 -33 -23.5 -55.5t-53.5 -22.5q-29 0 -50.5 17.5t-25.5 43.5q-94 -69 -217 -69q-76 0 -143.5 28.5t-118 79t-80 118t-29.5 142.5v295zM213 360q0 -43 17 -81.5
t46 -68.5t69 -46.5t83 -16.5t82 15.5t67.5 43t46 64.5t19.5 80v305q0 43 -17.5 82t-46 69t-68.5 46t-83 16q-45 0 -84 -16t-69 -46t-46 -69t-16 -82v-295zM458 1405q21 37 66 37q35 0 56.5 -22.5t21.5 -53.5q0 -27 -10 -41l-84 -145q-23 -37 -66 -37q-35 0 -57.5 22.5
t-22.5 53.5q0 18 12 41z" />
    <glyph glyph-name="uni1EA3" unicode="&#x1ea3;" horiz-adv-x="864" 
d="M57 655q0 76 28.5 143.5t80 118t118 79t144.5 28.5q75 0 143 -28.5t118 -79t79.5 -118t29.5 -143.5v-577q0 -33 -23.5 -55.5t-53.5 -22.5q-29 0 -50.5 17.5t-25.5 43.5q-94 -69 -217 -69q-76 0 -143.5 28.5t-118 79t-80 118t-29.5 142.5v295zM213 360q0 -43 17 -81.5
t46 -68.5t69 -46.5t83 -16.5t82 15.5t67.5 43t46 64.5t19.5 80v305q0 43 -17.5 82t-46 69t-68.5 46t-83 16q-45 0 -84 -16t-69 -46t-46 -69t-16 -82v-295zM374 1203.5q24 13.5 50.5 13t41.5 6t27.5 19t20.5 30t8 36.5v0q0 21 -7.5 39t-19 29t-25 17t-27.5 6
q-21 0 -40.5 -14.5t-30.5 -40.5q-6 -14 -21.5 -23t-35.5 -9q-32 0 -46 16.5t-14 30.5q0 7 3 14q5 29 25 55t43 42.5t53.5 26t63.5 9.5q43 0 82.5 -17t68.5 -49.5t38.5 -64.5t9.5 -67q0 -31 -12 -62t-35.5 -57t-60 -44t-93.5 -18q-1 -31 -34 -34.5t-47.5 15.5t-12 50.5
t26.5 45z" />
    <glyph glyph-name="atilde" unicode="&#xe3;" horiz-adv-x="864" 
d="M57 655q0 76 28.5 143.5t80 118t118 79t144.5 28.5q75 0 143 -28.5t118 -79t79.5 -118t29.5 -143.5v-577q0 -33 -23.5 -55.5t-53.5 -22.5q-29 0 -50.5 17.5t-25.5 43.5q-94 -69 -217 -69q-76 0 -143.5 28.5t-118 79t-80 118t-29.5 142.5v295zM213 360q0 -43 17 -81.5
t46 -68.5t69 -46.5t83 -16.5t82 15.5t67.5 43t46 64.5t19.5 80v305q0 43 -17.5 82t-46 69t-68.5 46t-83 16q-45 0 -84 -16t-69 -46t-46 -69t-16 -82v-295zM151 1270q0 30 21.5 50.5t51.5 32t62.5 16.5t57.5 5q28 0 63 -12t80 -12q37 0 58.5 4t34 8t19.5 8t13 4
q31 0 54.5 -22.5t23.5 -55.5q0 -30 -21.5 -49.5t-51.5 -31t-62.5 -16.5t-55.5 -5q-51 0 -114 20q-11 3 -31 3q-37 0 -58.5 -3.5t-33.5 -8.5t-18.5 -8t-12.5 -3q-31 0 -55.5 22.5t-24.5 53.5z" />
    <glyph glyph-name="uni1EA1" unicode="&#x1ea1;" horiz-adv-x="864" 
d="M57 655q0 76 28.5 143.5t80 118t118 79t144.5 28.5q75 0 143 -28.5t118 -79t79.5 -118t29.5 -143.5v-577q0 -33 -23.5 -55.5t-53.5 -22.5q-29 0 -50.5 17.5t-25.5 43.5q-94 -69 -217 -69q-76 0 -143.5 28.5t-118 79t-80 118t-29.5 142.5v295zM213 360q0 -43 17 -81.5
t46 -68.5t69 -46.5t83 -16.5t82 15.5t67.5 43t46 64.5t19.5 80v305q0 43 -17.5 82t-46 69t-68.5 46t-83 16q-45 0 -84 -16t-69 -46t-46 -69t-16 -82v-295zM336 -219q0 38 26.5 65t65.5 27q36 0 63.5 -27t27.5 -65q0 -39 -26.5 -65.5t-64.5 -26.5q-37 0 -64.5 26.5
t-27.5 65.5z" />
    <glyph glyph-name="acircumflex" unicode="&#xe2;" horiz-adv-x="864" 
d="M57 655q0 76 28.5 143.5t80 118t118 79t144.5 28.5q75 0 143 -28.5t118 -79t79.5 -118t29.5 -143.5v-577q0 -33 -23.5 -55.5t-53.5 -22.5q-29 0 -50.5 17.5t-25.5 43.5q-94 -69 -217 -69q-76 0 -143.5 28.5t-118 79t-80 118t-29.5 142.5v295zM213 360q0 -43 17 -81.5
t46 -68.5t69 -46.5t83 -16.5t82 15.5t67.5 43t46 64.5t19.5 80v305q0 43 -17.5 82t-46 69t-68.5 46t-83 16q-45 0 -84 -16t-69 -46t-46 -69t-16 -82v-295zM389 1343q16 11 37 11q24 0 45 -15l135 -98q35 -24 35 -63q0 -33 -26 -55.5t-56 -22.5q-27 0 -43 14l-90 64l-88 -64
q-21 -14 -43 -14q-33 0 -57.5 22.5t-24.5 55.5q0 39 34 63z" />
    <glyph glyph-name="uni1EA7" unicode="&#x1ea7;" horiz-adv-x="864" 
d="M57 655q0 76 28.5 143.5t80 118t118 79t144.5 28.5q75 0 143 -28.5t118 -79t79.5 -118t29.5 -143.5v-577q0 -33 -23.5 -55.5t-53.5 -22.5q-29 0 -50.5 17.5t-25.5 43.5q-94 -69 -217 -69q-76 0 -143.5 28.5t-118 79t-80 118t-29.5 142.5v295zM213 360q0 -43 17 -81.5
t46 -68.5t69 -46.5t83 -16.5t82 15.5t67.5 43t46 64.5t19.5 80v305q0 43 -17.5 82t-46 69t-68.5 46t-83 16q-45 0 -84 -16t-69 -46t-46 -69t-16 -82v-295zM447 1506q-12 18 -12 41q0 31 22.5 53.5t56.5 22.5q43 0 66 -37l84 -145q10 -19 10 -41q0 -31 -21.5 -53.5
t-56.5 -22.5q-45 0 -65 37zM389 1343q16 11 37 11q24 0 45 -15l135 -98q35 -24 35 -63q0 -33 -26 -55.5t-56 -22.5q-27 0 -43 14l-90 64l-88 -64q-21 -14 -43 -14q-33 0 -57.5 22.5t-24.5 55.5q0 39 34 63z" />
    <glyph glyph-name="uni1EA5" unicode="&#x1ea5;" horiz-adv-x="864" 
d="M57 655q0 76 28.5 143.5t80 118t118 79t144.5 28.5q75 0 143 -28.5t118 -79t79.5 -118t29.5 -143.5v-577q0 -33 -23.5 -55.5t-53.5 -22.5q-29 0 -50.5 17.5t-25.5 43.5q-94 -69 -217 -69q-76 0 -143.5 28.5t-118 79t-80 118t-29.5 142.5v295zM213 360q0 -43 17 -81.5
t46 -68.5t69 -46.5t83 -16.5t82 15.5t67.5 43t46 64.5t19.5 80v305q0 43 -17.5 82t-46 69t-68.5 46t-83 16q-45 0 -84 -16t-69 -46t-46 -69t-16 -82v-295zM639 1586q21 37 66 37q35 0 56.5 -22.5t21.5 -53.5q0 -27 -10 -41l-84 -145q-23 -37 -66 -37q-35 0 -57.5 22.5
t-22.5 53.5q0 18 12 41zM389 1343q16 11 37 11q24 0 45 -15l135 -98q35 -24 35 -63q0 -33 -26 -55.5t-56 -22.5q-27 0 -43 14l-90 64l-88 -64q-21 -14 -43 -14q-33 0 -57.5 22.5t-24.5 55.5q0 39 34 63z" />
    <glyph glyph-name="uni1EA9" unicode="&#x1ea9;" horiz-adv-x="864" 
d="M57 655q0 76 28.5 143.5t80 118t118 79t144.5 28.5q75 0 143 -28.5t118 -79t79.5 -118t29.5 -143.5v-577q0 -33 -23.5 -55.5t-53.5 -22.5q-29 0 -50.5 17.5t-25.5 43.5q-94 -69 -217 -69q-76 0 -143.5 28.5t-118 79t-80 118t-29.5 142.5v295zM213 360q0 -43 17 -81.5
t46 -68.5t69 -46.5t83 -16.5t82 15.5t67.5 43t46 64.5t19.5 80v305q0 43 -17.5 82t-46 69t-68.5 46t-83 16q-45 0 -84 -16t-69 -46t-46 -69t-16 -82v-295zM575 1414.5q24 13.5 50.5 13t41.5 6t27.5 19t20.5 30t8 36.5v0q0 21 -7.5 39t-19 29t-25 17t-27.5 6
q-21 0 -40.5 -14.5t-30.5 -40.5q-6 -14 -21.5 -23t-35.5 -9q-32 0 -46 16.5t-14 30.5q0 7 3 14q5 29 25 55t43 42.5t53.5 26t63.5 9.5q43 0 82.5 -17t68.5 -49.5t38.5 -64.5t9.5 -67q0 -31 -12 -62t-35.5 -57t-60 -44t-93.5 -18q-1 -31 -34 -34.5t-47.5 15.5t-12 50.5
t26.5 45zM388 1343q17 11 37 11q25 0 45 -15l136 -98q34 -24 34 -63q0 -33 -25.5 -55.5t-56.5 -22.5q-26 0 -43 14l-90 64l-88 -64q-20 -14 -43 -14q-33 0 -57.5 22.5t-24.5 55.5q0 39 35 63z" />
    <glyph glyph-name="uni1EAB" unicode="&#x1eab;" horiz-adv-x="864" 
d="M57 655q0 76 28.5 143.5t80 118t118 79t144.5 28.5q75 0 143 -28.5t118 -79t79.5 -118t29.5 -143.5v-577q0 -33 -23.5 -55.5t-53.5 -22.5q-29 0 -50.5 17.5t-25.5 43.5q-94 -69 -217 -69q-76 0 -143.5 28.5t-118 79t-80 118t-29.5 142.5v295zM213 360q0 -43 17 -81.5
t46 -68.5t69 -46.5t83 -16.5t82 15.5t67.5 43t46 64.5t19.5 80v305q0 43 -17.5 82t-46 69t-68.5 46t-83 16q-45 0 -84 -16t-69 -46t-46 -69t-16 -82v-295zM211 1451q0 30 21.5 50.5t51.5 32t62.5 16.5t57.5 5q28 0 63 -12t80 -12q37 0 58.5 4t34 8t19.5 8t13 4
q31 0 54.5 -22.5t23.5 -55.5q0 -30 -21.5 -49.5t-51.5 -31t-62.5 -16.5t-55.5 -5q-51 0 -114 20q-11 3 -31 3q-37 0 -58.5 -3.5t-33.5 -8.5t-18.5 -8t-12.5 -3q-31 0 -55.5 22.5t-24.5 53.5zM389 1343q16 11 37 11q24 0 45 -15l135 -98q35 -24 35 -63q0 -33 -26 -55.5
t-56 -22.5q-27 0 -43 14l-90 64l-88 -64q-21 -14 -43 -14q-33 0 -57.5 22.5t-24.5 55.5q0 39 34 63z" />
    <glyph glyph-name="uni1EAD" unicode="&#x1ead;" horiz-adv-x="864" 
d="M57 655q0 76 28.5 143.5t80 118t118 79t144.5 28.5q75 0 143 -28.5t118 -79t79.5 -118t29.5 -143.5v-577q0 -33 -23.5 -55.5t-53.5 -22.5q-29 0 -50.5 17.5t-25.5 43.5q-94 -69 -217 -69q-76 0 -143.5 28.5t-118 79t-80 118t-29.5 142.5v295zM213 360q0 -43 17 -81.5
t46 -68.5t69 -46.5t83 -16.5t82 15.5t67.5 43t46 64.5t19.5 80v305q0 43 -17.5 82t-46 69t-68.5 46t-83 16q-45 0 -84 -16t-69 -46t-46 -69t-16 -82v-295zM336 -219q0 38 26.5 65t65.5 27q36 0 63.5 -27t27.5 -65q0 -39 -26.5 -65.5t-64.5 -26.5q-37 0 -64.5 26.5
t-27.5 65.5zM388 1343q17 11 37 11q25 0 45 -15l136 -98q34 -24 34 -63q0 -33 -25.5 -55.5t-56.5 -22.5q-26 0 -43 14l-90 64l-88 -64q-20 -14 -43 -14q-33 0 -57.5 22.5t-24.5 55.5q0 39 35 63z" />
    <glyph glyph-name="abreve" unicode="&#x103;" horiz-adv-x="864" 
d="M57 655q0 76 28.5 143.5t80 118t118 79t144.5 28.5q75 0 143 -28.5t118 -79t79.5 -118t29.5 -143.5v-577q0 -33 -23.5 -55.5t-53.5 -22.5q-29 0 -50.5 17.5t-25.5 43.5q-94 -69 -217 -69q-76 0 -143.5 28.5t-118 79t-80 118t-29.5 142.5v295zM213 360q0 -43 17 -81.5
t46 -68.5t69 -46.5t83 -16.5t82 15.5t67.5 43t46 64.5t19.5 80v305q0 43 -17.5 82t-46 69t-68.5 46t-83 16q-45 0 -84 -16t-69 -46t-46 -69t-16 -82v-295zM247 1188q-35 24 -35 63q0 33 24.5 55.5t57.5 22.5q22 0 43 -14q88 -120 178 0q16 14 43 14q31 0 56.5 -22.5
t25.5 -55.5q0 -39 -35 -63q-86 -85 -181.5 -85.5t-176.5 85.5z" />
    <glyph glyph-name="uni1EB1" unicode="&#x1eb1;" horiz-adv-x="864" 
d="M57 655q0 76 28.5 143.5t80 118t118 79t144.5 28.5q75 0 143 -28.5t118 -79t79.5 -118t29.5 -143.5v-577q0 -33 -23.5 -55.5t-53.5 -22.5q-29 0 -50.5 17.5t-25.5 43.5q-94 -69 -217 -69q-76 0 -143.5 28.5t-118 79t-80 118t-29.5 142.5v295zM213 360q0 -43 17 -81.5
t46 -68.5t69 -46.5t83 -16.5t82 15.5t67.5 43t46 64.5t19.5 80v305q0 43 -17.5 82t-46 69t-68.5 46t-83 16q-45 0 -84 -16t-69 -46t-46 -69t-16 -82v-295zM287 1526q-12 18 -12 41q0 31 22.5 53.5t56.5 22.5q43 0 66 -37l84 -145q10 -19 10 -41q0 -31 -21.5 -53.5
t-56.5 -22.5q-45 0 -65 37zM247 1188q-35 24 -35 63q0 33 24.5 55.5t57.5 22.5q22 0 43 -14q88 -120 178 0q16 14 43 14q31 0 56.5 -22.5t25.5 -55.5q0 -39 -35 -63q-86 -85 -181.5 -85.5t-176.5 85.5z" />
    <glyph glyph-name="uni1EAF" unicode="&#x1eaf;" horiz-adv-x="864" 
d="M57 655q0 76 28.5 143.5t80 118t118 79t144.5 28.5q75 0 143 -28.5t118 -79t79.5 -118t29.5 -143.5v-577q0 -33 -23.5 -55.5t-53.5 -22.5q-29 0 -50.5 17.5t-25.5 43.5q-94 -69 -217 -69q-76 0 -143.5 28.5t-118 79t-80 118t-29.5 142.5v295zM213 360q0 -43 17 -81.5
t46 -68.5t69 -46.5t83 -16.5t82 15.5t67.5 43t46 64.5t19.5 80v305q0 43 -17.5 82t-46 69t-68.5 46t-83 16q-45 0 -84 -16t-69 -46t-46 -69t-16 -82v-295zM469 1586q21 37 66 37q35 0 56.5 -22.5t21.5 -53.5q0 -27 -10 -41l-84 -145q-23 -37 -66 -37q-35 0 -57.5 22.5
t-22.5 53.5q0 18 12 41zM247 1188q-35 24 -35 63q0 33 24.5 55.5t57.5 22.5q22 0 43 -14q88 -120 178 0q16 14 43 14q31 0 56.5 -22.5t25.5 -55.5q0 -39 -35 -63q-86 -85 -181.5 -85.5t-176.5 85.5z" />
    <glyph glyph-name="uni1EB3" unicode="&#x1eb3;" horiz-adv-x="864" 
d="M57 655q0 76 28.5 143.5t80 118t118 79t144.5 28.5q75 0 143 -28.5t118 -79t79.5 -118t29.5 -143.5v-577q0 -33 -23.5 -55.5t-53.5 -22.5q-29 0 -50.5 17.5t-25.5 43.5q-94 -69 -217 -69q-76 0 -143.5 28.5t-118 79t-80 118t-29.5 142.5v295zM213 360q0 -43 17 -81.5
t46 -68.5t69 -46.5t83 -16.5t82 15.5t67.5 43t46 64.5t19.5 80v305q0 43 -17.5 82t-46 69t-68.5 46t-83 16q-45 0 -84 -16t-69 -46t-46 -69t-16 -82v-295zM394 1424.5q24 13.5 50.5 13t41.5 6t27.5 19t20.5 30t8 36.5v0q0 21 -7.5 39t-19 29t-25 17t-27.5 6
q-21 0 -40.5 -14.5t-30.5 -40.5q-6 -14 -21.5 -23t-35.5 -9q-32 0 -46 16.5t-14 30.5q0 7 3 14q5 29 25 55t43 42.5t53.5 26t63.5 9.5q43 0 82.5 -17t68.5 -49.5t38.5 -64.5t9.5 -67q0 -31 -12 -62t-35.5 -57t-60 -44t-93.5 -18q-1 -31 -34 -34.5t-47.5 15.5t-12 50.5
t26.5 45zM246 1188q-34 24 -34 63q0 33 24.5 55.5t57.5 22.5q22 0 43 -14q88 -120 178 0q16 14 43 14q30 0 56 -22.5t26 -55.5q0 -39 -35 -63q-87 -85 -182 -85.5t-177 85.5z" />
    <glyph glyph-name="uni1EB5" unicode="&#x1eb5;" horiz-adv-x="864" 
d="M57 655q0 76 28.5 143.5t80 118t118 79t144.5 28.5q75 0 143 -28.5t118 -79t79.5 -118t29.5 -143.5v-577q0 -33 -23.5 -55.5t-53.5 -22.5q-29 0 -50.5 17.5t-25.5 43.5q-94 -69 -217 -69q-76 0 -143.5 28.5t-118 79t-80 118t-29.5 142.5v295zM213 360q0 -43 17 -81.5
t46 -68.5t69 -46.5t83 -16.5t82 15.5t67.5 43t46 64.5t19.5 80v305q0 43 -17.5 82t-46 69t-68.5 46t-83 16q-45 0 -84 -16t-69 -46t-46 -69t-16 -82v-295zM211 1451q0 30 21.5 50.5t51.5 32t62.5 16.5t57.5 5q28 0 63 -12t80 -12q37 0 58.5 4t34 8t19.5 8t13 4
q31 0 54.5 -22.5t23.5 -55.5q0 -30 -21.5 -49.5t-51.5 -31t-62.5 -16.5t-55.5 -5q-51 0 -114 20q-11 3 -31 3q-37 0 -58.5 -3.5t-33.5 -8.5t-18.5 -8t-12.5 -3q-31 0 -55.5 22.5t-24.5 53.5zM247 1188q-35 24 -35 63q0 33 24.5 55.5t57.5 22.5q22 0 43 -14q88 -120 178 0
q16 14 43 14q31 0 56.5 -22.5t25.5 -55.5q0 -39 -35 -63q-86 -85 -181.5 -85.5t-176.5 85.5z" />
    <glyph glyph-name="uni1EB7" unicode="&#x1eb7;" horiz-adv-x="864" 
d="M57 655q0 76 28.5 143.5t80 118t118 79t144.5 28.5q75 0 143 -28.5t118 -79t79.5 -118t29.5 -143.5v-577q0 -33 -23.5 -55.5t-53.5 -22.5q-29 0 -50.5 17.5t-25.5 43.5q-94 -69 -217 -69q-76 0 -143.5 28.5t-118 79t-80 118t-29.5 142.5v295zM213 360q0 -43 17 -81.5
t46 -68.5t69 -46.5t83 -16.5t82 15.5t67.5 43t46 64.5t19.5 80v305q0 43 -17.5 82t-46 69t-68.5 46t-83 16q-45 0 -84 -16t-69 -46t-46 -69t-16 -82v-295zM336 -219q0 38 26.5 65t65.5 27q36 0 63.5 -27t27.5 -65q0 -39 -26.5 -65.5t-64.5 -26.5q-37 0 -64.5 26.5
t-27.5 65.5zM246 1188q-34 24 -34 63q0 33 24.5 55.5t57.5 22.5q22 0 43 -14q88 -120 178 0q16 14 43 14q30 0 56 -22.5t26 -55.5q0 -39 -35 -63q-87 -85 -182 -85.5t-177 85.5z" />
    <glyph glyph-name="egrave" unicode="&#xe8;" horiz-adv-x="851" 
d="M57 655q0 76 28.5 143.5t80 118t118 79t144.5 28.5q75 0 143 -28.5t118 -79t79.5 -118t29.5 -143.5v-147q0 -33 -22.5 -55.5t-54.5 -22.5h-508v-70q0 -43 17 -81.5t46 -68.5t69 -46.5t83 -16.5q65 0 117.5 34t78.5 91l2 7q9 22 28 35.5t44 13.5q33 0 55.5 -23.5
t22.5 -54.5q0 -14 -6 -29l-4 -8q-43 -98 -133.5 -159.5t-204.5 -61.5q-76 0 -143.5 28.5t-118 79t-80 118t-29.5 142.5v295zM213 586h430v69q0 43 -17.5 82t-46 69t-68.5 46t-83 16q-45 0 -84 -16t-69 -46t-46 -69t-16 -82v-69zM264 1325q-12 18 -12 41q0 31 22.5 53.5
t56.5 22.5q43 0 66 -37l84 -145q10 -19 10 -41q0 -31 -21.5 -53.5t-56.5 -22.5q-45 0 -65 37z" />
    <glyph glyph-name="eacute" unicode="&#xe9;" horiz-adv-x="851" 
d="M57 655q0 76 28.5 143.5t80 118t118 79t144.5 28.5q75 0 143 -28.5t118 -79t79.5 -118t29.5 -143.5v-147q0 -33 -22.5 -55.5t-54.5 -22.5h-508v-70q0 -43 17 -81.5t46 -68.5t69 -46.5t83 -16.5q65 0 117.5 34t78.5 91l2 7q9 22 28 35.5t44 13.5q33 0 55.5 -23.5
t22.5 -54.5q0 -14 -6 -29l-4 -8q-43 -98 -133.5 -159.5t-204.5 -61.5q-76 0 -143.5 28.5t-118 79t-80 118t-29.5 142.5v295zM213 586h430v69q0 43 -17.5 82t-46 69t-68.5 46t-83 16q-45 0 -84 -16t-69 -46t-46 -69t-16 -82v-69zM448 1405q21 37 66 37q35 0 56.5 -22.5
t21.5 -53.5q0 -27 -11 -41l-84 -145q-22 -37 -65 -37q-35 0 -57.5 22.5t-22.5 53.5q0 18 12 41z" />
    <glyph glyph-name="uni1EBB" unicode="&#x1ebb;" horiz-adv-x="851" 
d="M57 655q0 76 28.5 143.5t80 118t118 79t144.5 28.5q75 0 143 -28.5t118 -79t79.5 -118t29.5 -143.5v-147q0 -33 -22.5 -55.5t-54.5 -22.5h-508v-70q0 -43 17 -81.5t46 -68.5t69 -46.5t83 -16.5q65 0 117.5 34t78.5 91l2 7q9 22 28 35.5t44 13.5q33 0 55.5 -23.5
t22.5 -54.5q0 -14 -6 -29l-4 -8q-43 -98 -133.5 -159.5t-204.5 -61.5q-76 0 -143.5 28.5t-118 79t-80 118t-29.5 142.5v295zM213 586h430v69q0 43 -17.5 82t-46 69t-68.5 46t-83 16q-45 0 -84 -16t-69 -46t-46 -69t-16 -82v-69zM374 1203.5q24 13.5 50.5 13t41.5 6t27.5 19
t20.5 30t8 36.5v0q0 21 -7.5 39t-19 29t-25 17t-27.5 6q-21 0 -40.5 -14.5t-30.5 -40.5q-6 -14 -21.5 -23t-35.5 -9q-32 0 -46 16.5t-14 30.5q0 7 3 14q5 29 25 55t43 42.5t53.5 26t63.5 9.5q43 0 82.5 -17t68.5 -49.5t38.5 -64.5t9.5 -67q0 -31 -12 -62t-35.5 -57t-60 -44
t-93.5 -18q-1 -31 -34 -34.5t-47.5 15.5t-12 50.5t26.5 45z" />
    <glyph glyph-name="uni1EBD" unicode="&#x1ebd;" horiz-adv-x="851" 
d="M57 655q0 76 28.5 143.5t80 118t118 79t144.5 28.5q75 0 143 -28.5t118 -79t79.5 -118t29.5 -143.5v-147q0 -33 -22.5 -55.5t-54.5 -22.5h-508v-70q0 -43 17 -81.5t46 -68.5t69 -46.5t83 -16.5q65 0 117.5 34t78.5 91l2 7q9 22 28 35.5t44 13.5q33 0 55.5 -23.5
t22.5 -54.5q0 -14 -6 -29l-4 -8q-43 -98 -133.5 -159.5t-204.5 -61.5q-76 0 -143.5 28.5t-118 79t-80 118t-29.5 142.5v295zM213 586h430v69q0 43 -17.5 82t-46 69t-68.5 46t-83 16q-45 0 -84 -16t-69 -46t-46 -69t-16 -82v-69zM181 1220q0 30 21.5 50.5t51 32t62.5 16.5
t57 5q29 0 64 -12t80 -12q37 0 58.5 4t33.5 8t19.5 8t13.5 4q30 0 53.5 -22.5t23.5 -55.5q0 -30 -21.5 -49.5t-51 -31t-62 -16.5t-55.5 -5q-51 0 -115 20q-10 3 -30 3q-37 0 -58.5 -3.5t-34 -8.5t-18.5 -8t-12 -3q-31 0 -55.5 22.5t-24.5 53.5z" />
    <glyph glyph-name="uni1EB9" unicode="&#x1eb9;" horiz-adv-x="851" 
d="M57 655q0 76 28.5 143.5t80 118t118 79t144.5 28.5q75 0 143 -28.5t118 -79t79.5 -118t29.5 -143.5v-147q0 -33 -22.5 -55.5t-54.5 -22.5h-508v-70q0 -43 17 -81.5t46 -68.5t69 -46.5t83 -16.5q65 0 117.5 34t78.5 91l2 7q9 22 28 35.5t44 13.5q33 0 55.5 -23.5
t22.5 -54.5q0 -14 -6 -29l-4 -8q-43 -98 -133.5 -159.5t-204.5 -61.5q-76 0 -143.5 28.5t-118 79t-80 118t-29.5 142.5v295zM213 586h430v69q0 43 -17.5 82t-46 69t-68.5 46t-83 16q-45 0 -84 -16t-69 -46t-46 -69t-16 -82v-69zM336 -219q0 38 26.5 65t65.5 27
q36 0 63.5 -27t27.5 -65q0 -39 -26.5 -65.5t-64.5 -26.5q-37 0 -64.5 26.5t-27.5 65.5z" />
    <glyph glyph-name="ecircumflex" unicode="&#xea;" horiz-adv-x="851" 
d="M57 655q0 76 28.5 143.5t80 118t118 79t144.5 28.5q75 0 143 -28.5t118 -79t79.5 -118t29.5 -143.5v-147q0 -33 -22.5 -55.5t-54.5 -22.5h-508v-70q0 -43 17 -81.5t46 -68.5t69 -46.5t83 -16.5q65 0 117.5 34t78.5 91l2 7q9 22 28 35.5t44 13.5q33 0 55.5 -23.5
t22.5 -54.5q0 -14 -6 -29l-4 -8q-43 -98 -133.5 -159.5t-204.5 -61.5q-76 0 -143.5 28.5t-118 79t-80 118t-29.5 142.5v295zM213 586h430v69q0 43 -17.5 82t-46 69t-68.5 46t-83 16q-45 0 -84 -16t-69 -46t-46 -69t-16 -82v-69zM383 1341q16 11 36 11q25 0 46 -15l135 -98
q35 -25 35 -63q0 -33 -26 -55.5t-56 -22.5q-27 0 -43 14l-91 64l-88 -64q-20 -14 -43 -14q-32 0 -56.5 22.5t-24.5 55.5q0 38 34 63z" />
    <glyph glyph-name="uni1EC1" unicode="&#x1ec1;" horiz-adv-x="851" 
d="M57 655q0 76 28.5 143.5t80 118t118 79t144.5 28.5q75 0 143 -28.5t118 -79t79.5 -118t29.5 -143.5v-147q0 -33 -22.5 -55.5t-54.5 -22.5h-508v-70q0 -43 17 -81.5t46 -68.5t69 -46.5t83 -16.5q65 0 117.5 34t78.5 91l2 7q9 22 28 35.5t44 13.5q33 0 55.5 -23.5
t22.5 -54.5q0 -14 -6 -29l-4 -8q-43 -98 -133.5 -159.5t-204.5 -61.5q-76 0 -143.5 28.5t-118 79t-80 118t-29.5 142.5v295zM213 586h430v69q0 43 -17.5 82t-46 69t-68.5 46t-83 16q-45 0 -84 -16t-69 -46t-46 -69t-16 -82v-69zM425 1506q-12 18 -12 41q0 31 22.5 53.5
t56.5 22.5q43 0 66 -37l84 -145q10 -19 10 -41q0 -31 -21.5 -53.5t-56.5 -22.5q-45 0 -65 37zM383 1341q16 11 37 11q24 0 45 -15l135 -98q35 -25 35 -63q0 -33 -25.5 -55.5t-56.5 -22.5q-27 0 -43 14l-90 64l-88 -64q-21 -14 -43 -14q-33 0 -57.5 22.5t-24.5 55.5
q0 38 35 63z" />
    <glyph glyph-name="uni1EBF" unicode="&#x1ebf;" horiz-adv-x="851" 
d="M57 655q0 76 28.5 143.5t80 118t118 79t144.5 28.5q75 0 143 -28.5t118 -79t79.5 -118t29.5 -143.5v-147q0 -33 -22.5 -55.5t-54.5 -22.5h-508v-70q0 -43 17 -81.5t46 -68.5t69 -46.5t83 -16.5q65 0 117.5 34t78.5 91l2 7q9 22 28 35.5t44 13.5q33 0 55.5 -23.5
t22.5 -54.5q0 -14 -6 -29l-4 -8q-43 -98 -133.5 -159.5t-204.5 -61.5q-76 0 -143.5 28.5t-118 79t-80 118t-29.5 142.5v295zM213 586h430v69q0 43 -17.5 82t-46 69t-68.5 46t-83 16q-45 0 -84 -16t-69 -46t-46 -69t-16 -82v-69zM619 1566q21 37 66 37q35 0 56.5 -22.5
t21.5 -53.5q0 -27 -11 -41l-84 -145q-22 -37 -65 -37q-35 0 -57.5 22.5t-22.5 53.5q0 18 12 41zM383 1341q16 11 37 11q24 0 45 -15l135 -98q35 -25 35 -63q0 -33 -25.5 -55.5t-56.5 -22.5q-27 0 -43 14l-90 64l-88 -64q-21 -14 -43 -14q-33 0 -57.5 22.5t-24.5 55.5
q0 38 35 63z" />
    <glyph glyph-name="uni1EC3" unicode="&#x1ec3;" horiz-adv-x="851" 
d="M57 655q0 76 28.5 143.5t80 118t118 79t144.5 28.5q75 0 143 -28.5t118 -79t79.5 -118t29.5 -143.5v-147q0 -33 -22.5 -55.5t-54.5 -22.5h-508v-70q0 -43 17 -81.5t46 -68.5t69 -46.5t83 -16.5q65 0 117.5 34t78.5 91l2 7q9 22 28 35.5t44 13.5q33 0 55.5 -23.5
t22.5 -54.5q0 -14 -6 -29l-4 -8q-43 -98 -133.5 -159.5t-204.5 -61.5q-76 0 -143.5 28.5t-118 79t-80 118t-29.5 142.5v295zM213 586h430v69q0 43 -17.5 82t-46 69t-68.5 46t-83 16q-45 0 -84 -16t-69 -46t-46 -69t-16 -82v-69zM545 1414.5q24 13.5 50.5 13t41.5 6t27.5 19
t20.5 30t8 36.5v0q0 21 -7.5 39t-19 29t-25 17t-27.5 6q-21 0 -40.5 -14.5t-30.5 -40.5q-6 -14 -21.5 -23t-35.5 -9q-32 0 -46 16.5t-14 30.5q0 7 3 14q5 29 25 55t43 42.5t53.5 26t63.5 9.5q43 0 82.5 -17t68.5 -49.5t38.5 -64.5t9.5 -67q0 -31 -12 -62t-35.5 -57t-60 -44
t-93.5 -18q-1 -31 -34 -34.5t-47.5 15.5t-12 50.5t26.5 45zM383 1341q16 11 36 11q25 0 46 -15l135 -98q35 -25 35 -63q0 -33 -26 -55.5t-56 -22.5q-27 0 -43 14l-91 64l-88 -64q-20 -14 -43 -14q-32 0 -56.5 22.5t-24.5 55.5q0 38 34 63z" />
    <glyph glyph-name="uni1EC5" unicode="&#x1ec5;" horiz-adv-x="851" 
d="M57 655q0 76 28.5 143.5t80 118t118 79t144.5 28.5q75 0 143 -28.5t118 -79t79.5 -118t29.5 -143.5v-147q0 -33 -22.5 -55.5t-54.5 -22.5h-508v-70q0 -43 17 -81.5t46 -68.5t69 -46.5t83 -16.5q65 0 117.5 34t78.5 91l2 7q9 22 28 35.5t44 13.5q33 0 55.5 -23.5
t22.5 -54.5q0 -14 -6 -29l-4 -8q-43 -98 -133.5 -159.5t-204.5 -61.5q-76 0 -143.5 28.5t-118 79t-80 118t-29.5 142.5v295zM213 586h430v69q0 43 -17.5 82t-46 69t-68.5 46t-83 16q-45 0 -84 -16t-69 -46t-46 -69t-16 -82v-69zM211 1451q0 30 21.5 50.5t51 32t62.5 16.5
t57 5q29 0 64 -12t80 -12q37 0 58.5 4t33.5 8t19.5 8t13.5 4q30 0 53.5 -22.5t23.5 -55.5q0 -30 -21.5 -49.5t-51 -31t-62 -16.5t-55.5 -5q-51 0 -115 20q-10 3 -30 3q-37 0 -58.5 -3.5t-34 -8.5t-18.5 -8t-12 -3q-31 0 -55.5 22.5t-24.5 53.5zM383 1341q16 11 36 11
q25 0 46 -15l135 -98q35 -25 35 -63q0 -33 -26 -55.5t-56 -22.5q-27 0 -43 14l-91 64l-88 -64q-20 -14 -43 -14q-32 0 -56.5 22.5t-24.5 55.5q0 38 34 63z" />
    <glyph glyph-name="uni1EC7" unicode="&#x1ec7;" horiz-adv-x="851" 
d="M57 655q0 76 28.5 143.5t80 118t118 79t144.5 28.5q75 0 143 -28.5t118 -79t79.5 -118t29.5 -143.5v-147q0 -33 -22.5 -55.5t-54.5 -22.5h-508v-70q0 -43 17 -81.5t46 -68.5t69 -46.5t83 -16.5q65 0 117.5 34t78.5 91l2 7q9 22 28 35.5t44 13.5q33 0 55.5 -23.5
t22.5 -54.5q0 -14 -6 -29l-4 -8q-43 -98 -133.5 -159.5t-204.5 -61.5q-76 0 -143.5 28.5t-118 79t-80 118t-29.5 142.5v295zM213 586h430v69q0 43 -17.5 82t-46 69t-68.5 46t-83 16q-45 0 -84 -16t-69 -46t-46 -69t-16 -82v-69zM336 -219q0 38 26.5 65t65.5 27
q36 0 63.5 -27t27.5 -65q0 -39 -26.5 -65.5t-64.5 -26.5q-37 0 -64.5 26.5t-27.5 65.5zM383 1341q16 11 36 11q25 0 46 -15l135 -98q35 -25 35 -63q0 -33 -26 -55.5t-56 -22.5q-27 0 -43 14l-91 64l-88 -64q-20 -14 -43 -14q-32 0 -56.5 22.5t-24.5 55.5q0 38 34 63z" />
    <glyph glyph-name="igrave" unicode="&#xec;" horiz-adv-x="331" 
d="M110 938q0 33 22.5 55.5t55.5 22.5q31 0 54.5 -22.5t23.5 -55.5v-860q0 -33 -22.5 -55.5t-55.5 -22.5q-30 0 -54 22.5t-24 55.5v860zM20 1327q-12 19 -12 41q0 31 22.5 53.5t57.5 22.5q43 0 65 -37l84 -145q11 -19 11 -41q0 -31 -21.5 -53.5t-56.5 -22.5q-45 0 -66 37z
" />
    <glyph glyph-name="iacute" unicode="&#xed;" horiz-adv-x="331" 
d="M61 938q0 33 22.5 55.5t55.5 22.5q31 0 54.5 -22.5t23.5 -55.5v-860q0 -33 -22.5 -55.5t-55.5 -22.5q-31 0 -54.5 22.5t-23.5 55.5v860zM163 1407q21 37 66 37q35 0 56.5 -22.5t21.5 -53.5q0 -27 -10 -41l-84 -145q-23 -37 -66 -37q-35 0 -57.5 22.5t-22.5 53.5
q0 18 12 41z" />
    <glyph glyph-name="uni1EC9" unicode="&#x1ec9;" horiz-adv-x="301" 
d="M69 938q0 33 22.5 55.5t55.5 22.5q31 0 54.5 -22.5t23.5 -55.5v-860q0 -33 -22.5 -55.5t-55.5 -22.5q-31 0 -54.5 22.5t-23.5 55.5v860zM103 1203.5q24 13.5 50.5 13t41.5 6t27.5 19t20 30t7.5 36.5v0q0 21 -7.5 39t-18.5 29t-24.5 17t-27.5 6q-21 0 -40.5 -14.5
t-30.5 -40.5q-6 -14 -22 -23t-35 -9q-32 0 -46 16.5t-14 30.5q0 7 3 14q5 29 24.5 55t42.5 42.5t54 26t64 9.5q43 0 82.5 -17t68.5 -49.5t38.5 -64.5t9.5 -67q0 -31 -12.5 -62t-36 -57t-59.5 -44t-93 -18q-1 -31 -34 -34.5t-47.5 15.5t-12 50.5t26.5 45z" />
    <glyph glyph-name="itilde" unicode="&#x129;" horiz-adv-x="301" 
d="M68 938q0 33 22.5 55.5t55.5 22.5q31 0 54.5 -22.5t23.5 -55.5v-860q0 -33 -22.5 -55.5t-55.5 -22.5q-30 0 -54 22.5t-24 55.5v860zM-101 1220q0 30 21.5 50.5t51 32t62.5 16.5t58 5q28 0 63 -12t80 -12q37 0 58.5 4t33.5 8t19.5 8t13.5 4q31 0 54.5 -22.5t23.5 -55.5
q0 -30 -21.5 -49.5t-51.5 -31t-62.5 -16.5t-55.5 -5q-51 0 -115 20q-10 3 -30 3q-37 0 -58.5 -3.5t-34 -8.5t-18.5 -8t-12 -3q-31 0 -55.5 22.5t-24.5 53.5z" />
    <glyph glyph-name="uni1ECB" unicode="&#x1ecb;" horiz-adv-x="301" 
d="M68 938q0 33 22.5 55.5t55.5 22.5q31 0 54.5 -22.5t23.5 -55.5v-860q0 -33 -22.5 -55.5t-55.5 -22.5q-31 0 -54.5 22.5t-23.5 55.5v860zM68 1298q0 33 22.5 55.5t55.5 22.5q31 0 54.5 -22.5t23.5 -55.5v-59q0 -33 -22.5 -55.5t-55.5 -22.5q-31 0 -54.5 22.5t-23.5 55.5
v59zM54 -219q0 38 26.5 65t65.5 27q36 0 64 -27t28 -65q0 -39 -27 -65.5t-65 -26.5q-36 0 -64 26.5t-28 65.5z" />
    <glyph glyph-name="ograve" unicode="&#xf2;" 
d="M57 655q0 76 28.5 143.5t80 118t118 79t144.5 28.5q75 0 143 -28.5t118 -79t79.5 -118t29.5 -143.5v-295q0 -75 -28.5 -142.5t-79.5 -118t-119 -79t-143 -28.5q-76 0 -143.5 28.5t-118 79t-80 118t-29.5 142.5v295zM213 360q0 -43 17 -81.5t46 -68.5t69 -46.5t83 -16.5
q45 0 84 16.5t68.5 46.5t46 68.5t16.5 81.5v295q0 43 -17.5 82t-46 69t-68.5 46t-83 16q-45 0 -84 -16t-69 -46t-46 -69t-16 -82v-295zM262 1325q-12 18 -12 41q0 31 22.5 53.5t56.5 22.5q43 0 66 -37l84 -145q10 -19 10 -41q0 -31 -21.5 -53.5t-56.5 -22.5q-45 0 -65 37z
" />
    <glyph glyph-name="oacute" unicode="&#xf3;" 
d="M57 655q0 76 28.5 143.5t80 118t118 79t144.5 28.5q75 0 143 -28.5t118 -79t79.5 -118t29.5 -143.5v-295q0 -75 -28.5 -142.5t-79.5 -118t-119 -79t-143 -28.5q-76 0 -143.5 28.5t-118 79t-80 118t-29.5 142.5v295zM213 360q0 -43 17 -81.5t46 -68.5t69 -46.5t83 -16.5
q45 0 84 16.5t68.5 46.5t46 68.5t16.5 81.5v295q0 43 -17.5 82t-46 69t-68.5 46t-83 16q-45 0 -84 -16t-69 -46t-46 -69t-16 -82v-295zM448 1403q21 37 66 37q35 0 56.5 -22.5t21.5 -53.5q0 -27 -11 -41l-84 -145q-22 -37 -65 -37q-35 0 -57.5 22.5t-22.5 53.5q0 18 12 40z
" />
    <glyph glyph-name="uni1ECF" unicode="&#x1ecf;" 
d="M57 655q0 76 28.5 143.5t80 118t118 79t144.5 28.5q75 0 143 -28.5t118 -79t79.5 -118t29.5 -143.5v-295q0 -75 -28.5 -142.5t-79.5 -118t-119 -79t-143 -28.5q-76 0 -143.5 28.5t-118 79t-80 118t-29.5 142.5v295zM213 360q0 -43 17 -81.5t46 -68.5t69 -46.5t83 -16.5
q45 0 84 16.5t68.5 46.5t46 68.5t16.5 81.5v295q0 43 -17.5 82t-46 69t-68.5 46t-83 16q-45 0 -84 -16t-69 -46t-46 -69t-16 -82v-295zM374 1203.5q24 13.5 50.5 13t41.5 6t27.5 19t20.5 30t8 36.5v0q0 21 -7.5 39t-19 29t-25 17t-27.5 6q-21 0 -40.5 -14.5t-30.5 -40.5
q-6 -14 -21.5 -23t-35.5 -9q-32 0 -46 16.5t-14 30.5q0 7 3 14q5 29 25 55t43 42.5t53.5 26t63.5 9.5q43 0 82.5 -17t68.5 -49.5t38.5 -64.5t9.5 -67q0 -31 -12 -62t-35.5 -57t-60 -44t-93.5 -18q-1 -31 -34 -34.5t-47.5 15.5t-12 50.5t26.5 45z" />
    <glyph glyph-name="otilde" unicode="&#xf5;" 
d="M57 655q0 76 28.5 143.5t80 118t118 79t144.5 28.5q75 0 143 -28.5t118 -79t79.5 -118t29.5 -143.5v-295q0 -75 -28.5 -142.5t-79.5 -118t-119 -79t-143 -28.5q-76 0 -143.5 28.5t-118 79t-80 118t-29.5 142.5v295zM213 360q0 -43 17 -81.5t46 -68.5t69 -46.5t83 -16.5
q45 0 84 16.5t68.5 46.5t46 68.5t16.5 81.5v295q0 43 -17.5 82t-46 69t-68.5 46t-83 16q-45 0 -84 -16t-69 -46t-46 -69t-16 -82v-295zM147 1268q0 30 21.5 50.5t51.5 32t62.5 16.5t57.5 5q28 0 63 -12t80 -12q37 0 58.5 4t33.5 8t19.5 8t13.5 4q31 0 54.5 -22.5t23.5 -55.5
q0 -30 -21.5 -49.5t-51.5 -31t-62.5 -16.5t-55.5 -5q-51 0 -114 20q-11 2 -31 2q-37 0 -58.5 -3t-34 -8t-18.5 -8t-12 -3q-31 0 -55.5 22.5t-24.5 53.5z" />
    <glyph glyph-name="uni1ECD" unicode="&#x1ecd;" 
d="M57 655q0 76 28.5 143.5t80 118t118 79t144.5 28.5q75 0 143 -28.5t118 -79t79.5 -118t29.5 -143.5v-295q0 -75 -28.5 -142.5t-79.5 -118t-119 -79t-143 -28.5q-76 0 -143.5 28.5t-118 79t-80 118t-29.5 142.5v295zM213 360q0 -43 17 -81.5t46 -68.5t69 -46.5t83 -16.5
q45 0 84 16.5t68.5 46.5t46 68.5t16.5 81.5v295q0 43 -17.5 82t-46 69t-68.5 46t-83 16q-45 0 -84 -16t-69 -46t-46 -69t-16 -82v-295zM336 -219q0 38 26.5 65t65.5 27q36 0 63.5 -27t27.5 -65q0 -39 -26.5 -65.5t-64.5 -26.5q-37 0 -64.5 26.5t-27.5 65.5z" />
    <glyph glyph-name="ocircumflex" unicode="&#xf4;" 
d="M57 655q0 76 28.5 143.5t80 118t118 79t144.5 28.5q75 0 143 -28.5t118 -79t79.5 -118t29.5 -143.5v-295q0 -75 -28.5 -142.5t-79.5 -118t-119 -79t-143 -28.5q-76 0 -143.5 28.5t-118 79t-80 118t-29.5 142.5v295zM213 360q0 -43 17 -81.5t46 -68.5t69 -46.5t83 -16.5
q45 0 84 16.5t68.5 46.5t46 68.5t16.5 81.5v295q0 43 -17.5 82t-46 69t-68.5 46t-83 16q-45 0 -84 -16t-69 -46t-46 -69t-16 -82v-295zM387 1343q16 11 37 11q24 0 45 -15l135 -98q35 -24 35 -63q0 -33 -26 -55.5t-56 -22.5q-27 0 -43 14l-90 64l-88 -64q-21 -14 -43 -14
q-33 0 -57.5 22.5t-24.5 55.5q0 39 34 63z" />
    <glyph glyph-name="uni1ED3" unicode="&#x1ed3;" 
d="M57 655q0 76 28.5 143.5t80 118t118 79t144.5 28.5q75 0 143 -28.5t118 -79t79.5 -118t29.5 -143.5v-295q0 -75 -28.5 -142.5t-79.5 -118t-119 -79t-143 -28.5q-76 0 -143.5 28.5t-118 79t-80 118t-29.5 142.5v295zM213 360q0 -43 17 -81.5t46 -68.5t69 -46.5t83 -16.5
q45 0 84 16.5t68.5 46.5t46 68.5t16.5 81.5v295q0 43 -17.5 82t-46 69t-68.5 46t-83 16q-45 0 -84 -16t-69 -46t-46 -69t-16 -82v-295zM433 1506q-12 18 -12 41q0 31 22.5 53.5t56.5 22.5q43 0 66 -37l84 -145q10 -19 10 -41q0 -31 -21.5 -53.5t-56.5 -22.5q-45 0 -65 37z
M387 1343q16 11 37 11q24 0 45 -15l135 -98q35 -24 35 -63q0 -33 -26 -55.5t-56 -22.5q-27 0 -43 14l-90 64l-88 -64q-21 -14 -43 -14q-33 0 -57.5 22.5t-24.5 55.5q0 39 34 63z" />
    <glyph glyph-name="uni1ED1" unicode="&#x1ed1;" 
d="M57 655q0 76 28.5 143.5t80 118t118 79t144.5 28.5q75 0 143 -28.5t118 -79t79.5 -118t29.5 -143.5v-295q0 -75 -28.5 -142.5t-79.5 -118t-119 -79t-143 -28.5q-76 0 -143.5 28.5t-118 79t-80 118t-29.5 142.5v295zM213 360q0 -43 17 -81.5t46 -68.5t69 -46.5t83 -16.5
q45 0 84 16.5t68.5 46.5t46 68.5t16.5 81.5v295q0 43 -17.5 82t-46 69t-68.5 46t-83 16q-45 0 -84 -16t-69 -46t-46 -69t-16 -82v-295zM629 1574q21 37 66 37q35 0 56.5 -22.5t21.5 -53.5q0 -27 -11 -41l-84 -145q-22 -37 -65 -37q-35 0 -57.5 22.5t-22.5 53.5q0 18 12 40z
M387 1343q16 11 37 11q24 0 45 -15l135 -98q35 -24 35 -63q0 -33 -26 -55.5t-56 -22.5q-27 0 -43 14l-90 64l-88 -64q-21 -14 -43 -14q-33 0 -57.5 22.5t-24.5 55.5q0 39 34 63z" />
    <glyph glyph-name="uni1ED5" unicode="&#x1ed5;" 
d="M57 655q0 76 28.5 143.5t80 118t118 79t144.5 28.5q75 0 143 -28.5t118 -79t79.5 -118t29.5 -143.5v-295q0 -75 -28.5 -142.5t-79.5 -118t-119 -79t-143 -28.5q-76 0 -143.5 28.5t-118 79t-80 118t-29.5 142.5v295zM213 360q0 -43 17 -81.5t46 -68.5t69 -46.5t83 -16.5
q45 0 84 16.5t68.5 46.5t46 68.5t16.5 81.5v295q0 43 -17.5 82t-46 69t-68.5 46t-83 16q-45 0 -84 -16t-69 -46t-46 -69t-16 -82v-295zM555 1424.5q24 13.5 50.5 13t41.5 6t27.5 19t20.5 30t8 36.5v0q0 21 -7.5 39t-19 29t-25 17t-27.5 6q-21 0 -40.5 -14.5t-30.5 -40.5
q-6 -14 -21.5 -23t-35.5 -9q-32 0 -46 16.5t-14 30.5q0 7 3 14q5 29 25 55t43 42.5t53.5 26t63.5 9.5q43 0 82.5 -17t68.5 -49.5t38.5 -64.5t9.5 -67q0 -31 -12 -62t-35.5 -57t-60 -44t-93.5 -18q-1 -31 -34 -34.5t-47.5 15.5t-12 50.5t26.5 45zM386 1343q17 11 37 11
q25 0 45 -15l135 -98q35 -24 35 -63q0 -33 -25.5 -55.5t-56.5 -22.5q-26 0 -43 14l-90 64l-88 -64q-20 -14 -43 -14q-33 0 -57.5 22.5t-24.5 55.5q0 39 35 63z" />
    <glyph glyph-name="uni1ED7" unicode="&#x1ed7;" 
d="M57 655q0 76 28.5 143.5t80 118t118 79t144.5 28.5q75 0 143 -28.5t118 -79t79.5 -118t29.5 -143.5v-295q0 -75 -28.5 -142.5t-79.5 -118t-119 -79t-143 -28.5q-76 0 -143.5 28.5t-118 79t-80 118t-29.5 142.5v295zM213 360q0 -43 17 -81.5t46 -68.5t69 -46.5t83 -16.5
q45 0 84 16.5t68.5 46.5t46 68.5t16.5 81.5v295q0 43 -17.5 82t-46 69t-68.5 46t-83 16q-45 0 -84 -16t-69 -46t-46 -69t-16 -82v-295zM228 1469q0 30 21.5 50.5t51.5 32t62.5 16.5t57.5 5q28 0 63 -12t80 -12q37 0 58.5 4t33.5 8t19.5 8t13.5 4q31 0 54.5 -22.5t23.5 -55.5
q0 -30 -21.5 -49.5t-51.5 -31t-62.5 -16.5t-55.5 -5q-51 0 -114 20q-11 2 -31 2q-37 0 -58.5 -3t-34 -8t-18.5 -8t-12 -3q-31 0 -55.5 22.5t-24.5 53.5zM387 1343q16 11 37 11q24 0 45 -15l135 -98q35 -24 35 -63q0 -33 -26 -55.5t-56 -22.5q-27 0 -43 14l-90 64l-88 -64
q-21 -14 -43 -14q-33 0 -57.5 22.5t-24.5 55.5q0 39 34 63z" />
    <glyph glyph-name="uni1ED9" unicode="&#x1ed9;" 
d="M57 655q0 76 28.5 143.5t80 118t118 79t144.5 28.5q75 0 143 -28.5t118 -79t79.5 -118t29.5 -143.5v-295q0 -75 -28.5 -142.5t-79.5 -118t-119 -79t-143 -28.5q-76 0 -143.5 28.5t-118 79t-80 118t-29.5 142.5v295zM213 360q0 -43 17 -81.5t46 -68.5t69 -46.5t83 -16.5
q45 0 84 16.5t68.5 46.5t46 68.5t16.5 81.5v295q0 43 -17.5 82t-46 69t-68.5 46t-83 16q-45 0 -84 -16t-69 -46t-46 -69t-16 -82v-295zM336 -219q0 38 26.5 65t65.5 27q36 0 63.5 -27t27.5 -65q0 -39 -26.5 -65.5t-64.5 -26.5q-37 0 -64.5 26.5t-27.5 65.5zM386 1343
q17 11 37 11q25 0 45 -15l135 -98q35 -24 35 -63q0 -33 -25.5 -55.5t-56.5 -22.5q-26 0 -43 14l-90 64l-88 -64q-20 -14 -43 -14q-33 0 -57.5 22.5t-24.5 55.5q0 39 35 63z" />
    <glyph glyph-name="glyph216" unicode="&#xf9;" horiz-adv-x="872" 
d="M65 938q0 33 22.5 55.5t55.5 22.5q31 0 54.5 -22.5t23.5 -55.5v-578q0 -43 16 -81.5t46 -68.5t69 -46.5t84 -16.5q43 0 83 16.5t68.5 46.5t46 68.5t17.5 81.5v578q0 33 22.5 55.5t55.5 22.5q30 0 53.5 -22.5t23.5 -55.5v-578q0 -75 -29.5 -142.5t-79.5 -118t-118 -79
t-143 -28.5q-78 0 -144.5 28.5t-118 79t-80 118t-28.5 142.5v578zM282 1325q-12 18 -12 41q0 31 22.5 53.5t57.5 22.5q43 0 65 -37l84 -145q10 -19 10 -41q0 -31 -21.5 -53.5t-55.5 -22.5q-45 0 -66 37z" />
    <glyph glyph-name="glyph217" unicode="&#xfa;" horiz-adv-x="872" 
d="M65 938q0 33 22.5 55.5t55.5 22.5q31 0 54.5 -22.5t23.5 -55.5v-578q0 -43 16 -81.5t46 -68.5t69 -46.5t84 -16.5q43 0 83 16.5t68.5 46.5t46 68.5t17.5 81.5v578q0 33 22.5 55.5t55.5 22.5q30 0 53.5 -22.5t23.5 -55.5v-578q0 -75 -29.5 -142.5t-79.5 -118t-118 -79
t-143 -28.5q-78 0 -144.5 28.5t-118 79t-80 118t-28.5 142.5v578zM464 1360q21 37 66 37q35 0 56.5 -22.5t21.5 -53.5q0 -27 -11 -41l-83 -145q-23 -37 -66 -37q-35 0 -57.5 22.5t-22.5 53.5q0 18 12 40z" />
    <glyph glyph-name="uni1EE7" unicode="&#x1ee7;" horiz-adv-x="872" 
d="M65 938q0 33 22.5 55.5t55.5 22.5q31 0 54.5 -22.5t23.5 -55.5v-578q0 -43 16 -81.5t46 -68.5t69 -46.5t84 -16.5q43 0 83 16.5t68.5 46.5t46 68.5t17.5 81.5v578q0 33 22.5 55.5t55.5 22.5q30 0 53.5 -22.5t23.5 -55.5v-578q0 -75 -29.5 -142.5t-79.5 -118t-118 -79
t-143 -28.5q-78 0 -144.5 28.5t-118 79t-80 118t-28.5 142.5v578zM404 1203.5q24 13.5 50.5 13t41.5 6t27.5 19t20 30t7.5 36.5v0q0 21 -7.5 39t-18.5 29t-24.5 17t-27.5 6q-21 0 -40.5 -14.5t-30.5 -40.5q-6 -14 -22 -23t-35 -9q-32 0 -46 16.5t-14 30.5q0 7 3 14
q5 29 24.5 55t42.5 42.5t54 26t64 9.5q43 0 82.5 -17t68.5 -49.5t38.5 -64.5t9.5 -67q0 -31 -12.5 -62t-36 -57t-59.5 -44t-93 -18q-1 -31 -34 -34.5t-47.5 15.5t-12 50.5t26.5 45z" />
    <glyph glyph-name="utilde" unicode="&#x169;" horiz-adv-x="872" 
d="M65 938q0 33 22.5 55.5t55.5 22.5q31 0 54.5 -22.5t23.5 -55.5v-578q0 -43 16 -81.5t46 -68.5t69 -46.5t84 -16.5q43 0 83 16.5t68.5 46.5t46 68.5t17.5 81.5v578q0 33 22.5 55.5t55.5 22.5q30 0 53.5 -22.5t23.5 -55.5v-578q0 -75 -29.5 -142.5t-79.5 -118t-118 -79
t-143 -28.5q-78 0 -144.5 28.5t-118 79t-80 118t-28.5 142.5v578zM166 1268q0 30 21.5 50.5t51.5 32t62.5 16.5t57.5 5q29 0 63.5 -12t79.5 -12q37 0 58.5 4t34 8t19.5 8t13 4q31 0 54.5 -22.5t23.5 -55.5q0 -30 -21.5 -49.5t-51 -31t-62.5 -16.5t-55 -5q-52 0 -115 20
q-10 2 -31 2q-37 0 -58.5 -3t-33.5 -8t-18.5 -8t-12.5 -3q-30 0 -55 22.5t-25 53.5z" />
    <glyph glyph-name="uni1EE5" unicode="&#x1ee5;" horiz-adv-x="872" 
d="M65 938q0 33 22.5 55.5t55.5 22.5q31 0 54.5 -22.5t23.5 -55.5v-578q0 -43 16 -81.5t46 -68.5t69 -46.5t84 -16.5q43 0 83 16.5t68.5 46.5t46 68.5t17.5 81.5v578q0 33 22.5 55.5t55.5 22.5q30 0 53.5 -22.5t23.5 -55.5v-578q0 -75 -29.5 -142.5t-79.5 -118t-118 -79
t-143 -28.5q-78 0 -144.5 28.5t-118 79t-80 118t-28.5 142.5v578zM344 -219q0 38 26.5 65t65.5 27q36 0 63.5 -27t27.5 -65q0 -39 -26.5 -65.5t-64.5 -26.5q-37 0 -64.5 26.5t-27.5 65.5z" />
    <glyph glyph-name="uhorn" unicode="&#x1b0;" horiz-adv-x="872" 
d="M806 801v-441q0 -75 -29.5 -142.5t-80 -118t-118 -79t-143.5 -28.5q-78 0 -144.5 28.5t-117.5 79t-79.5 118t-28.5 142.5v578q0 33 22.5 55.5t54.5 22.5q31 0 54.5 -22.5t23.5 -55.5v-578q0 -43 16.5 -81.5t46 -68.5t68.5 -46.5t84 -16.5q43 0 83 16.5t68.5 46.5t46 68.5
t17.5 81.5v578q0 33 22.5 55.5t55.5 22.5q31 0 54.5 -22.5t23.5 -55.5v-6l26 101q9 31 36.5 47t58.5 8q30 -8 47 -35.5t9 -59.5l-42 -162q-9 -32 -36.5 -48t-58.5 -8q-24 6 -40 26z" />
    <glyph glyph-name="uni1EEB" unicode="&#x1eeb;" horiz-adv-x="872" 
d="M282 1325q-12 18 -12 41q0 31 22.5 53.5t57.5 22.5q43 0 65 -37l84 -145q10 -19 10 -41q0 -31 -21.5 -53.5t-55.5 -22.5q-45 0 -66 37zM806 802v-442q0 -75 -29.5 -142.5t-79.5 -118t-118 -79t-143 -28.5q-78 0 -144.5 28.5t-118 79t-80 118t-28.5 142.5v578
q0 33 22.5 55.5t55.5 22.5q31 0 54.5 -22.5t23.5 -55.5v-578q0 -43 16 -81.5t46 -68.5t69 -46.5t84 -16.5q43 0 83 16.5t68.5 46.5t46 68.5t17.5 81.5v578q0 33 22.5 55.5t55.5 22.5q30 0 53.5 -22.5t23.5 -55.5v-10l27 105q9 31 36.5 47t58.5 8q30 -8 47 -35.5t9 -59.5
l-42 -162q-9 -32 -36.5 -48t-58.5 -8q-25 7 -41 27z" />
    <glyph glyph-name="uni1EE9" unicode="&#x1ee9;" horiz-adv-x="872" 
d="M464 1360q21 37 66 37q35 0 56.5 -22.5t21.5 -53.5q0 -27 -11 -41l-83 -145q-23 -37 -66 -37q-35 0 -57.5 22.5t-22.5 53.5q0 18 12 40zM806 802v-442q0 -75 -29.5 -142.5t-79.5 -118t-118 -79t-143 -28.5q-78 0 -144.5 28.5t-118 79t-80 118t-28.5 142.5v578
q0 33 22.5 55.5t55.5 22.5q31 0 54.5 -22.5t23.5 -55.5v-578q0 -43 16 -81.5t46 -68.5t69 -46.5t84 -16.5q43 0 83 16.5t68.5 46.5t46 68.5t17.5 81.5v578q0 33 22.5 55.5t55.5 22.5q30 0 53.5 -22.5t23.5 -55.5v-10l27 105q9 31 36.5 47t58.5 8q30 -8 47 -35.5t9 -59.5
l-42 -162q-9 -32 -36.5 -48t-58.5 -8q-25 7 -41 27z" />
    <glyph glyph-name="uni1EED" unicode="&#x1eed;" horiz-adv-x="872" 
d="M403 1203.5q24 13.5 51 13t41.5 6t27 19t20.5 30t8 36.5v0q0 21 -7.5 39t-19 29t-25 17t-26.5 6q-22 0 -41 -14.5t-31 -40.5q-6 -14 -21.5 -23t-35.5 -9q-32 0 -45.5 16.5t-13.5 30.5q0 7 2 14q5 29 25 55t43 42.5t54 26t64 9.5q43 0 82 -17t68.5 -49.5t39 -64.5t9.5 -67
q0 -31 -12.5 -62t-36 -57t-60 -44t-93.5 -18q0 -31 -33.5 -34.5t-47.5 15.5t-12 50.5t26 45zM806 801v-441q0 -75 -29.5 -142.5t-80 -118t-118 -79t-143.5 -28.5q-78 0 -144.5 28.5t-117.5 79t-79.5 118t-28.5 142.5v578q0 33 22.5 55.5t54.5 22.5q31 0 54.5 -22.5
t23.5 -55.5v-578q0 -43 16.5 -81.5t46 -68.5t68.5 -46.5t84 -16.5q43 0 83 16.5t68.5 46.5t46 68.5t17.5 81.5v578q0 33 22.5 55.5t55.5 22.5q31 0 54.5 -22.5t23.5 -55.5v-6l26 101q9 31 36.5 47t58.5 8q30 -8 47 -35.5t9 -59.5l-42 -162q-9 -32 -36.5 -48t-58.5 -8
q-24 6 -40 26z" />
    <glyph glyph-name="uni1EEF" unicode="&#x1eef;" horiz-adv-x="872" 
d="M166 1268q0 30 21.5 50.5t51 32t62.5 16.5t57 5q29 0 64 -12t80 -12q37 0 58.5 4t33.5 8t19.5 8t13.5 4q30 0 54 -22.5t24 -55.5q0 -30 -21.5 -49.5t-51.5 -31t-62.5 -16.5t-55.5 -5q-51 0 -115 20q-10 2 -30 2q-37 0 -58.5 -3t-34 -8t-18.5 -8t-12 -3q-31 0 -55.5 22.5
t-24.5 53.5zM806 801v-441q0 -75 -29.5 -142.5t-80 -118t-118 -79t-143.5 -28.5q-78 0 -144.5 28.5t-117.5 79t-79.5 118t-28.5 142.5v578q0 33 22.5 55.5t54.5 22.5q31 0 54.5 -22.5t23.5 -55.5v-578q0 -43 16.5 -81.5t46 -68.5t68.5 -46.5t84 -16.5q43 0 83 16.5
t68.5 46.5t46 68.5t17.5 81.5v578q0 33 22.5 55.5t55.5 22.5q31 0 54.5 -22.5t23.5 -55.5v-6l26 101q9 31 36.5 47t58.5 8q30 -8 47 -35.5t9 -59.5l-42 -162q-9 -32 -36.5 -48t-58.5 -8q-24 6 -40 26z" />
    <glyph glyph-name="uni1EF1" unicode="&#x1ef1;" horiz-adv-x="872" 
d="M343 -219q0 38 27 65t65 27q36 0 64 -27t28 -65q0 -39 -26.5 -65.5t-65.5 -26.5q-36 0 -64 26.5t-28 65.5zM806 801v-441q0 -75 -29.5 -142.5t-80 -118t-118 -79t-143.5 -28.5q-78 0 -144.5 28.5t-117.5 79t-79.5 118t-28.5 142.5v578q0 33 22.5 55.5t54.5 22.5
q31 0 54.5 -22.5t23.5 -55.5v-578q0 -43 16.5 -81.5t46 -68.5t68.5 -46.5t84 -16.5q43 0 83 16.5t68.5 46.5t46 68.5t17.5 81.5v578q0 33 22.5 55.5t55.5 22.5q31 0 54.5 -22.5t23.5 -55.5v-6l26 101q9 31 36.5 47t58.5 8q30 -8 47 -35.5t9 -59.5l-42 -162q-9 -32 -36.5 -48
t-58.5 -8q-24 6 -40 26z" />
    <glyph glyph-name="ohorn" unicode="&#x1a1;" 
d="M213 360q0 -43 17.5 -81.5t46 -68.5t68.5 -46.5t83 -16.5q45 0 84 16.5t68.5 46.5t46 68.5t16.5 81.5v295q0 43 -17.5 82t-46 69t-68.5 46t-83 16q-45 0 -84 -16t-68.5 -46t-46 -69t-16.5 -82v-295zM777 778q22 -58 22 -123v-295q0 -75 -29 -142.5t-80 -118t-118.5 -79
t-143.5 -28.5t-143.5 28.5t-117.5 79t-80 118t-30 142.5v295q0 76 29 143.5t80 118t117.5 79t144.5 28.5q76 0 143.5 -28.5t117.5 -78.5q23 -23 41 -50q1 2 1 3l42 163q9 31 36.5 47t58.5 8q30 -8 47 -35.5t9 -59.5l-42 -162q-9 -32 -36.5 -48t-58.5 -8q-5 1 -10 3z" />
    <glyph glyph-name="uni1EDD" unicode="&#x1edd;" 
d="M213 360q0 -43 17 -81.5t46 -68.5t69 -46.5t83 -16.5q45 0 84 16.5t68.5 46.5t46 68.5t16.5 81.5v295q0 43 -17.5 82t-46 69t-68.5 46t-83 16q-45 0 -84 -16t-69 -46t-46 -69t-16 -82v-295zM262 1325q-12 18 -12 41q0 31 22.5 53.5t56.5 22.5q43 0 66 -37l84 -145
q10 -19 10 -41q0 -31 -21.5 -53.5t-56.5 -22.5q-45 0 -65 37zM776 779q22 -59 22 -124v-295q0 -75 -28.5 -142.5t-79.5 -118t-119 -79t-143 -28.5q-76 0 -143.5 28.5t-118 79t-80 118t-29.5 142.5v295q0 76 28.5 143.5t80 118t118 79t144.5 28.5q75 0 143 -28.5t118 -78.5
q23 -23 41 -50q1 1 1 3l42 163q9 31 36.5 47t58.5 8q30 -8 47 -35.5t9 -59.5l-42 -162q-9 -32 -36.5 -48t-58.5 -8q-5 1 -11 4z" />
    <glyph glyph-name="uni1EDB" unicode="&#x1edb;" 
d="M213 360q0 -43 17 -81.5t46 -68.5t69 -46.5t83 -16.5q45 0 84 16.5t68.5 46.5t46 68.5t16.5 81.5v295q0 43 -17.5 82t-46 69t-68.5 46t-83 16q-45 0 -84 -16t-69 -46t-46 -69t-16 -82v-295zM448 1403q21 37 66 37q35 0 56.5 -22.5t21.5 -53.5q0 -27 -11 -41l-84 -145
q-22 -37 -65 -37q-35 0 -57.5 22.5t-22.5 53.5q0 18 12 40zM776 779q22 -59 22 -124v-295q0 -75 -28.5 -142.5t-79.5 -118t-119 -79t-143 -28.5q-76 0 -143.5 28.5t-118 79t-80 118t-29.5 142.5v295q0 76 28.5 143.5t80 118t118 79t144.5 28.5q75 0 143 -28.5t118 -78.5
q23 -23 41 -50q1 1 1 3l42 163q9 31 36.5 47t58.5 8q30 -8 47 -35.5t9 -59.5l-42 -162q-9 -32 -36.5 -48t-58.5 -8q-5 1 -11 4z" />
    <glyph glyph-name="uni1EDF" unicode="&#x1edf;" 
d="M213 360q0 -43 17.5 -81.5t46 -68.5t68.5 -46.5t83 -16.5q45 0 84 16.5t68.5 46.5t46 68.5t16.5 81.5v295q0 43 -17.5 82t-46 69t-68.5 46t-83 16q-45 0 -84 -16t-68.5 -46t-46 -69t-16.5 -82v-295zM374 1203.5q24 13.5 51 13t41.5 6t27 19t20.5 30t8 36.5v0
q0 21 -7.5 39t-19 29t-25 17t-26.5 6q-22 0 -41 -14.5t-31 -40.5q-6 -14 -21.5 -23t-35.5 -9q-32 0 -45.5 16.5t-13.5 30.5q0 7 2 14q5 29 25 55t43 42.5t54 26t64 9.5q43 0 82 -17t68.5 -49.5t39 -64.5t9.5 -67q0 -31 -12.5 -62t-36 -57t-60 -44t-93.5 -18
q0 -31 -33.5 -34.5t-47.5 15.5t-12 50.5t26 45zM777 778q22 -58 22 -123v-295q0 -75 -29 -142.5t-80 -118t-118.5 -79t-143.5 -28.5t-143.5 28.5t-117.5 79t-80 118t-30 142.5v295q0 76 29 143.5t80 118t117.5 79t144.5 28.5q76 0 143.5 -28.5t117.5 -78.5q23 -23 41 -50
q1 2 1 3l42 163q9 31 36.5 47t58.5 8q30 -8 47 -35.5t9 -59.5l-42 -162q-9 -32 -36.5 -48t-58.5 -8q-5 1 -10 3z" />
    <glyph glyph-name="uni1EE1" unicode="&#x1ee1;" 
d="M213 360q0 -43 17 -81.5t46 -68.5t69 -46.5t83 -16.5q45 0 84 16.5t68.5 46.5t46 68.5t16.5 81.5v295q0 43 -17.5 82t-46 69t-68.5 46t-83 16q-45 0 -84 -16t-69 -46t-46 -69t-16 -82v-295zM147 1268q0 30 21.5 50.5t51.5 32t62.5 16.5t57.5 5q28 0 63 -12t80 -12
q37 0 58.5 4t33.5 8t19.5 8t13.5 4q31 0 54.5 -22.5t23.5 -55.5q0 -30 -21.5 -49.5t-51.5 -31t-62.5 -16.5t-55.5 -5q-51 0 -114 20q-11 2 -31 2q-37 0 -58.5 -3t-34 -8t-18.5 -8t-12 -3q-31 0 -55.5 22.5t-24.5 53.5zM776 779q22 -59 22 -124v-295q0 -75 -28.5 -142.5
t-79.5 -118t-119 -79t-143 -28.5q-76 0 -143.5 28.5t-118 79t-80 118t-29.5 142.5v295q0 76 28.5 143.5t80 118t118 79t144.5 28.5q75 0 143 -28.5t118 -78.5q23 -23 41 -50q1 1 1 3l42 163q9 31 36.5 47t58.5 8q30 -8 47 -35.5t9 -59.5l-42 -162q-9 -32 -36.5 -48t-58.5 -8
q-5 1 -11 4z" />
    <glyph glyph-name="uni1EE3" unicode="&#x1ee3;" 
d="M213 360q0 -43 17.5 -81.5t46 -68.5t68.5 -46.5t83 -16.5q45 0 84 16.5t68.5 46.5t46 68.5t16.5 81.5v295q0 43 -17.5 82t-46 69t-68.5 46t-83 16q-45 0 -84 -16t-68.5 -46t-46 -69t-16.5 -82v-295zM336 -219q0 38 26.5 65t65.5 27q36 0 64 -27t28 -65q0 -39 -26.5 -65.5
t-65.5 -26.5q-36 0 -64 26.5t-28 65.5zM777 778q22 -58 22 -123v-295q0 -75 -29 -142.5t-80 -118t-118.5 -79t-143.5 -28.5t-143.5 28.5t-117.5 79t-80 118t-30 142.5v295q0 76 29 143.5t80 118t117.5 79t144.5 28.5q76 0 143.5 -28.5t117.5 -78.5q23 -23 41 -50q1 2 1 3
l42 163q9 31 36.5 47t58.5 8q30 -8 47 -35.5t9 -59.5l-42 -162q-9 -32 -36.5 -48t-58.5 -8q-5 1 -10 3z" />
    <glyph glyph-name="ygrave" unicode="&#x1ef3;" horiz-adv-x="833" 
d="M45 938q0 33 22.5 55.5t55.5 22.5q31 0 54.5 -22.5t23.5 -55.5v-578q0 -43 16 -81.5t46 -68.5t69 -46.5t84 -16.5q43 0 83 16.5t68.5 46.5t46 68.5t17.5 81.5v578q0 33 22.5 55.5t55.5 22.5q30 0 53.5 -22.5t23.5 -55.5v-578q0 -65 -22.5 -125.5t-61.5 -107.5t-93 -81
t-115 -46v-283q0 -32 -23 -54.5t-55 -22.5q-31 0 -54.5 22.5t-23.5 54.5v283q-64 12 -117 46t-92 81t-61.5 107.5t-22.5 125.5v578zM282 1325q-12 18 -12 41q0 31 22.5 53.5t57.5 22.5q43 0 65 -37l84 -145q10 -19 10 -41q0 -31 -21.5 -53.5t-55.5 -22.5q-46 0 -66 37z" />
    <glyph glyph-name="glyph234" unicode="&#xfd;" horiz-adv-x="831" 
d="M45 938q0 33 22.5 55.5t55.5 22.5q31 0 54.5 -22.5t23.5 -55.5v-578q0 -43 16 -81.5t46 -68.5t69 -46.5t84 -16.5q43 0 83 16.5t68.5 46.5t46 68.5t17.5 81.5v578q0 33 22.5 55.5t55.5 22.5q30 0 53.5 -22.5t23.5 -55.5v-578q0 -65 -22.5 -125.5t-61.5 -107.5t-93 -81
t-115 -46v-283q0 -32 -23 -54.5t-55 -22.5q-31 0 -54.5 22.5t-23.5 54.5v283q-64 12 -117 46t-92 81t-61.5 107.5t-22.5 125.5v578zM438 1409q21 37 66 37q35 0 56.5 -22.5t21.5 -53.5q0 -27 -11 -41l-84 -145q-22 -37 -65 -37q-35 0 -57.5 22.5t-22.5 53.5q0 18 12 41z" />
    <glyph glyph-name="uni1EF7" unicode="&#x1ef7;" horiz-adv-x="833" 
d="M45 938q0 33 22.5 55.5t55.5 22.5q31 0 54.5 -22.5t23.5 -55.5v-578q0 -43 16 -81.5t46 -68.5t69 -46.5t84 -16.5q43 0 83 16.5t68.5 46.5t46 68.5t17.5 81.5v578q0 33 22.5 55.5t55.5 22.5q30 0 53.5 -22.5t23.5 -55.5v-578q0 -65 -22.5 -125.5t-61.5 -107.5t-93 -81
t-115 -46v-283q0 -32 -23 -54.5t-55 -22.5q-31 0 -54.5 22.5t-23.5 54.5v283q-64 12 -117 46t-92 81t-61.5 107.5t-22.5 125.5v578zM404 1203.5q24 13.5 51 13t41.5 6t27 19t20.5 30t8 36.5v0q0 21 -7.5 39t-19 29t-25 17t-27.5 6q-21 0 -40.5 -14.5t-30.5 -40.5
q-6 -14 -21.5 -23t-35.5 -9q-32 0 -46 16.5t-14 30.5q0 7 3 14q5 29 25 55t43 42.5t54 26t63 9.5q44 0 83 -17t68.5 -49.5t38.5 -64.5t9 -67q0 -31 -12 -62t-35.5 -57t-60 -44t-93.5 -18q0 -31 -33.5 -34.5t-47.5 15.5t-12 50.5t26 45z" />
    <glyph glyph-name="uni1EF9" unicode="&#x1ef9;" horiz-adv-x="833" 
d="M45 938q0 33 22.5 55.5t55.5 22.5q31 0 54.5 -22.5t23.5 -55.5v-578q0 -43 16 -81.5t46 -68.5t69 -46.5t84 -16.5q43 0 83 16.5t68.5 46.5t46 68.5t17.5 81.5v578q0 33 22.5 55.5t55.5 22.5q30 0 53.5 -22.5t23.5 -55.5v-578q0 -65 -22.5 -125.5t-61.5 -107.5t-93 -81
t-115 -46v-283q0 -32 -23 -54.5t-55 -22.5q-31 0 -54.5 22.5t-23.5 54.5v283q-64 12 -117 46t-92 81t-61.5 107.5t-22.5 125.5v578zM167 1268q0 30 21.5 50.5t51 32t62.5 16.5t57 5q29 0 64 -12t80 -12q37 0 58.5 4t33.5 8t19.5 8t13.5 4q30 0 53.5 -22.5t23.5 -55.5
q0 -30 -21.5 -49.5t-51 -31t-62 -16.5t-55.5 -5q-51 0 -115 20q-10 2 -30 2q-37 0 -58.5 -3t-34 -8t-18.5 -8t-12 -3q-31 0 -55.5 22.5t-24.5 53.5z" />
    <glyph glyph-name="uni1EF5" unicode="&#x1ef5;" horiz-adv-x="833" 
d="M45 938q0 33 22.5 55.5t55.5 22.5q31 0 54.5 -22.5t23.5 -55.5v-578q0 -43 16 -81.5t46 -68.5t69 -46.5t84 -16.5q43 0 83 16.5t68.5 46.5t46 68.5t17.5 81.5v578q0 33 22.5 55.5t55.5 22.5q30 0 53.5 -22.5t23.5 -55.5v-578q0 -65 -22.5 -125.5t-61.5 -107.5t-93 -81
t-115 -46v-283q0 -32 -23 -54.5t-55 -22.5q-31 0 -54.5 22.5t-23.5 54.5v283q-64 12 -117 46t-92 81t-61.5 107.5t-22.5 125.5v578zM324 -540q0 38 26.5 65t65.5 27q36 0 63.5 -27t27.5 -65q0 -39 -26.5 -65.5t-64.5 -26.5q-37 0 -64.5 26.5t-27.5 65.5z" />
    <glyph glyph-name="divide" unicode="&#xf7;" horiz-adv-x="1706" 
 />
    <glyph glyph-name="ugrave" horiz-adv-x="582" 
 />
    <glyph glyph-name="uacute" horiz-adv-x="580" 
 />
    <glyph glyph-name="yacute" horiz-adv-x="629" 
 />
    <glyph glyph-name="Ccaron" unicode="&#x10c;" horiz-adv-x="1274" 
 />
    <glyph glyph-name="ccaron" unicode="&#x10d;" horiz-adv-x="922" 
 />
    <glyph glyph-name="Dslash" unicode="&#x110;" horiz-adv-x="1208" 
d="M172 1274q0 33 22.5 55.5t55.5 22.5h409q101 0 191 -38t155.5 -103.5t104.5 -152.5t39 -188v-389q0 -100 -39 -187t-104.5 -152.5t-154.5 -103.5t-190 -38h-411q-31 0 -54.5 22.5t-23.5 55.5v502h-45q-33 0 -55.5 22.5t-22.5 54.5q0 31 22.5 54.5t55.5 23.5h45v539z
M328 1196v-461h239q33 0 55.5 -22.5t22.5 -55.5q0 -30 -22.5 -53.5t-55.5 -23.5h-239v-424h333q70 0 130.5 25.5t105.5 69.5t70.5 103.5t25.5 126.5v389q0 68 -25.5 127.5t-70.5 103.5t-106.5 69.5t-131.5 25.5h-331z" />
    <glyph glyph-name="dcroat" unicode="&#x111;" horiz-adv-x="835" 
d="M179 360q0 -43 16.5 -81.5t46 -68.5t68.5 -46.5t84 -16.5q43 0 83 16.5t68.5 46.5t46 68.5t17.5 81.5v295q0 43 -16 82t-46 69t-69 46t-84 16q-43 0 -83 -16t-68.5 -46t-46 -69t-17.5 -82v-295zM609 1092h-399q-33 0 -55.5 23.5t-22.5 54.5q0 33 22.5 55.5t55.5 22.5h399
v50q0 33 22.5 55.5t55.5 22.5q31 0 54.5 -22.5t23.5 -55.5v-938q0 -75 -29.5 -142.5t-80 -118t-118 -79t-143.5 -28.5q-78 0 -144.5 28.5t-117.5 79t-79.5 118t-28.5 142.5v295q0 76 29.5 143.5t79.5 118t117.5 79t143.5 28.5q60 0 114 -18.5t101 -51.5v138z" />
    <glyph glyph-name="quoteleft" unicode="&#x2018;" horiz-adv-x="331" 
d="M67 1298q0 29 23.5 53.5t52.5 24.5h82q32 0 55 -23.5t23 -54.5q0 -32 -23 -54.5t-55 -22.5h-2v-84q0 -33 -23.5 -55.5t-54.5 -22.5q-33 0 -55.5 22.5t-22.5 55.5v161z" />
    <glyph glyph-name="quoteright" unicode="&#x2019;" horiz-adv-x="335" 
d="M110 1298q0 33 23.5 55.5t54.5 22.5q32 0 55 -22.5t23 -55.5v-161q0 -29 -24 -53.5t-52 -24.5h-82q-33 0 -55.5 23.5t-22.5 54.5q0 32 22.5 54.5t55.5 22.5h2v84z" />
    <glyph glyph-name="quotedblleft" unicode="&#x201c;" horiz-adv-x="602" 
d="M71 1298q0 29 23.5 53.5t52.5 24.5h82q32 0 55 -23.5t23 -54.5q0 -32 -23 -54.5t-55 -22.5h-2v-84q0 -33 -23.5 -55.5t-54.5 -22.5q-33 0 -55.5 22.5t-22.5 55.5v161zM317 1298q0 29 23.5 53.5t52.5 24.5h81q33 0 55.5 -23.5t22.5 -54.5q0 -32 -22.5 -54.5t-55.5 -22.5
h-2v-84q0 -33 -23.5 -55.5t-53.5 -22.5q-33 0 -55.5 22.5t-22.5 55.5v161z" />
    <glyph glyph-name="quotedblright" unicode="&#x201d;" horiz-adv-x="604" 
d="M377 1298q0 33 23.5 55.5t53.5 22.5q33 0 55.5 -22.5t22.5 -55.5v-161q0 -29 -23.5 -53.5t-51.5 -24.5h-82q-33 0 -55.5 23.5t-22.5 54.5q0 32 22.5 54.5t55.5 22.5h2v84zM131 1298q0 33 23.5 55.5t54.5 22.5q32 0 55 -22.5t23 -55.5v-161q0 -29 -24 -53.5t-52 -24.5h-82
q-33 0 -55.5 23.5t-22.5 54.5q0 32 22.5 54.5t55.5 22.5h2v84z" />
    <glyph glyph-name="ellipsis" unicode="&#x2026;" horiz-adv-x="817" 
d="M67 78q0 33 22.5 55.5t55.5 22.5q31 0 54.5 -22.5t23.5 -55.5t-22.5 -55.5t-55.5 -22.5q-31 0 -54.5 22.5t-23.5 55.5zM329 78q0 33 22.5 55.5t55.5 22.5q31 0 54.5 -22.5t23.5 -55.5t-22.5 -55.5t-55.5 -22.5q-31 0 -54.5 22.5t-23.5 55.5zM591 78q0 33 22.5 55.5
t55.5 22.5q31 0 54.5 -22.5t23.5 -55.5t-22.5 -55.5t-55.5 -22.5q-31 0 -54.5 22.5t-23.5 55.5z" />
  </font>
</defs>
</svg>
